<?xml version="1.0" encoding="utf-8" standalone="no"?>
<!DOCTYPE svg PUBLIC "-//W3C//DTD SVG 1.1//EN"
  "http://www.w3.org/Graphics/SVG/1.1/DTD/svg11.dtd">
<!-- Created with matplotlib (http://matplotlib.org/) -->
<svg height="432pt" version="1.1" viewBox="0 0 864 432" width="864pt" xmlns="http://www.w3.org/2000/svg" xmlns:xlink="http://www.w3.org/1999/xlink">
 <defs>
  <style type="text/css">
*{stroke-linecap:butt;stroke-linejoin:round;}
  </style>
 </defs>
 <g id="figure_1">
  <g id="patch_1">
   <path d="M 0 432 
L 864 432 
L 864 0 
L 0 0 
z
" style="fill:#ffffff;"/>
  </g>
  <g id="axes_1">
   <g id="patch_2">
    <path d="M 172.8 384.48 
L 777.6 384.48 
L 777.6 51.84 
L 172.8 51.84 
z
" style="fill:#ffffff;"/>
   </g>
   <g id="patch_3">
    <path clip-path="url(#pb9a1826868)" d="M 172.8 369.36 
L 416.121115 369.36 
L 416.121115 344.674286 
L 172.8 344.674286 
z
" style="fill:#1f77b4;"/>
   </g>
   <g id="patch_4">
    <path clip-path="url(#pb9a1826868)" d="M 172.8 338.502857 
L 432.567317 338.502857 
L 432.567317 313.817143 
L 172.8 313.817143 
z
" style="fill:#1f77b4;"/>
   </g>
   <g id="patch_5">
    <path clip-path="url(#pb9a1826868)" d="M 172.8 307.645714 
L 469.7598 307.645714 
L 469.7598 282.96 
L 172.8 282.96 
z
" style="fill:#1f77b4;"/>
   </g>
   <g id="patch_6">
    <path clip-path="url(#pb9a1826868)" d="M 172.8 276.788571 
L 490.956725 276.788571 
L 490.956725 252.102857 
L 172.8 252.102857 
z
" style="fill:#1f77b4;"/>
   </g>
   <g id="patch_7">
    <path clip-path="url(#pb9a1826868)" d="M 172.8 245.931429 
L 493.449504 245.931429 
L 493.449504 221.245714 
L 172.8 221.245714 
z
" style="fill:#1f77b4;"/>
   </g>
   <g id="patch_8">
    <path clip-path="url(#pb9a1826868)" d="M 172.8 215.074286 
L 522.112124 215.074286 
L 522.112124 190.388571 
L 172.8 190.388571 
z
" style="fill:#1f77b4;"/>
   </g>
   <g id="patch_9">
    <path clip-path="url(#pb9a1826868)" d="M 172.8 184.217143 
L 600.993163 184.217143 
L 600.993163 159.531429 
L 172.8 159.531429 
z
" style="fill:#1f77b4;"/>
   </g>
   <g id="patch_10">
    <path clip-path="url(#pb9a1826868)" d="M 172.8 153.36 
L 650.582859 153.36 
L 650.582859 128.674286 
L 172.8 128.674286 
z
" style="fill:#1f77b4;"/>
   </g>
   <g id="patch_11">
    <path clip-path="url(#pb9a1826868)" d="M 172.8 122.502857 
L 704.673043 122.502857 
L 704.673043 97.817143 
L 172.8 97.817143 
z
" style="fill:#1f77b4;"/>
   </g>
   <g id="patch_12">
    <path clip-path="url(#pb9a1826868)" d="M 172.8 91.645714 
L 748.8 91.645714 
L 748.8 66.96 
L 172.8 66.96 
z
" style="fill:#1f77b4;"/>
   </g>
   <g id="matplotlib.axis_1">
    <g id="xtick_1">
     <g id="line2d_1">
      <path clip-path="url(#pb9a1826868)" d="M 172.8 384.48 
L 172.8 51.84 
" style="fill:none;stroke:#b0b0b0;stroke-linecap:square;stroke-width:0.8;"/>
     </g>
     <g id="line2d_2">
      <defs>
       <path d="M 0 0 
L 0 -3.5 
" id="m6a2844039f" style="stroke:#000000;stroke-width:0.8;"/>
      </defs>
      <g>
       <use style="stroke:#000000;stroke-width:0.8;" x="172.8" xlink:href="#m6a2844039f" y="384.48"/>
      </g>
     </g>
     <g id="text_1">
      <!-- 0.000 -->
      <defs>
       <path d="M 31.78125 66.40625 
Q 24.171875 66.40625 20.328125 58.90625 
Q 16.5 51.421875 16.5 36.375 
Q 16.5 21.390625 20.328125 13.890625 
Q 24.171875 6.390625 31.78125 6.390625 
Q 39.453125 6.390625 43.28125 13.890625 
Q 47.125 21.390625 47.125 36.375 
Q 47.125 51.421875 43.28125 58.90625 
Q 39.453125 66.40625 31.78125 66.40625 
z
M 31.78125 74.21875 
Q 44.046875 74.21875 50.515625 64.515625 
Q 56.984375 54.828125 56.984375 36.375 
Q 56.984375 17.96875 50.515625 8.265625 
Q 44.046875 -1.421875 31.78125 -1.421875 
Q 19.53125 -1.421875 13.0625 8.265625 
Q 6.59375 17.96875 6.59375 36.375 
Q 6.59375 54.828125 13.0625 64.515625 
Q 19.53125 74.21875 31.78125 74.21875 
z
" id="DejaVuSans-30"/>
       <path d="M 10.6875 12.40625 
L 21 12.40625 
L 21 0 
L 10.6875 0 
z
" id="DejaVuSans-2e"/>
      </defs>
      <g transform="translate(158.485938 395.578438)scale(0.1 -0.1)">
       <use xlink:href="#DejaVuSans-30"/>
       <use x="63.623047" xlink:href="#DejaVuSans-2e"/>
       <use x="95.410156" xlink:href="#DejaVuSans-30"/>
       <use x="159.033203" xlink:href="#DejaVuSans-30"/>
       <use x="222.65625" xlink:href="#DejaVuSans-30"/>
      </g>
     </g>
    </g>
    <g id="xtick_2">
     <g id="line2d_3">
      <path clip-path="url(#pb9a1826868)" d="M 244.689907 384.48 
L 244.689907 51.84 
" style="fill:none;stroke:#b0b0b0;stroke-linecap:square;stroke-width:0.8;"/>
     </g>
     <g id="line2d_4">
      <g>
       <use style="stroke:#000000;stroke-width:0.8;" x="244.689907" xlink:href="#m6a2844039f" y="384.48"/>
      </g>
     </g>
     <g id="text_2">
      <!-- 0.002 -->
      <defs>
       <path d="M 19.1875 8.296875 
L 53.609375 8.296875 
L 53.609375 0 
L 7.328125 0 
L 7.328125 8.296875 
Q 12.9375 14.109375 22.625 23.890625 
Q 32.328125 33.6875 34.8125 36.53125 
Q 39.546875 41.84375 41.421875 45.53125 
Q 43.3125 49.21875 43.3125 52.78125 
Q 43.3125 58.59375 39.234375 62.25 
Q 35.15625 65.921875 28.609375 65.921875 
Q 23.96875 65.921875 18.8125 64.3125 
Q 13.671875 62.703125 7.8125 59.421875 
L 7.8125 69.390625 
Q 13.765625 71.78125 18.9375 73 
Q 24.125 74.21875 28.421875 74.21875 
Q 39.75 74.21875 46.484375 68.546875 
Q 53.21875 62.890625 53.21875 53.421875 
Q 53.21875 48.921875 51.53125 44.890625 
Q 49.859375 40.875 45.40625 35.40625 
Q 44.1875 33.984375 37.640625 27.21875 
Q 31.109375 20.453125 19.1875 8.296875 
z
" id="DejaVuSans-32"/>
      </defs>
      <g transform="translate(230.375844 395.578438)scale(0.1 -0.1)">
       <use xlink:href="#DejaVuSans-30"/>
       <use x="63.623047" xlink:href="#DejaVuSans-2e"/>
       <use x="95.410156" xlink:href="#DejaVuSans-30"/>
       <use x="159.033203" xlink:href="#DejaVuSans-30"/>
       <use x="222.65625" xlink:href="#DejaVuSans-32"/>
      </g>
     </g>
    </g>
    <g id="xtick_3">
     <g id="line2d_5">
      <path clip-path="url(#pb9a1826868)" d="M 316.579813 384.48 
L 316.579813 51.84 
" style="fill:none;stroke:#b0b0b0;stroke-linecap:square;stroke-width:0.8;"/>
     </g>
     <g id="line2d_6">
      <g>
       <use style="stroke:#000000;stroke-width:0.8;" x="316.579813" xlink:href="#m6a2844039f" y="384.48"/>
      </g>
     </g>
     <g id="text_3">
      <!-- 0.004 -->
      <defs>
       <path d="M 37.796875 64.3125 
L 12.890625 25.390625 
L 37.796875 25.390625 
z
M 35.203125 72.90625 
L 47.609375 72.90625 
L 47.609375 25.390625 
L 58.015625 25.390625 
L 58.015625 17.1875 
L 47.609375 17.1875 
L 47.609375 0 
L 37.796875 0 
L 37.796875 17.1875 
L 4.890625 17.1875 
L 4.890625 26.703125 
z
" id="DejaVuSans-34"/>
      </defs>
      <g transform="translate(302.265751 395.578438)scale(0.1 -0.1)">
       <use xlink:href="#DejaVuSans-30"/>
       <use x="63.623047" xlink:href="#DejaVuSans-2e"/>
       <use x="95.410156" xlink:href="#DejaVuSans-30"/>
       <use x="159.033203" xlink:href="#DejaVuSans-30"/>
       <use x="222.65625" xlink:href="#DejaVuSans-34"/>
      </g>
     </g>
    </g>
    <g id="xtick_4">
     <g id="line2d_7">
      <path clip-path="url(#pb9a1826868)" d="M 388.46972 384.48 
L 388.46972 51.84 
" style="fill:none;stroke:#b0b0b0;stroke-linecap:square;stroke-width:0.8;"/>
     </g>
     <g id="line2d_8">
      <g>
       <use style="stroke:#000000;stroke-width:0.8;" x="388.46972" xlink:href="#m6a2844039f" y="384.48"/>
      </g>
     </g>
     <g id="text_4">
      <!-- 0.006 -->
      <defs>
       <path d="M 33.015625 40.375 
Q 26.375 40.375 22.484375 35.828125 
Q 18.609375 31.296875 18.609375 23.390625 
Q 18.609375 15.53125 22.484375 10.953125 
Q 26.375 6.390625 33.015625 6.390625 
Q 39.65625 6.390625 43.53125 10.953125 
Q 47.40625 15.53125 47.40625 23.390625 
Q 47.40625 31.296875 43.53125 35.828125 
Q 39.65625 40.375 33.015625 40.375 
z
M 52.59375 71.296875 
L 52.59375 62.3125 
Q 48.875 64.0625 45.09375 64.984375 
Q 41.3125 65.921875 37.59375 65.921875 
Q 27.828125 65.921875 22.671875 59.328125 
Q 17.53125 52.734375 16.796875 39.40625 
Q 19.671875 43.65625 24.015625 45.921875 
Q 28.375 48.1875 33.59375 48.1875 
Q 44.578125 48.1875 50.953125 41.515625 
Q 57.328125 34.859375 57.328125 23.390625 
Q 57.328125 12.15625 50.6875 5.359375 
Q 44.046875 -1.421875 33.015625 -1.421875 
Q 20.359375 -1.421875 13.671875 8.265625 
Q 6.984375 17.96875 6.984375 36.375 
Q 6.984375 53.65625 15.1875 63.9375 
Q 23.390625 74.21875 37.203125 74.21875 
Q 40.921875 74.21875 44.703125 73.484375 
Q 48.484375 72.75 52.59375 71.296875 
z
" id="DejaVuSans-36"/>
      </defs>
      <g transform="translate(374.155657 395.578438)scale(0.1 -0.1)">
       <use xlink:href="#DejaVuSans-30"/>
       <use x="63.623047" xlink:href="#DejaVuSans-2e"/>
       <use x="95.410156" xlink:href="#DejaVuSans-30"/>
       <use x="159.033203" xlink:href="#DejaVuSans-30"/>
       <use x="222.65625" xlink:href="#DejaVuSans-36"/>
      </g>
     </g>
    </g>
    <g id="xtick_5">
     <g id="line2d_9">
      <path clip-path="url(#pb9a1826868)" d="M 460.359627 384.48 
L 460.359627 51.84 
" style="fill:none;stroke:#b0b0b0;stroke-linecap:square;stroke-width:0.8;"/>
     </g>
     <g id="line2d_10">
      <g>
       <use style="stroke:#000000;stroke-width:0.8;" x="460.359627" xlink:href="#m6a2844039f" y="384.48"/>
      </g>
     </g>
     <g id="text_5">
      <!-- 0.008 -->
      <defs>
       <path d="M 31.78125 34.625 
Q 24.75 34.625 20.71875 30.859375 
Q 16.703125 27.09375 16.703125 20.515625 
Q 16.703125 13.921875 20.71875 10.15625 
Q 24.75 6.390625 31.78125 6.390625 
Q 38.8125 6.390625 42.859375 10.171875 
Q 46.921875 13.96875 46.921875 20.515625 
Q 46.921875 27.09375 42.890625 30.859375 
Q 38.875 34.625 31.78125 34.625 
z
M 21.921875 38.8125 
Q 15.578125 40.375 12.03125 44.71875 
Q 8.5 49.078125 8.5 55.328125 
Q 8.5 64.0625 14.71875 69.140625 
Q 20.953125 74.21875 31.78125 74.21875 
Q 42.671875 74.21875 48.875 69.140625 
Q 55.078125 64.0625 55.078125 55.328125 
Q 55.078125 49.078125 51.53125 44.71875 
Q 48 40.375 41.703125 38.8125 
Q 48.828125 37.15625 52.796875 32.3125 
Q 56.78125 27.484375 56.78125 20.515625 
Q 56.78125 9.90625 50.3125 4.234375 
Q 43.84375 -1.421875 31.78125 -1.421875 
Q 19.734375 -1.421875 13.25 4.234375 
Q 6.78125 9.90625 6.78125 20.515625 
Q 6.78125 27.484375 10.78125 32.3125 
Q 14.796875 37.15625 21.921875 38.8125 
z
M 18.3125 54.390625 
Q 18.3125 48.734375 21.84375 45.5625 
Q 25.390625 42.390625 31.78125 42.390625 
Q 38.140625 42.390625 41.71875 45.5625 
Q 45.3125 48.734375 45.3125 54.390625 
Q 45.3125 60.0625 41.71875 63.234375 
Q 38.140625 66.40625 31.78125 66.40625 
Q 25.390625 66.40625 21.84375 63.234375 
Q 18.3125 60.0625 18.3125 54.390625 
z
" id="DejaVuSans-38"/>
      </defs>
      <g transform="translate(446.045564 395.578438)scale(0.1 -0.1)">
       <use xlink:href="#DejaVuSans-30"/>
       <use x="63.623047" xlink:href="#DejaVuSans-2e"/>
       <use x="95.410156" xlink:href="#DejaVuSans-30"/>
       <use x="159.033203" xlink:href="#DejaVuSans-30"/>
       <use x="222.65625" xlink:href="#DejaVuSans-38"/>
      </g>
     </g>
    </g>
    <g id="xtick_6">
     <g id="line2d_11">
      <path clip-path="url(#pb9a1826868)" d="M 532.249533 384.48 
L 532.249533 51.84 
" style="fill:none;stroke:#b0b0b0;stroke-linecap:square;stroke-width:0.8;"/>
     </g>
     <g id="line2d_12">
      <g>
       <use style="stroke:#000000;stroke-width:0.8;" x="532.249533" xlink:href="#m6a2844039f" y="384.48"/>
      </g>
     </g>
     <g id="text_6">
      <!-- 0.010 -->
      <defs>
       <path d="M 12.40625 8.296875 
L 28.515625 8.296875 
L 28.515625 63.921875 
L 10.984375 60.40625 
L 10.984375 69.390625 
L 28.421875 72.90625 
L 38.28125 72.90625 
L 38.28125 8.296875 
L 54.390625 8.296875 
L 54.390625 0 
L 12.40625 0 
z
" id="DejaVuSans-31"/>
      </defs>
      <g transform="translate(517.935471 395.578438)scale(0.1 -0.1)">
       <use xlink:href="#DejaVuSans-30"/>
       <use x="63.623047" xlink:href="#DejaVuSans-2e"/>
       <use x="95.410156" xlink:href="#DejaVuSans-30"/>
       <use x="159.033203" xlink:href="#DejaVuSans-31"/>
       <use x="222.65625" xlink:href="#DejaVuSans-30"/>
      </g>
     </g>
    </g>
    <g id="xtick_7">
     <g id="line2d_13">
      <path clip-path="url(#pb9a1826868)" d="M 604.13944 384.48 
L 604.13944 51.84 
" style="fill:none;stroke:#b0b0b0;stroke-linecap:square;stroke-width:0.8;"/>
     </g>
     <g id="line2d_14">
      <g>
       <use style="stroke:#000000;stroke-width:0.8;" x="604.13944" xlink:href="#m6a2844039f" y="384.48"/>
      </g>
     </g>
     <g id="text_7">
      <!-- 0.012 -->
      <g transform="translate(589.825377 395.578438)scale(0.1 -0.1)">
       <use xlink:href="#DejaVuSans-30"/>
       <use x="63.623047" xlink:href="#DejaVuSans-2e"/>
       <use x="95.410156" xlink:href="#DejaVuSans-30"/>
       <use x="159.033203" xlink:href="#DejaVuSans-31"/>
       <use x="222.65625" xlink:href="#DejaVuSans-32"/>
      </g>
     </g>
    </g>
    <g id="xtick_8">
     <g id="line2d_15">
      <path clip-path="url(#pb9a1826868)" d="M 676.029347 384.48 
L 676.029347 51.84 
" style="fill:none;stroke:#b0b0b0;stroke-linecap:square;stroke-width:0.8;"/>
     </g>
     <g id="line2d_16">
      <g>
       <use style="stroke:#000000;stroke-width:0.8;" x="676.029347" xlink:href="#m6a2844039f" y="384.48"/>
      </g>
     </g>
     <g id="text_8">
      <!-- 0.014 -->
      <g transform="translate(661.715284 395.578438)scale(0.1 -0.1)">
       <use xlink:href="#DejaVuSans-30"/>
       <use x="63.623047" xlink:href="#DejaVuSans-2e"/>
       <use x="95.410156" xlink:href="#DejaVuSans-30"/>
       <use x="159.033203" xlink:href="#DejaVuSans-31"/>
       <use x="222.65625" xlink:href="#DejaVuSans-34"/>
      </g>
     </g>
    </g>
    <g id="xtick_9">
     <g id="line2d_17">
      <path clip-path="url(#pb9a1826868)" d="M 747.919253 384.48 
L 747.919253 51.84 
" style="fill:none;stroke:#b0b0b0;stroke-linecap:square;stroke-width:0.8;"/>
     </g>
     <g id="line2d_18">
      <g>
       <use style="stroke:#000000;stroke-width:0.8;" x="747.919253" xlink:href="#m6a2844039f" y="384.48"/>
      </g>
     </g>
     <g id="text_9">
      <!-- 0.016 -->
      <g transform="translate(733.605191 395.578438)scale(0.1 -0.1)">
       <use xlink:href="#DejaVuSans-30"/>
       <use x="63.623047" xlink:href="#DejaVuSans-2e"/>
       <use x="95.410156" xlink:href="#DejaVuSans-30"/>
       <use x="159.033203" xlink:href="#DejaVuSans-31"/>
       <use x="222.65625" xlink:href="#DejaVuSans-36"/>
      </g>
     </g>
    </g>
    <g id="text_10">
     <!-- Weight -->
     <defs>
      <path d="M 3.328125 72.90625 
L 13.28125 72.90625 
L 28.609375 11.28125 
L 43.890625 72.90625 
L 54.984375 72.90625 
L 70.3125 11.28125 
L 85.59375 72.90625 
L 95.609375 72.90625 
L 77.296875 0 
L 64.890625 0 
L 49.515625 63.28125 
L 33.984375 0 
L 21.578125 0 
z
" id="DejaVuSans-57"/>
      <path d="M 56.203125 29.59375 
L 56.203125 25.203125 
L 14.890625 25.203125 
Q 15.484375 15.921875 20.484375 11.0625 
Q 25.484375 6.203125 34.421875 6.203125 
Q 39.59375 6.203125 44.453125 7.46875 
Q 49.3125 8.734375 54.109375 11.28125 
L 54.109375 2.78125 
Q 49.265625 0.734375 44.1875 -0.34375 
Q 39.109375 -1.421875 33.890625 -1.421875 
Q 20.796875 -1.421875 13.15625 6.1875 
Q 5.515625 13.8125 5.515625 26.8125 
Q 5.515625 40.234375 12.765625 48.109375 
Q 20.015625 56 32.328125 56 
Q 43.359375 56 49.78125 48.890625 
Q 56.203125 41.796875 56.203125 29.59375 
z
M 47.21875 32.234375 
Q 47.125 39.59375 43.09375 43.984375 
Q 39.0625 48.390625 32.421875 48.390625 
Q 24.90625 48.390625 20.390625 44.140625 
Q 15.875 39.890625 15.1875 32.171875 
z
" id="DejaVuSans-65"/>
      <path d="M 9.421875 54.6875 
L 18.40625 54.6875 
L 18.40625 0 
L 9.421875 0 
z
M 9.421875 75.984375 
L 18.40625 75.984375 
L 18.40625 64.59375 
L 9.421875 64.59375 
z
" id="DejaVuSans-69"/>
      <path d="M 45.40625 27.984375 
Q 45.40625 37.75 41.375 43.109375 
Q 37.359375 48.484375 30.078125 48.484375 
Q 22.859375 48.484375 18.828125 43.109375 
Q 14.796875 37.75 14.796875 27.984375 
Q 14.796875 18.265625 18.828125 12.890625 
Q 22.859375 7.515625 30.078125 7.515625 
Q 37.359375 7.515625 41.375 12.890625 
Q 45.40625 18.265625 45.40625 27.984375 
z
M 54.390625 6.78125 
Q 54.390625 -7.171875 48.1875 -13.984375 
Q 42 -20.796875 29.203125 -20.796875 
Q 24.46875 -20.796875 20.265625 -20.09375 
Q 16.0625 -19.390625 12.109375 -17.921875 
L 12.109375 -9.1875 
Q 16.0625 -11.328125 19.921875 -12.34375 
Q 23.78125 -13.375 27.78125 -13.375 
Q 36.625 -13.375 41.015625 -8.765625 
Q 45.40625 -4.15625 45.40625 5.171875 
L 45.40625 9.625 
Q 42.625 4.78125 38.28125 2.390625 
Q 33.9375 0 27.875 0 
Q 17.828125 0 11.671875 7.65625 
Q 5.515625 15.328125 5.515625 27.984375 
Q 5.515625 40.671875 11.671875 48.328125 
Q 17.828125 56 27.875 56 
Q 33.9375 56 38.28125 53.609375 
Q 42.625 51.21875 45.40625 46.390625 
L 45.40625 54.6875 
L 54.390625 54.6875 
z
" id="DejaVuSans-67"/>
      <path d="M 54.890625 33.015625 
L 54.890625 0 
L 45.90625 0 
L 45.90625 32.71875 
Q 45.90625 40.484375 42.875 44.328125 
Q 39.84375 48.1875 33.796875 48.1875 
Q 26.515625 48.1875 22.3125 43.546875 
Q 18.109375 38.921875 18.109375 30.90625 
L 18.109375 0 
L 9.078125 0 
L 9.078125 75.984375 
L 18.109375 75.984375 
L 18.109375 46.1875 
Q 21.34375 51.125 25.703125 53.5625 
Q 30.078125 56 35.796875 56 
Q 45.21875 56 50.046875 50.171875 
Q 54.890625 44.34375 54.890625 33.015625 
z
" id="DejaVuSans-68"/>
      <path d="M 18.3125 70.21875 
L 18.3125 54.6875 
L 36.8125 54.6875 
L 36.8125 47.703125 
L 18.3125 47.703125 
L 18.3125 18.015625 
Q 18.3125 11.328125 20.140625 9.421875 
Q 21.96875 7.515625 27.59375 7.515625 
L 36.8125 7.515625 
L 36.8125 0 
L 27.59375 0 
Q 17.1875 0 13.234375 3.875 
Q 9.28125 7.765625 9.28125 18.015625 
L 9.28125 47.703125 
L 2.6875 47.703125 
L 2.6875 54.6875 
L 9.28125 54.6875 
L 9.28125 70.21875 
z
" id="DejaVuSans-74"/>
     </defs>
     <g transform="translate(457.491406 409.256563)scale(0.1 -0.1)">
      <use xlink:href="#DejaVuSans-57"/>
      <use x="98.798828" xlink:href="#DejaVuSans-65"/>
      <use x="160.322266" xlink:href="#DejaVuSans-69"/>
      <use x="188.105469" xlink:href="#DejaVuSans-67"/>
      <use x="251.582031" xlink:href="#DejaVuSans-68"/>
      <use x="314.960938" xlink:href="#DejaVuSans-74"/>
     </g>
    </g>
   </g>
   <g id="matplotlib.axis_2">
    <g id="ytick_1">
     <g id="line2d_19">
      <defs>
       <path d="M 0 0 
L 3.5 0 
" id="meda865456e" style="stroke:#000000;stroke-width:0.8;"/>
      </defs>
      <g>
       <use style="stroke:#000000;stroke-width:0.8;" x="172.8" xlink:href="#meda865456e" y="357.017143"/>
      </g>
     </g>
     <g id="text_11">
      <!-- 1979.03.25_1_党中央纪.txt -->
      <defs>
       <path d="M 27.828125 0 
L 27.828125 64.703125 
Q 25.59375 62.453125 20.234375 59.671875 
Q 14.890625 56.890625 10.359375 55.765625 
L 10.359375 65.140625 
Q 16.359375 66.796875 23.1875 70.4375 
Q 30.03125 74.078125 33.6875 77.296875 
L 37.3125 77.296875 
L 37.3125 0 
z
" id="MicrosoftYaHei-31"/>
       <path d="M 9.03125 10.25 
Q 15.28125 6.640625 22.515625 6.640625 
Q 32.671875 6.640625 38.25 14.640625 
Q 43.84375 22.65625 43.84375 37.40625 
Q 43.75 37.3125 43.65625 37.40625 
Q 38.671875 27.9375 26.90625 27.9375 
Q 17.390625 27.9375 11.140625 34.46875 
Q 4.890625 41.015625 4.890625 51.46875 
Q 4.890625 62.59375 11.71875 69.75 
Q 18.5625 76.90625 29.4375 76.90625 
Q 40.71875 76.90625 47.0625 68.046875 
Q 53.421875 59.1875 53.421875 42.234375 
Q 53.421875 21.296875 45.21875 10.015625 
Q 37.015625 -1.265625 22.515625 -1.265625 
Q 14.546875 -1.265625 9.03125 1.3125 
z
M 14.546875 52.6875 
Q 14.546875 45.0625 18.453125 40.59375 
Q 22.359375 36.140625 29.25 36.140625 
Q 35.203125 36.140625 39.25 40.203125 
Q 43.3125 44.28125 43.3125 50.09375 
Q 43.3125 58.25 39.28125 63.59375 
Q 35.25 68.953125 28.65625 68.953125 
Q 22.5625 68.953125 18.546875 64.3125 
Q 14.546875 59.671875 14.546875 52.6875 
z
" id="MicrosoftYaHei-39"/>
       <path d="M 53.46875 69.734375 
Q 41.546875 48.921875 34.734375 31.21875 
Q 27.9375 13.53125 26.3125 0 
L 16.359375 0 
Q 18.171875 13.328125 24.90625 30.421875 
Q 31.640625 47.515625 42.921875 67.1875 
L 5.421875 67.1875 
L 5.421875 75.640625 
L 53.46875 75.640625 
z
" id="MicrosoftYaHei-37"/>
       <path d="M 5.8125 5.03125 
Q 5.8125 7.671875 7.609375 9.46875 
Q 9.421875 11.28125 12.109375 11.28125 
Q 14.84375 11.28125 16.640625 9.453125 
Q 18.453125 7.625 18.453125 5.03125 
Q 18.453125 2.484375 16.640625 0.65625 
Q 14.84375 -1.171875 12.0625 -1.171875 
Q 9.375 -1.171875 7.59375 0.65625 
Q 5.8125 2.484375 5.8125 5.03125 
z
" id="MicrosoftYaHei-2e"/>
       <path d="M 4.4375 36.328125 
Q 4.4375 56.34375 11.078125 66.625 
Q 17.71875 76.90625 30.328125 76.90625 
Q 54.34375 76.90625 54.34375 38.140625 
Q 54.34375 19 47.578125 8.859375 
Q 40.828125 -1.265625 28.609375 -1.265625 
Q 17.09375 -1.265625 10.765625 8.34375 
Q 4.4375 17.96875 4.4375 36.328125 
z
M 14.203125 36.765625 
Q 14.203125 6.640625 29.5 6.640625 
Q 44.53125 6.640625 44.53125 37.25 
Q 44.53125 68.953125 29.78125 68.953125 
Q 14.203125 68.953125 14.203125 36.765625 
z
" id="MicrosoftYaHei-30"/>
       <path d="M 6.984375 12.640625 
Q 14.75 6.640625 24.515625 6.640625 
Q 32.328125 6.640625 36.890625 10.46875 
Q 41.453125 14.3125 41.453125 20.75 
Q 41.453125 35.109375 20.90625 35.109375 
L 14.59375 35.109375 
L 14.59375 43.015625 
L 20.609375 43.015625 
Q 38.8125 43.015625 38.8125 56.5 
Q 38.8125 68.953125 24.90625 68.953125 
Q 16.9375 68.953125 9.90625 63.578125 
L 9.90625 72.609375 
Q 17.328125 76.90625 27.25 76.90625 
Q 36.921875 76.90625 42.78125 71.84375 
Q 48.640625 66.796875 48.640625 58.734375 
Q 48.640625 43.890625 33.5 39.65625 
L 33.5 39.453125 
Q 41.703125 38.578125 46.453125 33.671875 
Q 51.21875 28.765625 51.21875 21.4375 
Q 51.21875 11.234375 43.875 4.984375 
Q 36.53125 -1.265625 24.3125 -1.265625 
Q 13.578125 -1.265625 6.984375 2.734375 
z
" id="MicrosoftYaHei-33"/>
       <path d="M 41.65625 55.8125 
Q 41.65625 61.921875 37.796875 65.40625 
Q 33.9375 68.890625 27.296875 68.890625 
Q 22.609375 68.890625 17.8125 66.5 
Q 13.03125 64.109375 8.890625 59.671875 
L 8.890625 68.953125 
Q 12.59375 72.796875 17.296875 74.84375 
Q 22.015625 76.90625 28.375 76.90625 
Q 38.625 76.90625 44.875 71.40625 
Q 51.125 65.921875 51.125 56.546875 
Q 51.125 48.1875 47.28125 42.078125 
Q 43.453125 35.984375 34.1875 29.59375 
Q 24.703125 23.046875 21.5 20.21875 
Q 18.3125 17.390625 17.03125 14.796875 
Q 15.765625 12.203125 15.765625 8.5 
L 53.375 8.5 
L 53.375 0 
L 5.8125 0 
L 5.8125 3.765625 
Q 5.8125 10.296875 7.59375 14.859375 
Q 9.375 19.4375 13.46875 23.75 
Q 17.578125 28.078125 26.265625 34.125 
Q 35.15625 40.375 38.40625 45.09375 
Q 41.65625 49.8125 41.65625 55.8125 
z
" id="MicrosoftYaHei-32"/>
       <path d="M 51.46875 23.34375 
Q 51.46875 12.25 44.109375 5.46875 
Q 36.765625 -1.3125 24.359375 -1.3125 
Q 13.71875 -1.3125 8.5 1.859375 
L 8.5 11.625 
Q 16.15625 6.640625 24.125 6.640625 
Q 32.03125 6.640625 36.890625 11 
Q 41.75 15.375 41.75 22.609375 
Q 41.75 29.828125 36.6875 33.859375 
Q 31.640625 37.890625 22.40625 37.890625 
Q 15.28125 37.890625 9.578125 37.25 
L 12.359375 75.640625 
L 47.703125 75.640625 
L 47.703125 67.234375 
L 20.40625 67.234375 
L 18.84375 45.796875 
L 25.734375 46.09375 
Q 37.75 46.09375 44.609375 40.109375 
Q 51.46875 34.125 51.46875 23.34375 
z
" id="MicrosoftYaHei-35"/>
       <path d="M 44.828125 -25.53125 
L 0 -25.53125 
L 0 -19.234375 
L 44.828125 -19.234375 
z
" id="MicrosoftYaHei-5f"/>
       <path d="M 19.625 47.40625 
L 80.375 47.40625 
L 80.375 15.96875 
L 72.953125 15.96875 
L 72.953125 19.09375 
L 63.671875 19.09375 
L 63.671875 2.390625 
Q 63.671875 -1.21875 64.75 -2.484375 
Q 66.109375 -4.15625 71.1875 -4.15625 
L 79.890625 -4.15625 
Q 87.203125 -4.15625 88.578125 0.4375 
Q 90.046875 5.21875 91.109375 13.625 
Q 94.625 12.0625 98.53125 10.890625 
Q 97.171875 3.265625 95.609375 -2 
Q 92.96875 -11.078125 81.25 -11.078125 
L 69.734375 -11.078125 
Q 62.5 -11.078125 59.578125 -8.640625 
Q 56.0625 -5.8125 56.0625 1.421875 
L 56.0625 19.09375 
L 43.015625 19.09375 
Q 41.609375 5.078125 32.625 -2.484375 
Q 24.421875 -9.234375 8.296875 -13.921875 
Q 6.0625 -9.90625 3.609375 -6.6875 
Q 20.21875 -2.875 27.9375 3.65625 
Q 34.328125 9.328125 35.359375 19.09375 
L 27.046875 19.09375 
L 27.046875 15.96875 
L 19.625 15.96875 
z
M 5.5625 63.8125 
L 46.296875 63.8125 
L 46.296875 82.953125 
L 53.71875 82.953125 
L 53.71875 63.8125 
L 94.4375 63.8125 
L 94.4375 42.140625 
L 87.203125 42.140625 
L 87.203125 56.984375 
L 12.796875 56.984375 
L 12.796875 42.140625 
L 5.5625 42.140625 
z
M 72.953125 40.765625 
L 27.046875 40.765625 
L 27.046875 25.734375 
L 72.953125 25.734375 
z
M 66.109375 71.140625 
Q 74.21875 76.21875 81.546875 82.171875 
L 87.109375 76.609375 
Q 78.609375 70.265625 70.796875 65.375 
z
M 14.84375 76.609375 
L 19.34375 81.6875 
Q 26.65625 76.8125 34.078125 71.4375 
L 28.71875 65.671875 
Q 22.078125 71.34375 14.84375 76.609375 
z
" id="MicrosoftYaHei-515a"/>
       <path d="M 8.203125 62.0625 
L 45.796875 62.0625 
L 45.796875 83.34375 
L 54.203125 83.34375 
L 54.203125 62.0625 
L 92.1875 62.0625 
L 92.1875 17.53125 
L 84.1875 17.53125 
L 84.1875 22.796875 
L 54.203125 22.796875 
L 54.203125 -13.53125 
L 45.796875 -13.53125 
L 45.796875 22.796875 
L 16.21875 22.796875 
L 16.21875 17.53125 
L 8.203125 17.53125 
z
M 84.1875 54.828125 
L 54.203125 54.828125 
L 54.203125 30.03125 
L 84.1875 30.03125 
z
M 16.21875 30.03125 
L 45.796875 30.03125 
L 45.796875 54.828125 
L 16.21875 54.828125 
z
" id="MicrosoftYaHei-4e2d"/>
       <path d="M 2.546875 31.78125 
L 14.0625 31.78125 
L 14.0625 65.484375 
L 45.515625 65.484375 
L 45.515625 82.765625 
L 54 82.765625 
Q 53.953125 73.296875 53.90625 65.484375 
L 85.453125 65.484375 
L 85.453125 31.78125 
L 97.65625 31.78125 
L 97.65625 24.953125 
L 55.28125 24.953125 
Q 65.921875 1.421875 98.640625 -4.34375 
Q 95.015625 -8.640625 92.390625 -12.15625 
Q 59.8125 -4.046875 50 20.265625 
Q 42.328125 -1.421875 7.515625 -13.328125 
Q 5.28125 -10.296875 1.46875 -6 
Q 37.453125 4.890625 43.890625 24.953125 
L 2.546875 24.953125 
z
M 53.609375 31.78125 
L 77.734375 31.78125 
L 77.734375 58.640625 
L 53.859375 58.640625 
Q 53.765625 39.5 53.609375 31.78125 
z
M 45.453125 58.640625 
L 21.78125 58.640625 
L 21.78125 31.78125 
L 45.21875 31.78125 
Q 45.40625 41.109375 45.453125 58.640625 
z
" id="MicrosoftYaHei-592e"/>
       <path d="M 43.75 45.265625 
L 82.71875 45.265625 
L 82.71875 69.671875 
L 42.09375 69.671875 
L 42.09375 76.703125 
L 90.328125 76.703125 
L 90.328125 34.328125 
L 82.71875 34.328125 
L 82.71875 38.234375 
L 51.375 38.234375 
L 51.375 5.71875 
Q 51.375 -1.90625 58.296875 -1.8125 
L 81.640625 -1.8125 
Q 88.484375 -1.8125 89.75 5.03125 
Q 90.71875 10.109375 91.3125 15.375 
Q 95.21875 13.53125 98.828125 12.453125 
Q 97.859375 6.6875 96.484375 1.125 
Q 94.046875 -8.84375 82.8125 -8.84375 
L 56.546875 -8.84375 
Q 43.75 -8.84375 43.75 4.640625 
z
M 15.328125 24.5625 
Q 24.421875 25.046875 37.59375 26.125 
Q 37.015625 22.796875 36.8125 19.28125 
Q 19.34375 18.21875 7.03125 16.84375 
L 5.671875 23.09375 
Q 13.03125 31.78125 20.609375 44.046875 
Q 12.640625 43.5625 5.078125 42.828125 
L 3.21875 49.171875 
Q 11.421875 60.890625 20.015625 82.859375 
L 27.734375 80.125 
Q 18.453125 61.96875 11.625 49.859375 
Q 17.328125 49.90625 24.21875 50.046875 
Q 28.71875 57.8125 33.296875 66.84375 
L 40.4375 63.71875 
Q 28.03125 41.546875 15.328125 24.5625 
z
M 2.640625 3.171875 
Q 16.21875 4.640625 38.28125 7.859375 
Q 37.59375 3.46875 37.59375 0.640625 
Q 22.171875 -0.921875 4.296875 -4.046875 
z
" id="MicrosoftYaHei-7eaa"/>
       <path d="M 34.46875 0.53125 
Q 31.34375 -1.171875 26.03125 -1.171875 
Q 11.53125 -1.171875 11.53125 14.890625 
L 11.53125 46.09375 
L 2.25 46.09375 
L 2.25 54 
L 11.53125 54 
L 11.53125 67 
L 21.046875 70.015625 
L 21.046875 54 
L 34.46875 54 
L 34.46875 46.09375 
L 21.046875 46.09375 
L 21.046875 16.609375 
Q 21.046875 11.28125 22.84375 8.984375 
Q 24.65625 6.6875 28.859375 6.6875 
Q 32.078125 6.6875 34.46875 8.5 
z
" id="MicrosoftYaHei-74"/>
       <path d="M 49.421875 54 
L 31.34375 26.8125 
L 49.171875 0 
L 38.03125 0 
L 27.734375 17.1875 
Q 26.90625 18.5625 25.390625 21.390625 
L 25.203125 21.390625 
Q 25.140625 21.09375 22.75 17.1875 
L 12.25 0 
L 1.265625 0 
L 19.625 26.515625 
L 2.09375 54 
L 13.234375 54 
L 23.34375 35.9375 
Q 24.265625 34.28125 25.59375 31.640625 
L 25.78125 31.640625 
L 38.921875 54 
z
" id="MicrosoftYaHei-78"/>
      </defs>
      <g transform="translate(47.814063 361.18433)scale(0.1 -0.1)">
       <use xlink:href="#MicrosoftYaHei-31"/>
       <use x="58.642578" xlink:href="#MicrosoftYaHei-39"/>
       <use x="117.285156" xlink:href="#MicrosoftYaHei-37"/>
       <use x="175.927734" xlink:href="#MicrosoftYaHei-39"/>
       <use x="234.570312" xlink:href="#MicrosoftYaHei-2e"/>
       <use x="258.642578" xlink:href="#MicrosoftYaHei-30"/>
       <use x="317.285156" xlink:href="#MicrosoftYaHei-33"/>
       <use x="375.927734" xlink:href="#MicrosoftYaHei-2e"/>
       <use x="400" xlink:href="#MicrosoftYaHei-32"/>
       <use x="458.642578" xlink:href="#MicrosoftYaHei-35"/>
       <use x="517.285156" xlink:href="#MicrosoftYaHei-5f"/>
       <use x="562.109375" xlink:href="#MicrosoftYaHei-31"/>
       <use x="620.751953" xlink:href="#MicrosoftYaHei-5f"/>
       <use x="665.576172" xlink:href="#MicrosoftYaHei-515a"/>
       <use x="765.576172" xlink:href="#MicrosoftYaHei-4e2d"/>
       <use x="865.576172" xlink:href="#MicrosoftYaHei-592e"/>
       <use x="965.576172" xlink:href="#MicrosoftYaHei-7eaa"/>
       <use x="1065.576172" xlink:href="#MicrosoftYaHei-2e"/>
       <use x="1089.648438" xlink:href="#MicrosoftYaHei-74"/>
       <use x="1126.919922" xlink:href="#MicrosoftYaHei-78"/>
       <use x="1177.603516" xlink:href="#MicrosoftYaHei-74"/>
      </g>
     </g>
    </g>
    <g id="ytick_2">
     <g id="line2d_20">
      <g>
       <use style="stroke:#000000;stroke-width:0.8;" x="172.8" xlink:href="#meda865456e" y="326.16"/>
      </g>
     </g>
     <g id="text_12">
      <!-- 1953.02.27_3_坚决开展.txt -->
      <defs>
       <path d="M 42.390625 69.78125 
L 42.390625 76.3125 
L 91.015625 76.3125 
L 91.015625 69.78125 
Q 84.765625 55.859375 74.078125 46.484375 
Q 84.1875 40.28125 98.53125 37.359375 
Q 96.09375 33.640625 94.34375 29.828125 
Q 78.65625 34.078125 67.828125 41.609375 
Q 57.46875 34.421875 43.265625 30.03125 
Q 41.5 33.84375 39.265625 36.96875 
Q 52.296875 40.53125 61.765625 46.4375 
Q 52.15625 55.421875 46.96875 69.78125 
z
M 2.15625 -1.21875 
L 46.09375 -1.21875 
L 46.09375 13.328125 
L 11.03125 13.328125 
L 11.03125 20.0625 
L 46.09375 20.0625 
L 46.09375 29.15625 
L 53.71875 29.15625 
L 53.71875 20.0625 
L 89.265625 20.0625 
L 89.265625 13.328125 
L 53.71875 13.328125 
L 53.71875 -1.21875 
L 97.75 -1.21875 
L 97.75 -7.953125 
L 2.15625 -7.953125 
z
M 29.78125 81.6875 
L 37.109375 81.6875 
L 37.109375 28.265625 
L 29.78125 28.265625 
z
M 9.078125 77.484375 
L 16.40625 77.484375 
L 16.40625 30.609375 
L 9.078125 30.609375 
z
M 82.625 69.78125 
L 54.5 69.78125 
Q 58.9375 58.453125 67.96875 50.828125 
Q 77.484375 58.640625 82.625 69.78125 
z
" id="MicrosoftYaHei-575a"/>
       <path d="M 26.375 35.203125 
L 53.03125 35.203125 
Q 53.90625 43.796875 54 58.0625 
L 32.03125 58.0625 
L 32.03125 65.09375 
L 54.046875 65.09375 
Q 54.203125 73.78125 54.203125 82.5625 
L 61.921875 82.5625 
Q 61.921875 73.875 61.765625 65.09375 
L 86.8125 65.09375 
L 86.8125 35.203125 
L 98.4375 35.203125 
L 98.4375 28.171875 
L 62.453125 28.171875 
Q 71.296875 5.859375 96.875 -3.765625 
Q 92.96875 -8.0625 90.140625 -11.578125 
Q 66.75 0.34375 57.8125 21.734375 
Q 51.8125 0.09375 25.78125 -13.328125 
Q 23.828125 -10.40625 20.21875 -5.90625 
Q 47.75 7.171875 52 28.171875 
L 26.375 28.171875 
z
M 79.296875 58.0625 
L 61.671875 58.0625 
Q 61.53125 44.4375 60.796875 35.203125 
L 79.296875 35.203125 
z
M 15.828125 40.28125 
Q 19.4375 37.75 23.53125 35.796875 
Q 15.4375 13.140625 9.578125 -5.21875 
L 1.65625 -0.921875 
Q 9.375 16.75 15.828125 40.28125 
z
M 9.078125 77.09375 
Q 18.75 67.4375 26.171875 59.125 
L 19.53125 53.078125 
Q 11.625 63.234375 3.328125 71.921875 
z
" id="MicrosoftYaHei-51b3"/>
       <path d="M 1.953125 39.890625 
L 27.4375 39.890625 
L 27.4375 68.3125 
L 6.25 68.3125 
L 6.25 76.03125 
L 93.84375 76.03125 
L 93.84375 68.3125 
L 73.921875 68.3125 
L 73.921875 39.890625 
L 98.046875 39.890625 
L 98.046875 32.171875 
L 73.921875 32.171875 
L 73.921875 -12.359375 
L 65.921875 -12.359375 
L 65.921875 32.171875 
L 35.40625 32.171875 
Q 35.0625 14.3125 30.28125 5.609375 
Q 25.484375 -3.953125 8.296875 -13.625 
Q 5.765625 -10.109375 2.734375 -6.78125 
Q 17.671875 0.828125 22.65625 9.125 
Q 27.09375 15.828125 27.390625 32.171875 
L 1.953125 32.171875 
z
M 35.453125 39.890625 
L 65.921875 39.890625 
L 65.921875 68.3125 
L 35.453125 68.3125 
z
" id="MicrosoftYaHei-5f00"/>
       <path d="M 22.859375 45.265625 
L 38.875 45.265625 
L 38.875 53.765625 
L 46.09375 53.765625 
L 46.09375 45.265625 
L 66.3125 45.265625 
L 66.3125 53.765625 
L 73.53125 53.765625 
L 73.53125 45.265625 
L 91.796875 45.265625 
L 91.796875 38.8125 
L 73.53125 38.8125 
L 73.53125 28.078125 
L 96.390625 28.078125 
L 96.390625 21.625 
L 55.21875 21.625 
Q 59.671875 14.40625 66.0625 9.1875 
Q 73.6875 12.84375 85.84375 19.484375 
L 89.9375 12.359375 
Q 79.640625 8.0625 72.21875 4.9375 
Q 83.15625 -1.46875 98.4375 -3.375 
Q 95.40625 -7.28125 92.96875 -10.796875 
Q 60.9375 -4.15625 47.609375 21.625 
L 37.203125 21.625 
L 37.203125 -2.875 
Q 38.484375 -2.484375 56.640625 3.265625 
Q 56.453125 -0.4375 56.640625 -4.546875 
Q 47.75 -7.078125 38.96875 -10.203125 
Q 36.71875 -11.078125 31.9375 -13.421875 
L 27.640625 -7.46875 
Q 29.984375 -5.90625 29.984375 -0.734375 
L 29.984375 21.625 
L 18.40625 21.625 
Q 17.578125 1.609375 7.125 -13.234375 
Q 4.6875 -9.90625 1.5625 -6.296875 
Q 11.71875 6.890625 11.71875 36.578125 
L 11.71875 78.5625 
L 91.40625 78.5625 
L 91.40625 52.875 
L 83.984375 52.875 
L 83.984375 56.203125 
L 19.140625 56.203125 
L 19.140625 43.21875 
Q 19.140625 34.90625 18.796875 28.078125 
L 38.875 28.078125 
L 38.875 38.8125 
L 22.859375 38.8125 
z
M 83.984375 72.125 
L 19.140625 72.125 
L 19.140625 62.640625 
L 83.984375 62.640625 
z
M 46.09375 28.078125 
L 66.3125 28.078125 
L 66.3125 38.8125 
L 46.09375 38.8125 
z
" id="MicrosoftYaHei-5c55"/>
      </defs>
      <g transform="translate(47.814063 330.288125)scale(0.1 -0.1)">
       <use xlink:href="#MicrosoftYaHei-31"/>
       <use x="58.642578" xlink:href="#MicrosoftYaHei-39"/>
       <use x="117.285156" xlink:href="#MicrosoftYaHei-35"/>
       <use x="175.927734" xlink:href="#MicrosoftYaHei-33"/>
       <use x="234.570312" xlink:href="#MicrosoftYaHei-2e"/>
       <use x="258.642578" xlink:href="#MicrosoftYaHei-30"/>
       <use x="317.285156" xlink:href="#MicrosoftYaHei-32"/>
       <use x="375.927734" xlink:href="#MicrosoftYaHei-2e"/>
       <use x="400" xlink:href="#MicrosoftYaHei-32"/>
       <use x="458.642578" xlink:href="#MicrosoftYaHei-37"/>
       <use x="517.285156" xlink:href="#MicrosoftYaHei-5f"/>
       <use x="562.109375" xlink:href="#MicrosoftYaHei-33"/>
       <use x="620.751953" xlink:href="#MicrosoftYaHei-5f"/>
       <use x="665.576172" xlink:href="#MicrosoftYaHei-575a"/>
       <use x="765.576172" xlink:href="#MicrosoftYaHei-51b3"/>
       <use x="865.576172" xlink:href="#MicrosoftYaHei-5f00"/>
       <use x="965.576172" xlink:href="#MicrosoftYaHei-5c55"/>
       <use x="1065.576172" xlink:href="#MicrosoftYaHei-2e"/>
       <use x="1089.648438" xlink:href="#MicrosoftYaHei-74"/>
       <use x="1126.919922" xlink:href="#MicrosoftYaHei-78"/>
       <use x="1177.603516" xlink:href="#MicrosoftYaHei-74"/>
      </g>
     </g>
    </g>
    <g id="ytick_3">
     <g id="line2d_21">
      <g>
       <use style="stroke:#000000;stroke-width:0.8;" x="172.8" xlink:href="#meda865456e" y="295.302857"/>
      </g>
     </g>
     <g id="text_13">
      <!-- 1980.03.15_5_尖刀连的.txt -->
      <defs>
       <path d="M 4.78125 21.09375 
Q 4.78125 27.640625 8.6875 33.15625 
Q 12.59375 38.671875 18.75 41.015625 
Q 13.8125 43.796875 10.9375 48.140625 
Q 8.0625 52.484375 8.0625 57.5625 
Q 8.0625 62.9375 10.8125 67.375 
Q 13.578125 71.828125 18.484375 74.359375 
Q 23.390625 76.90625 29.296875 76.90625 
Q 35.25 76.90625 40.1875 74.390625 
Q 45.125 71.875 47.859375 67.421875 
Q 50.59375 62.984375 50.59375 57.5625 
Q 50.59375 52.59375 47.78125 48.21875 
Q 44.96875 43.84375 39.984375 41.015625 
Q 46.140625 38.625 50 33.109375 
Q 53.859375 27.59375 53.859375 21.09375 
Q 53.859375 14.65625 50.78125 9.546875 
Q 47.703125 4.4375 42.03125 1.609375 
Q 36.375 -1.21875 29.296875 -1.21875 
Q 22.265625 -1.21875 16.640625 1.609375 
Q 11.03125 4.4375 7.90625 9.5625 
Q 4.78125 14.703125 4.78125 21.09375 
z
M 14.15625 21.53125 
Q 14.15625 14.796875 18.3125 10.734375 
Q 22.46875 6.6875 29.34375 6.6875 
Q 36.078125 6.6875 40.34375 10.8125 
Q 44.625 14.9375 44.625 21.53125 
Q 44.625 27.78125 40.296875 32.046875 
Q 35.984375 36.328125 29.34375 36.328125 
Q 22.75 36.328125 18.453125 32.15625 
Q 14.15625 27.984375 14.15625 21.53125 
z
M 16.890625 56.78125 
Q 16.890625 51.703125 20.5 48.0625 
Q 24.125 44.4375 29.34375 44.4375 
Q 34.46875 44.4375 38.203125 48.09375 
Q 41.9375 51.765625 41.9375 56.78125 
Q 41.9375 61.921875 38.34375 65.484375 
Q 34.765625 69.046875 29.34375 69.046875 
Q 23.96875 69.046875 20.421875 65.546875 
Q 16.890625 62.0625 16.890625 56.78125 
z
" id="MicrosoftYaHei-38"/>
       <path d="M 98.828125 -3.65625 
Q 95.90625 -7.46875 93.171875 -11.671875 
Q 62.984375 -4.6875 50.6875 21.09375 
Q 42.390625 -3.953125 5.671875 -12.15625 
Q 3.8125 -8.640625 0.875 -4.734375 
Q 36.140625 1.421875 43.84375 24.5625 
L 4.890625 24.5625 
L 4.890625 31.59375 
L 45.75 31.59375 
Q 46.53125 35.453125 46.78125 39.796875 
L 54.5 39.796875 
Q 54.15625 35.5 53.46875 31.59375 
L 95.3125 31.59375 
L 95.3125 24.5625 
L 56.453125 24.5625 
Q 68.0625 1.609375 98.828125 -3.65625 
z
M 45.90625 82.765625 
L 53.8125 82.765625 
L 53.8125 43.703125 
L 45.90625 43.703125 
z
M 29.203125 72.703125 
L 34.96875 67.046875 
Q 21.390625 55.421875 7.71875 45.0625 
Q 5.375 48.484375 2.640625 51.421875 
Q 16.109375 60.984375 29.203125 72.703125 
z
M 65.921875 67.046875 
L 70.796875 72.609375 
Q 86.421875 61.765625 97.75 52.984375 
L 92.09375 46.4375 
Q 78.515625 57.765625 65.921875 67.046875 
z
" id="MicrosoftYaHei-5c16"/>
       <path d="M 7.03125 74.953125 
L 89.84375 74.953125 
Q 88.765625 27.875 87.984375 10.015625 
Q 87.109375 -10.984375 67.96875 -10.6875 
Q 60.15625 -10.6875 50.296875 -10.296875 
Q 49.90625 -6.5 48.828125 -1.03125 
Q 58.890625 -2 66.796875 -2.09375 
Q 78.90625 -2.203125 79.59375 11.1875 
Q 80.46875 29.640625 81.0625 67.140625 
L 43.0625 67.140625 
Q 42.28125 35.546875 35.640625 20.171875 
Q 28.328125 1.703125 7.8125 -13.03125 
Q 5.078125 -9.328125 1.953125 -5.8125 
Q 21.1875 7.671875 27.9375 24.5625 
Q 34.078125 38.8125 34.46875 67.140625 
L 7.03125 67.140625 
z
" id="MicrosoftYaHei-5200"/>
       <path d="M 28.90625 21.734375 
L 61.71875 21.734375 
L 61.71875 35.296875 
L 33.296875 35.296875 
L 33.296875 42.234375 
Q 39.265625 52.640625 44.140625 64.3125 
L 30.078125 64.3125 
L 30.078125 71.140625 
L 46.875 71.140625 
Q 49.21875 77.296875 51.265625 83.734375 
L 59.46875 81.984375 
Q 57.375 76.46875 55.171875 71.140625 
L 95.125 71.140625 
L 95.125 64.3125 
L 52.34375 64.3125 
Q 47.359375 52.6875 42.09375 42.140625 
L 61.71875 42.140625 
L 61.71875 59.03125 
L 69.53125 59.03125 
L 69.53125 42.140625 
L 94.53125 42.140625 
L 94.53125 35.296875 
L 69.53125 35.296875 
L 69.53125 21.734375 
L 97.265625 21.734375 
L 97.265625 14.890625 
L 69.53125 14.890625 
L 69.53125 -1.21875 
L 61.71875 -1.21875 
L 61.71875 14.890625 
L 28.90625 14.890625 
z
M 41.40625 -3.375 
L 61.421875 -3.859375 
L 98.734375 -2.984375 
Q 97.078125 -6.890625 95.515625 -10.5 
L 61.625 -10.890625 
L 40.53125 -10.40625 
Q 24.8125 -10.203125 17 0.734375 
Q 14.15625 -1.515625 5.5625 -11.765625 
L 1.375 -3.46875 
Q 7.46875 2.046875 13.484375 7.171875 
L 13.484375 41.265625 
L 2.34375 41.265625 
L 2.34375 48.390625 
L 21.09375 48.390625 
L 21.09375 5.765625 
Q 28.21875 -2.9375 41.40625 -3.375 
z
M 13.375 81.296875 
Q 20.125 72.796875 26.375 63.8125 
L 19.4375 58.9375 
Q 13.671875 68.109375 7.125 77.09375 
z
" id="MicrosoftYaHei-8fde"/>
       <path d="M 5.5625 66.9375 
L 15.4375 66.9375 
Q 19.046875 75.828125 21.390625 83.15625 
L 29.59375 80.8125 
Q 26.515625 73.34375 23.640625 66.9375 
L 43.171875 66.9375 
L 43.171875 -10.796875 
L 35.359375 -10.796875 
L 35.359375 -3.171875 
L 13.375 -3.171875 
L 13.375 -11.46875 
L 5.5625 -11.46875 
z
M 44.625 46.921875 
Q 53.8125 61.46875 60.15625 83.15625 
L 68.359375 81.109375 
Q 65.875 73.734375 63.28125 67.234375 
L 94.734375 67.234375 
Q 93.5625 17.046875 92.78125 4.046875 
Q 92.09375 -11.28125 76.65625 -11.28125 
Q 67.78125 -11.28125 58.59375 -10.6875 
Q 58.015625 -5.8125 57.03125 -2 
L 57.328125 -2 
Q 67.09375 -3.375 75.203125 -3.375 
Q 84.078125 -3.375 84.765625 6 
Q 85.84375 20.5625 86.328125 59.90625 
L 60.15625 59.90625 
Q 55.90625 50.484375 51.375 43.3125 
Q 48.734375 45.171875 44.625 46.921875 
z
M 13.375 4.15625 
L 35.359375 4.15625 
L 35.359375 28.859375 
L 13.375 28.859375 
z
M 35.359375 59.625 
L 13.375 59.625 
L 13.375 35.890625 
L 35.359375 35.890625 
z
M 53.21875 40.28125 
L 59.1875 44.671875 
Q 70.015625 31.890625 76.46875 22.515625 
L 69.234375 17.4375 
Q 62.3125 28.765625 53.21875 40.28125 
z
" id="MicrosoftYaHei-7684"/>
      </defs>
      <g transform="translate(47.814063 299.489576)scale(0.1 -0.1)">
       <use xlink:href="#MicrosoftYaHei-31"/>
       <use x="58.642578" xlink:href="#MicrosoftYaHei-39"/>
       <use x="117.285156" xlink:href="#MicrosoftYaHei-38"/>
       <use x="175.927734" xlink:href="#MicrosoftYaHei-30"/>
       <use x="234.570312" xlink:href="#MicrosoftYaHei-2e"/>
       <use x="258.642578" xlink:href="#MicrosoftYaHei-30"/>
       <use x="317.285156" xlink:href="#MicrosoftYaHei-33"/>
       <use x="375.927734" xlink:href="#MicrosoftYaHei-2e"/>
       <use x="400" xlink:href="#MicrosoftYaHei-31"/>
       <use x="458.642578" xlink:href="#MicrosoftYaHei-35"/>
       <use x="517.285156" xlink:href="#MicrosoftYaHei-5f"/>
       <use x="562.109375" xlink:href="#MicrosoftYaHei-35"/>
       <use x="620.751953" xlink:href="#MicrosoftYaHei-5f"/>
       <use x="665.576172" xlink:href="#MicrosoftYaHei-5c16"/>
       <use x="765.576172" xlink:href="#MicrosoftYaHei-5200"/>
       <use x="865.576172" xlink:href="#MicrosoftYaHei-8fde"/>
       <use x="965.576172" xlink:href="#MicrosoftYaHei-7684"/>
       <use x="1065.576172" xlink:href="#MicrosoftYaHei-2e"/>
       <use x="1089.648438" xlink:href="#MicrosoftYaHei-74"/>
       <use x="1126.919922" xlink:href="#MicrosoftYaHei-78"/>
       <use x="1177.603516" xlink:href="#MicrosoftYaHei-74"/>
      </g>
     </g>
    </g>
    <g id="ytick_4">
     <g id="line2d_22">
      <g>
       <use style="stroke:#000000;stroke-width:0.8;" x="172.8" xlink:href="#meda865456e" y="264.445714"/>
      </g>
     </g>
     <g id="text_14">
      <!-- 1986.01.13_1_关于中央.txt -->
      <defs>
       <path d="M 49.703125 65.921875 
Q 43.796875 68.953125 37.359375 68.953125 
Q 27.546875 68.953125 21.578125 60.40625 
Q 15.625 51.859375 15.53125 37.0625 
L 15.765625 37.0625 
Q 21.140625 47.46875 32.90625 47.46875 
Q 42.71875 47.46875 48.578125 41.0625 
Q 54.4375 34.671875 54.4375 24.078125 
Q 54.4375 12.984375 47.671875 5.859375 
Q 40.921875 -1.265625 30.421875 -1.265625 
Q 18.890625 -1.265625 12.328125 7.734375 
Q 5.765625 16.75 5.765625 33.296875 
Q 5.765625 53.328125 14.375 65.109375 
Q 23 76.90625 37.0625 76.90625 
Q 45.125 76.90625 49.703125 74.703125 
z
M 16.109375 24.75 
Q 16.109375 17.28125 20.09375 11.953125 
Q 24.078125 6.640625 30.671875 6.640625 
Q 36.921875 6.640625 40.828125 11.234375 
Q 44.734375 15.828125 44.734375 23.046875 
Q 44.734375 30.859375 41.046875 35.203125 
Q 37.359375 39.546875 30.5625 39.546875 
Q 24.125 39.546875 20.109375 35.15625 
Q 16.109375 30.765625 16.109375 24.75 
z
" id="MicrosoftYaHei-36"/>
       <path d="M 2.046875 -6.203125 
Q 37.0625 6.25 43.796875 29.640625 
L 4 29.640625 
L 4 37.0625 
L 45.21875 37.0625 
Q 45.40625 39.15625 45.40625 55.71875 
L 9.765625 55.71875 
L 9.765625 63.140625 
L 33.203125 63.140625 
Q 24.8125 72.359375 18.84375 77.984375 
L 24.515625 83.0625 
Q 32.90625 75.53125 39.84375 68.703125 
L 33.59375 63.140625 
L 56.890625 63.140625 
Q 64.453125 73.828125 70.21875 83.15625 
L 78.328125 78.65625 
Q 71.578125 70.0625 65.921875 63.140625 
L 90.625 63.140625 
L 90.625 55.71875 
L 53.71875 55.71875 
Q 53.71875 41.359375 53.5625 37.0625 
L 96.390625 37.0625 
L 96.390625 29.640625 
L 54.9375 29.640625 
Q 66.40625 5.078125 98.140625 -4.046875 
Q 94.140625 -8.15625 90.921875 -11.96875 
Q 60.84375 -0.25 50.046875 23.296875 
Q 42.09375 0.4375 7.71875 -13.234375 
Q 5.171875 -9.90625 2.046875 -6.203125 
z
" id="MicrosoftYaHei-5173"/>
       <path d="M 1.953125 43.109375 
L 47.359375 43.109375 
L 47.359375 68.3125 
L 9.765625 68.3125 
L 9.765625 76.03125 
L 90.625 76.03125 
L 90.625 68.3125 
L 55.5625 68.3125 
L 55.5625 43.109375 
L 98.046875 43.109375 
L 98.046875 35.40625 
L 55.5625 35.40625 
L 55.5625 1.90625 
Q 55.5625 -4.734375 53.125 -7.671875 
Q 50.390625 -11.078125 42.875 -11.28125 
Q 38.484375 -11.28125 26.375 -11.1875 
Q 25.875 -6.6875 24.8125 -2.296875 
Q 35.84375 -3.078125 40.140625 -3.078125 
Q 44.53125 -3.078125 46 -1.421875 
Q 47.359375 -0.046875 47.359375 4.734375 
L 47.359375 35.40625 
L 1.953125 35.40625 
z
" id="MicrosoftYaHei-4e8e"/>
      </defs>
      <g transform="translate(47.814063 268.612902)scale(0.1 -0.1)">
       <use xlink:href="#MicrosoftYaHei-31"/>
       <use x="58.642578" xlink:href="#MicrosoftYaHei-39"/>
       <use x="117.285156" xlink:href="#MicrosoftYaHei-38"/>
       <use x="175.927734" xlink:href="#MicrosoftYaHei-36"/>
       <use x="234.570312" xlink:href="#MicrosoftYaHei-2e"/>
       <use x="258.642578" xlink:href="#MicrosoftYaHei-30"/>
       <use x="317.285156" xlink:href="#MicrosoftYaHei-31"/>
       <use x="375.927734" xlink:href="#MicrosoftYaHei-2e"/>
       <use x="400" xlink:href="#MicrosoftYaHei-31"/>
       <use x="458.642578" xlink:href="#MicrosoftYaHei-33"/>
       <use x="517.285156" xlink:href="#MicrosoftYaHei-5f"/>
       <use x="562.109375" xlink:href="#MicrosoftYaHei-31"/>
       <use x="620.751953" xlink:href="#MicrosoftYaHei-5f"/>
       <use x="665.576172" xlink:href="#MicrosoftYaHei-5173"/>
       <use x="765.576172" xlink:href="#MicrosoftYaHei-4e8e"/>
       <use x="865.576172" xlink:href="#MicrosoftYaHei-4e2d"/>
       <use x="965.576172" xlink:href="#MicrosoftYaHei-592e"/>
       <use x="1065.576172" xlink:href="#MicrosoftYaHei-2e"/>
       <use x="1089.648438" xlink:href="#MicrosoftYaHei-74"/>
       <use x="1126.919922" xlink:href="#MicrosoftYaHei-78"/>
       <use x="1177.603516" xlink:href="#MicrosoftYaHei-74"/>
      </g>
     </g>
    </g>
    <g id="ytick_5">
     <g id="line2d_23">
      <g>
       <use style="stroke:#000000;stroke-width:0.8;" x="172.8" xlink:href="#meda865456e" y="233.588571"/>
      </g>
     </g>
     <g id="text_15">
      <!-- 1993.09.03_3_中国共产.txt -->
      <defs>
       <path d="M 7.328125 78.078125 
L 92.78125 78.078125 
L 92.78125 -13.03125 
L 85.25 -13.03125 
L 85.25 -8.15625 
L 14.84375 -8.15625 
L 14.84375 -13.140625 
L 7.328125 -13.140625 
z
M 85.25 71.140625 
L 14.84375 71.140625 
L 14.84375 -1.21875 
L 85.25 -1.21875 
z
M 19.34375 15.765625 
L 46.296875 15.765625 
L 46.296875 35.109375 
L 22.75 35.109375 
L 22.75 41.75 
L 46.296875 41.75 
L 46.296875 54.828125 
L 20.90625 54.828125 
L 20.90625 61.46875 
L 79.109375 61.46875 
L 79.109375 54.828125 
L 53.515625 54.828125 
L 53.515625 41.75 
L 77.15625 41.75 
L 77.15625 35.109375 
L 53.515625 35.109375 
L 53.515625 15.765625 
L 80.671875 15.765625 
L 80.671875 9.125 
L 19.34375 9.125 
z
M 58.59375 28.859375 
L 64.0625 32.953125 
Q 69.4375 27.390625 73.25 22.515625 
L 67.484375 18.109375 
Q 62.796875 24.46875 58.59375 28.859375 
z
" id="MicrosoftYaHei-56fd"/>
       <path d="M 1.953125 28.859375 
L 27.15625 28.859375 
L 27.15625 55.8125 
L 5.859375 55.8125 
L 5.859375 63.234375 
L 27.15625 63.234375 
L 27.15625 81.984375 
L 35.15625 81.984375 
L 35.15625 63.234375 
L 64.75 63.234375 
L 64.75 82.078125 
L 72.75 82.078125 
L 72.75 63.234375 
L 94.140625 63.234375 
L 94.140625 55.8125 
L 72.75 55.8125 
L 72.75 28.859375 
L 98.046875 28.859375 
L 98.046875 21.4375 
L 1.953125 21.4375 
z
M 35.15625 28.859375 
L 64.75 28.859375 
L 64.75 55.8125 
L 35.15625 55.8125 
z
M 34.671875 16.453125 
L 40.71875 10.203125 
Q 24.515625 -1.609375 6.9375 -11.671875 
Q 4.78125 -8.546875 1.765625 -4.9375 
Q 18.84375 4.15625 34.671875 16.453125 
z
M 58.5 9.71875 
L 63.484375 15.875 
Q 80.28125 5.90625 95.796875 -4.734375 
L 90.140625 -11.859375 
Q 74.703125 -0.25 58.5 9.71875 
z
" id="MicrosoftYaHei-5171"/>
       <path d="M 11.625 43.890625 
L 57.8125 43.890625 
Q 64.40625 53.609375 69.625 63.234375 
L 77.15625 58.453125 
Q 71.96875 51.171875 66.3125 43.890625 
L 95.21875 43.890625 
L 95.21875 37.0625 
L 19.53125 37.0625 
L 19.53125 30.21875 
Q 19.53125 12.9375 16.890625 4.4375 
Q 14.15625 -5.03125 6.546875 -13.328125 
Q 4 -10.203125 1.265625 -6.6875 
Q 7.03125 -0.53125 9.375 7.765625 
Q 11.625 15.875 11.625 30.21875 
z
M 3.609375 71.828125 
L 48.1875 71.828125 
Q 46.046875 75.828125 43.453125 80.03125 
L 50.6875 83.640625 
Q 53.859375 78.46875 57.171875 71.828125 
L 97.75 71.828125 
L 97.75 64.890625 
L 3.609375 64.890625 
z
M 24.03125 59.328125 
L 30.46875 63.625 
Q 36.53125 56 41.21875 49.171875 
L 34.28125 44.390625 
Q 30.46875 50.828125 24.03125 59.328125 
z
" id="MicrosoftYaHei-4ea7"/>
      </defs>
      <g transform="translate(47.814063 237.770603)scale(0.1 -0.1)">
       <use xlink:href="#MicrosoftYaHei-31"/>
       <use x="58.642578" xlink:href="#MicrosoftYaHei-39"/>
       <use x="117.285156" xlink:href="#MicrosoftYaHei-39"/>
       <use x="175.927734" xlink:href="#MicrosoftYaHei-33"/>
       <use x="234.570312" xlink:href="#MicrosoftYaHei-2e"/>
       <use x="258.642578" xlink:href="#MicrosoftYaHei-30"/>
       <use x="317.285156" xlink:href="#MicrosoftYaHei-39"/>
       <use x="375.927734" xlink:href="#MicrosoftYaHei-2e"/>
       <use x="400" xlink:href="#MicrosoftYaHei-30"/>
       <use x="458.642578" xlink:href="#MicrosoftYaHei-33"/>
       <use x="517.285156" xlink:href="#MicrosoftYaHei-5f"/>
       <use x="562.109375" xlink:href="#MicrosoftYaHei-33"/>
       <use x="620.751953" xlink:href="#MicrosoftYaHei-5f"/>
       <use x="665.576172" xlink:href="#MicrosoftYaHei-4e2d"/>
       <use x="765.576172" xlink:href="#MicrosoftYaHei-56fd"/>
       <use x="865.576172" xlink:href="#MicrosoftYaHei-5171"/>
       <use x="965.576172" xlink:href="#MicrosoftYaHei-4ea7"/>
       <use x="1065.576172" xlink:href="#MicrosoftYaHei-2e"/>
       <use x="1089.648438" xlink:href="#MicrosoftYaHei-74"/>
       <use x="1126.919922" xlink:href="#MicrosoftYaHei-78"/>
       <use x="1177.603516" xlink:href="#MicrosoftYaHei-74"/>
      </g>
     </g>
    </g>
    <g id="ytick_6">
     <g id="line2d_24">
      <g>
       <use style="stroke:#000000;stroke-width:0.8;" x="172.8" xlink:href="#meda865456e" y="202.731429"/>
      </g>
     </g>
     <g id="text_16">
      <!-- 1992.10.23_2_中共中央.txt -->
      <g transform="translate(47.814063 206.898616)scale(0.1 -0.1)">
       <use xlink:href="#MicrosoftYaHei-31"/>
       <use x="58.642578" xlink:href="#MicrosoftYaHei-39"/>
       <use x="117.285156" xlink:href="#MicrosoftYaHei-39"/>
       <use x="175.927734" xlink:href="#MicrosoftYaHei-32"/>
       <use x="234.570312" xlink:href="#MicrosoftYaHei-2e"/>
       <use x="258.642578" xlink:href="#MicrosoftYaHei-31"/>
       <use x="317.285156" xlink:href="#MicrosoftYaHei-30"/>
       <use x="375.927734" xlink:href="#MicrosoftYaHei-2e"/>
       <use x="400" xlink:href="#MicrosoftYaHei-32"/>
       <use x="458.642578" xlink:href="#MicrosoftYaHei-33"/>
       <use x="517.285156" xlink:href="#MicrosoftYaHei-5f"/>
       <use x="562.109375" xlink:href="#MicrosoftYaHei-32"/>
       <use x="620.751953" xlink:href="#MicrosoftYaHei-5f"/>
       <use x="665.576172" xlink:href="#MicrosoftYaHei-4e2d"/>
       <use x="765.576172" xlink:href="#MicrosoftYaHei-5171"/>
       <use x="865.576172" xlink:href="#MicrosoftYaHei-4e2d"/>
       <use x="965.576172" xlink:href="#MicrosoftYaHei-592e"/>
       <use x="1065.576172" xlink:href="#MicrosoftYaHei-2e"/>
       <use x="1089.648438" xlink:href="#MicrosoftYaHei-74"/>
       <use x="1126.919922" xlink:href="#MicrosoftYaHei-78"/>
       <use x="1177.603516" xlink:href="#MicrosoftYaHei-74"/>
      </g>
     </g>
    </g>
    <g id="ytick_7">
     <g id="line2d_25">
      <g>
       <use style="stroke:#000000;stroke-width:0.8;" x="172.8" xlink:href="#meda865456e" y="171.874286"/>
      </g>
     </g>
     <g id="text_17">
      <!-- 1980.03.15_1_关于党内.txt -->
      <defs>
       <path d="M 9.96875 65.375 
L 46 65.375 
L 46 82.171875 
L 54 82.171875 
L 54 65.375 
L 89.84375 65.375 
L 89.84375 0.921875 
Q 89.84375 -11.46875 77.640625 -11.375 
Q 71.1875 -11.375 61.8125 -11.1875 
Q 61.53125 -7.859375 60.359375 -2.6875 
Q 69.625 -3.46875 75.78125 -3.5625 
Q 81.9375 -3.765625 81.9375 2.59375 
L 81.9375 57.953125 
L 53.8125 57.953125 
Q 53.421875 49.078125 51.65625 42.140625 
Q 68.953125 28.265625 79.59375 17.71875 
L 73.640625 11.375 
Q 63.1875 22.796875 49.3125 35.109375 
Q 42.671875 20.75 24.03125 10.109375 
Q 19.921875 15.765625 18.5625 17.140625 
Q 34.46875 25.53125 40.328125 35.796875 
Q 45.015625 43.3125 45.796875 57.953125 
L 17.875 57.953125 
L 17.875 -12.25 
L 9.96875 -12.25 
z
" id="MicrosoftYaHei-5185"/>
      </defs>
      <g transform="translate(47.814063 176.032098)scale(0.1 -0.1)">
       <use xlink:href="#MicrosoftYaHei-31"/>
       <use x="58.642578" xlink:href="#MicrosoftYaHei-39"/>
       <use x="117.285156" xlink:href="#MicrosoftYaHei-38"/>
       <use x="175.927734" xlink:href="#MicrosoftYaHei-30"/>
       <use x="234.570312" xlink:href="#MicrosoftYaHei-2e"/>
       <use x="258.642578" xlink:href="#MicrosoftYaHei-30"/>
       <use x="317.285156" xlink:href="#MicrosoftYaHei-33"/>
       <use x="375.927734" xlink:href="#MicrosoftYaHei-2e"/>
       <use x="400" xlink:href="#MicrosoftYaHei-31"/>
       <use x="458.642578" xlink:href="#MicrosoftYaHei-35"/>
       <use x="517.285156" xlink:href="#MicrosoftYaHei-5f"/>
       <use x="562.109375" xlink:href="#MicrosoftYaHei-31"/>
       <use x="620.751953" xlink:href="#MicrosoftYaHei-5f"/>
       <use x="665.576172" xlink:href="#MicrosoftYaHei-5173"/>
       <use x="765.576172" xlink:href="#MicrosoftYaHei-4e8e"/>
       <use x="865.576172" xlink:href="#MicrosoftYaHei-515a"/>
       <use x="965.576172" xlink:href="#MicrosoftYaHei-5185"/>
       <use x="1065.576172" xlink:href="#MicrosoftYaHei-2e"/>
       <use x="1089.648438" xlink:href="#MicrosoftYaHei-74"/>
       <use x="1126.919922" xlink:href="#MicrosoftYaHei-78"/>
       <use x="1177.603516" xlink:href="#MicrosoftYaHei-74"/>
      </g>
     </g>
    </g>
    <g id="ytick_8">
     <g id="line2d_26">
      <g>
       <use style="stroke:#000000;stroke-width:0.8;" x="172.8" xlink:href="#meda865456e" y="141.017143"/>
      </g>
     </g>
     <g id="text_18">
      <!-- 2016.11.03_6_关于新形.txt -->
      <defs>
       <path d="M 56.15625 74.953125 
Q 76.375 75.140625 93.453125 78.953125 
L 96 71.4375 
Q 76.65625 68.890625 63.09375 68.109375 
L 63.09375 45.359375 
L 98.734375 45.359375 
L 98.734375 38.71875 
L 84.765625 38.71875 
L 84.765625 -12.453125 
L 77.546875 -12.453125 
L 77.546875 38.71875 
L 63.09375 38.71875 
L 63.09375 33.9375 
Q 63.09375 3.953125 48.734375 -12.75 
Q 46.390625 -9.71875 43.5625 -6.5 
Q 56.15625 7.28125 56.15625 34.234375 
z
M 4.109375 31.109375 
L 24.03125 31.109375 
L 24.03125 40.375 
L 31.0625 40.375 
L 31.0625 31.109375 
L 50.203125 31.109375 
L 50.203125 24.859375 
L 31.0625 24.859375 
L 31.0625 -0.640625 
Q 31.0625 -10.984375 21.09375 -10.984375 
Q 16.890625 -10.984375 11.625 -10.890625 
Q 11.234375 -7.671875 10.546875 -3.46875 
Q 16.21875 -4.046875 19.4375 -4.046875 
Q 24.03125 -4.046875 24.03125 0.921875 
L 24.03125 24.859375 
L 4.109375 24.859375 
z
M 1.375 49.359375 
L 17.09375 49.359375 
Q 12.9375 55.953125 9.28125 60.6875 
L 14.546875 64.40625 
Q 17.78125 60.5 22.859375 53.375 
L 17.328125 49.359375 
L 30.21875 49.359375 
Q 35.546875 57.03125 40.046875 64.5 
L 46.96875 60.59375 
Q 42.234375 54.5 37.9375 49.359375 
L 52.734375 49.359375 
L 52.734375 43.109375 
L 1.375 43.109375 
z
M 4.5 72.015625 
L 25.59375 72.015625 
Q 23.484375 76.03125 20.796875 80.71875 
L 27.046875 83.640625 
Q 30.078125 78.65625 32.71875 73.578125 
L 29.4375 72.015625 
L 50.203125 72.015625 
L 50.203125 65.765625 
L 4.5 65.765625 
z
M 11.625 20.453125 
L 18.265625 17.328125 
Q 12.984375 6.296875 7.8125 -2.59375 
Q 4.984375 -0.828125 1.375 0.921875 
Q 6.15625 8.34375 11.625 20.453125 
z
M 39.75 19.96875 
Q 45.21875 12.546875 49.3125 6.296875 
L 43.0625 2 
Q 38.765625 9.515625 33.984375 16.15625 
z
" id="MicrosoftYaHei-65b0"/>
       <path d="M 2.734375 41.359375 
L 15.921875 41.359375 
L 15.921875 69.09375 
L 5.46875 69.09375 
L 5.46875 76.125 
L 58.984375 76.125 
L 58.984375 69.09375 
L 46.96875 69.09375 
L 46.96875 41.359375 
L 62.109375 41.359375 
L 62.109375 34.328125 
L 46.96875 34.328125 
L 46.96875 -12.359375 
L 39.453125 -12.359375 
L 39.453125 34.328125 
L 23.390625 34.328125 
Q 23.4375 2 6.34375 -13.140625 
Q 4 -9.71875 1.171875 -6.6875 
Q 16.015625 5.71875 15.875 34.328125 
L 2.734375 34.328125 
z
M 23.4375 41.359375 
L 39.453125 41.359375 
L 39.453125 69.09375 
L 23.4375 69.09375 
z
M 98.734375 21.140625 
Q 83.296875 2.59375 58.40625 -13.03125 
Q 56.734375 -10.40625 52.9375 -6.59375 
Q 76.953125 6.203125 93.0625 26.125 
z
M 95.90625 49.5625 
Q 82.03125 33.734375 62.796875 21.046875 
Q 60.75 23.875 57.71875 26.90625 
Q 75.875 38.140625 90.234375 54.4375 
z
M 94.34375 77.09375 
Q 81.15625 62.640625 62.3125 51.03125 
Q 60.546875 53.5625 57.421875 57.28125 
Q 75.59375 67.53125 88.671875 82.078125 
z
" id="MicrosoftYaHei-5f62"/>
      </defs>
      <g transform="translate(47.814063 145.199174)scale(0.1 -0.1)">
       <use xlink:href="#MicrosoftYaHei-32"/>
       <use x="58.642578" xlink:href="#MicrosoftYaHei-30"/>
       <use x="117.285156" xlink:href="#MicrosoftYaHei-31"/>
       <use x="175.927734" xlink:href="#MicrosoftYaHei-36"/>
       <use x="234.570312" xlink:href="#MicrosoftYaHei-2e"/>
       <use x="258.642578" xlink:href="#MicrosoftYaHei-31"/>
       <use x="317.285156" xlink:href="#MicrosoftYaHei-31"/>
       <use x="375.927734" xlink:href="#MicrosoftYaHei-2e"/>
       <use x="400" xlink:href="#MicrosoftYaHei-30"/>
       <use x="458.642578" xlink:href="#MicrosoftYaHei-33"/>
       <use x="517.285156" xlink:href="#MicrosoftYaHei-5f"/>
       <use x="562.109375" xlink:href="#MicrosoftYaHei-36"/>
       <use x="620.751953" xlink:href="#MicrosoftYaHei-5f"/>
       <use x="665.576172" xlink:href="#MicrosoftYaHei-5173"/>
       <use x="765.576172" xlink:href="#MicrosoftYaHei-4e8e"/>
       <use x="865.576172" xlink:href="#MicrosoftYaHei-65b0"/>
       <use x="965.576172" xlink:href="#MicrosoftYaHei-5f62"/>
       <use x="1065.576172" xlink:href="#MicrosoftYaHei-2e"/>
       <use x="1089.648438" xlink:href="#MicrosoftYaHei-74"/>
       <use x="1126.919922" xlink:href="#MicrosoftYaHei-78"/>
       <use x="1177.603516" xlink:href="#MicrosoftYaHei-74"/>
      </g>
     </g>
    </g>
    <g id="ytick_9">
     <g id="line2d_27">
      <g>
       <use style="stroke:#000000;stroke-width:0.8;" x="172.8" xlink:href="#meda865456e" y="110.16"/>
      </g>
     </g>
     <g id="text_19">
      <!-- 1987.11.05_2_中央纪律.txt -->
      <defs>
       <path d="M 35.75 41.65625 
L 57.515625 41.65625 
L 57.515625 50.828125 
L 32.234375 50.828125 
L 32.234375 57.078125 
L 57.515625 57.078125 
L 57.515625 66.15625 
L 36.53125 66.15625 
L 36.53125 72.40625 
L 57.515625 72.40625 
L 57.515625 82.671875 
L 64.84375 82.671875 
L 64.84375 72.40625 
L 89.0625 72.40625 
L 89.0625 57.078125 
L 98.640625 57.078125 
L 98.640625 50.828125 
L 89.0625 50.828125 
L 89.0625 31.78125 
L 81.84375 31.78125 
L 81.84375 35.40625 
L 64.84375 35.40625 
L 64.84375 25.53125 
L 92.1875 25.53125 
L 92.1875 19.28125 
L 64.84375 19.28125 
L 64.84375 10.109375 
L 96.96875 10.109375 
L 96.96875 3.859375 
L 64.84375 3.859375 
L 64.84375 -12.9375 
L 57.515625 -12.9375 
L 57.515625 3.859375 
L 28.328125 3.859375 
L 28.328125 10.109375 
L 57.515625 10.109375 
L 57.515625 19.28125 
L 33.796875 19.28125 
L 33.796875 25.53125 
L 57.515625 25.53125 
L 57.515625 35.40625 
L 35.75 35.40625 
z
M 1.265625 25.53125 
Q 13.28125 37.640625 24.21875 57.46875 
L 30.859375 53.953125 
Q 26.46875 46.296875 21.96875 39.546875 
L 21.96875 -12.9375 
L 14.75 -12.9375 
L 14.75 29.5 
Q 9.765625 23.046875 4.6875 17.71875 
Q 3.125 22.015625 1.265625 25.53125 
z
M 1.65625 56 
Q 15.234375 66.9375 24.703125 83.453125 
L 31.546875 79.546875 
Q 21.296875 63.140625 5.671875 48.96875 
Q 4 52.59375 1.65625 56 
z
M 64.84375 41.65625 
L 81.84375 41.65625 
L 81.84375 50.828125 
L 64.84375 50.828125 
z
M 81.84375 66.15625 
L 64.84375 66.15625 
L 64.84375 57.078125 
L 81.84375 57.078125 
z
" id="MicrosoftYaHei-5f8b"/>
      </defs>
      <g transform="translate(47.814063 114.332656)scale(0.1 -0.1)">
       <use xlink:href="#MicrosoftYaHei-31"/>
       <use x="58.642578" xlink:href="#MicrosoftYaHei-39"/>
       <use x="117.285156" xlink:href="#MicrosoftYaHei-38"/>
       <use x="175.927734" xlink:href="#MicrosoftYaHei-37"/>
       <use x="234.570312" xlink:href="#MicrosoftYaHei-2e"/>
       <use x="258.642578" xlink:href="#MicrosoftYaHei-31"/>
       <use x="317.285156" xlink:href="#MicrosoftYaHei-31"/>
       <use x="375.927734" xlink:href="#MicrosoftYaHei-2e"/>
       <use x="400" xlink:href="#MicrosoftYaHei-30"/>
       <use x="458.642578" xlink:href="#MicrosoftYaHei-35"/>
       <use x="517.285156" xlink:href="#MicrosoftYaHei-5f"/>
       <use x="562.109375" xlink:href="#MicrosoftYaHei-32"/>
       <use x="620.751953" xlink:href="#MicrosoftYaHei-5f"/>
       <use x="665.576172" xlink:href="#MicrosoftYaHei-4e2d"/>
       <use x="765.576172" xlink:href="#MicrosoftYaHei-592e"/>
       <use x="865.576172" xlink:href="#MicrosoftYaHei-7eaa"/>
       <use x="965.576172" xlink:href="#MicrosoftYaHei-5f8b"/>
       <use x="1065.576172" xlink:href="#MicrosoftYaHei-2e"/>
       <use x="1089.648438" xlink:href="#MicrosoftYaHei-74"/>
       <use x="1126.919922" xlink:href="#MicrosoftYaHei-78"/>
       <use x="1177.603516" xlink:href="#MicrosoftYaHei-74"/>
      </g>
     </g>
    </g>
    <g id="ytick_10">
     <g id="line2d_28">
      <g>
       <use style="stroke:#000000;stroke-width:0.8;" x="172.8" xlink:href="#meda865456e" y="79.302857"/>
      </g>
     </g>
     <g id="text_20">
      <!-- 1983.02.20_1_尽快实现.txt -->
      <defs>
       <path d="M 6.453125 -0.53125 
Q 3.8125 2.59375 0.78125 5.8125 
Q 15.140625 24.65625 15.140625 53.171875 
L 15.140625 78.078125 
L 87.984375 78.078125 
L 87.984375 42.921875 
L 80.375 42.921875 
L 80.375 46.828125 
L 63.71875 46.828125 
Q 73.96875 24.125 99.21875 16.0625 
Q 96 11.859375 93.265625 7.5625 
Q 65.765625 20.796875 55.71875 46.828125 
L 22.75 46.828125 
Q 21.234375 19.1875 6.453125 -0.53125 
z
M 22.953125 71.234375 
L 22.953125 53.65625 
L 80.375 53.65625 
L 80.375 71.234375 
z
M 23.140625 4.34375 
L 26.765625 11.078125 
Q 48.140625 4.546875 73.140625 -4.25 
L 69.234375 -12.25 
Q 45.609375 -2.6875 23.140625 4.34375 
z
M 32.625 26.21875 
L 36.140625 33.0625 
Q 51.5625 27.484375 65.71875 21.140625 
L 61.625 13.234375 
Q 47.5625 20.171875 32.625 26.21875 
z
" id="MicrosoftYaHei-5c3d"/>
       <path d="M 29.296875 34.125 
L 55.28125 34.125 
Q 56.0625 42.234375 56.34375 58.25 
L 35.9375 58.25 
L 35.9375 65.1875 
L 56.453125 65.1875 
Q 56.453125 72.90625 56.453125 82.28125 
L 64.15625 82.28125 
Q 64.15625 73 64.0625 65.1875 
L 87.890625 65.1875 
L 87.890625 34.125 
L 97.46875 34.125 
L 97.46875 27.203125 
L 65.828125 27.203125 
Q 73.828125 5.03125 96.96875 -5.328125 
Q 94.4375 -7.765625 90.4375 -12.84375 
Q 68.265625 -0.34375 60.453125 22.796875 
Q 54.59375 0.828125 31.84375 -13.625 
Q 28.609375 -9.515625 26.078125 -7.078125 
Q 49.515625 6.78125 54.296875 27.203125 
L 29.296875 27.203125 
z
M 15.046875 82.28125 
L 22.359375 82.28125 
L 22.359375 60.796875 
L 26.171875 63.328125 
Q 32.515625 56.296875 37.203125 49.65625 
L 31.34375 45.359375 
Q 27.046875 52 22.359375 57.765625 
L 22.359375 -13.234375 
L 15.046875 -13.234375 
z
M 80.28125 58.25 
L 63.96875 58.25 
Q 63.765625 42.71875 63.09375 34.125 
L 80.28125 34.125 
z
M 5.5625 59.8125 
L 12.109375 58.84375 
Q 10.640625 47.015625 7.8125 33.84375 
Q 5.078125 34.515625 1.265625 35.40625 
Q 3.609375 45.453125 5.5625 59.8125 
z
" id="MicrosoftYaHei-5feb"/>
       <path d="M 1.765625 -6.203125 
Q 37.796875 0.53125 48.140625 15.1875 
L 3.328125 15.1875 
L 3.328125 22.40625 
L 51.765625 22.40625 
Q 55.078125 32.5625 54.78125 57.859375 
L 62.984375 57.859375 
Q 62.984375 32.765625 60.25 22.40625 
L 97.265625 22.40625 
L 97.265625 15.1875 
L 57.515625 15.1875 
Q 56.734375 13.625 55.671875 11.859375 
Q 76.5625 3.078125 96.578125 -6.296875 
L 92.28125 -13.71875 
Q 71.390625 -3.078125 50.984375 6.109375 
Q 37.703125 -6.890625 6.453125 -13.921875 
Q 4.203125 -9.625 1.765625 -6.203125 
z
M 5.171875 69.09375 
L 49.90625 69.09375 
Q 47.46875 73.484375 43.359375 79.34375 
L 50.484375 83.34375 
Q 53.71875 79.046875 58.296875 72.015625 
L 52.9375 69.09375 
L 94.734375 69.09375 
L 94.734375 51.609375 
L 86.921875 51.609375 
L 86.921875 61.859375 
L 12.984375 61.859375 
L 12.984375 51.609375 
L 5.171875 51.609375 
z
M 17.1875 42.71875 
Q 28.421875 37.640625 38.28125 32.078125 
L 34.078125 25.34375 
Q 24.3125 31.296875 13.484375 36.46875 
z
M 25.984375 57.671875 
Q 37.3125 52.203125 46.578125 46.625 
L 42.1875 39.984375 
Q 33.109375 45.84375 22.171875 51.90625 
z
" id="MicrosoftYaHei-5b9e"/>
       <path d="M 60.9375 64.703125 
L 68.5625 64.703125 
L 68.5625 48.296875 
Q 68.5625 35.75 66.40625 26.21875 
L 72.859375 26.21875 
L 72.859375 1.609375 
Q 72.859375 -3.5625 78.515625 -3.5625 
L 83.203125 -3.5625 
Q 89.0625 -3.5625 89.65625 1.703125 
Q 90.234375 6.203125 90.625 14.5 
Q 93.953125 13.140625 98.640625 11.46875 
Q 97.859375 2.875 97.078125 -1.421875 
Q 95.609375 -10.40625 84.28125 -10.40625 
L 77.046875 -10.40625 
Q 65.4375 -10.40625 65.4375 0.640625 
L 65.4375 22.265625 
Q 63.421875 15.328125 60.15625 10.203125 
Q 51.859375 -3.171875 32.71875 -13.03125 
Q 30.171875 -9.421875 27.4375 -6.59375 
Q 46.484375 2.59375 53.90625 14.703125 
Q 60.9375 25.640625 60.9375 47.703125 
z
M 40.4375 78.65625 
L 90.328125 78.65625 
L 90.328125 20.0625 
L 82.71875 20.0625 
L 82.71875 71.4375 
L 48.046875 71.4375 
L 48.046875 18.703125 
L 40.4375 18.703125 
z
M 1.265625 6 
Q 8.296875 7.90625 16.015625 10.109375 
L 16.015625 38.53125 
L 3.125 38.53125 
L 3.125 45.5625 
L 16.015625 45.5625 
L 16.015625 68.21875 
L 2.34375 68.21875 
L 2.34375 75.25 
L 37.5 75.25 
L 37.5 68.21875 
L 23.640625 68.21875 
L 23.640625 45.5625 
L 36.140625 45.5625 
L 36.140625 38.53125 
L 23.640625 38.53125 
L 23.640625 12.359375 
Q 30.5625 14.453125 37.984375 16.75 
Q 38.1875 13.03125 38.671875 9.421875 
Q 21.875 4.25 4 -1.515625 
z
" id="MicrosoftYaHei-73b0"/>
      </defs>
      <g transform="translate(47.814063 83.470045)scale(0.1 -0.1)">
       <use xlink:href="#MicrosoftYaHei-31"/>
       <use x="58.642578" xlink:href="#MicrosoftYaHei-39"/>
       <use x="117.285156" xlink:href="#MicrosoftYaHei-38"/>
       <use x="175.927734" xlink:href="#MicrosoftYaHei-33"/>
       <use x="234.570312" xlink:href="#MicrosoftYaHei-2e"/>
       <use x="258.642578" xlink:href="#MicrosoftYaHei-30"/>
       <use x="317.285156" xlink:href="#MicrosoftYaHei-32"/>
       <use x="375.927734" xlink:href="#MicrosoftYaHei-2e"/>
       <use x="400" xlink:href="#MicrosoftYaHei-32"/>
       <use x="458.642578" xlink:href="#MicrosoftYaHei-30"/>
       <use x="517.285156" xlink:href="#MicrosoftYaHei-5f"/>
       <use x="562.109375" xlink:href="#MicrosoftYaHei-31"/>
       <use x="620.751953" xlink:href="#MicrosoftYaHei-5f"/>
       <use x="665.576172" xlink:href="#MicrosoftYaHei-5c3d"/>
       <use x="765.576172" xlink:href="#MicrosoftYaHei-5feb"/>
       <use x="865.576172" xlink:href="#MicrosoftYaHei-5b9e"/>
       <use x="965.576172" xlink:href="#MicrosoftYaHei-73b0"/>
       <use x="1065.576172" xlink:href="#MicrosoftYaHei-2e"/>
       <use x="1089.648438" xlink:href="#MicrosoftYaHei-74"/>
       <use x="1126.919922" xlink:href="#MicrosoftYaHei-78"/>
       <use x="1177.603516" xlink:href="#MicrosoftYaHei-74"/>
      </g>
     </g>
    </g>
    <g id="text_21">
     <!-- Document -->
     <defs>
      <path d="M 19.671875 64.796875 
L 19.671875 8.109375 
L 31.59375 8.109375 
Q 46.6875 8.109375 53.6875 14.9375 
Q 60.6875 21.78125 60.6875 36.53125 
Q 60.6875 51.171875 53.6875 57.984375 
Q 46.6875 64.796875 31.59375 64.796875 
z
M 9.8125 72.90625 
L 30.078125 72.90625 
Q 51.265625 72.90625 61.171875 64.09375 
Q 71.09375 55.28125 71.09375 36.53125 
Q 71.09375 17.671875 61.125 8.828125 
Q 51.171875 0 30.078125 0 
L 9.8125 0 
z
" id="DejaVuSans-44"/>
      <path d="M 30.609375 48.390625 
Q 23.390625 48.390625 19.1875 42.75 
Q 14.984375 37.109375 14.984375 27.296875 
Q 14.984375 17.484375 19.15625 11.84375 
Q 23.34375 6.203125 30.609375 6.203125 
Q 37.796875 6.203125 41.984375 11.859375 
Q 46.1875 17.53125 46.1875 27.296875 
Q 46.1875 37.015625 41.984375 42.703125 
Q 37.796875 48.390625 30.609375 48.390625 
z
M 30.609375 56 
Q 42.328125 56 49.015625 48.375 
Q 55.71875 40.765625 55.71875 27.296875 
Q 55.71875 13.875 49.015625 6.21875 
Q 42.328125 -1.421875 30.609375 -1.421875 
Q 18.84375 -1.421875 12.171875 6.21875 
Q 5.515625 13.875 5.515625 27.296875 
Q 5.515625 40.765625 12.171875 48.375 
Q 18.84375 56 30.609375 56 
z
" id="DejaVuSans-6f"/>
      <path d="M 48.78125 52.59375 
L 48.78125 44.1875 
Q 44.96875 46.296875 41.140625 47.34375 
Q 37.3125 48.390625 33.40625 48.390625 
Q 24.65625 48.390625 19.8125 42.84375 
Q 14.984375 37.3125 14.984375 27.296875 
Q 14.984375 17.28125 19.8125 11.734375 
Q 24.65625 6.203125 33.40625 6.203125 
Q 37.3125 6.203125 41.140625 7.25 
Q 44.96875 8.296875 48.78125 10.40625 
L 48.78125 2.09375 
Q 45.015625 0.34375 40.984375 -0.53125 
Q 36.96875 -1.421875 32.421875 -1.421875 
Q 20.0625 -1.421875 12.78125 6.34375 
Q 5.515625 14.109375 5.515625 27.296875 
Q 5.515625 40.671875 12.859375 48.328125 
Q 20.21875 56 33.015625 56 
Q 37.15625 56 41.109375 55.140625 
Q 45.0625 54.296875 48.78125 52.59375 
z
" id="DejaVuSans-63"/>
      <path d="M 8.5 21.578125 
L 8.5 54.6875 
L 17.484375 54.6875 
L 17.484375 21.921875 
Q 17.484375 14.15625 20.5 10.265625 
Q 23.53125 6.390625 29.59375 6.390625 
Q 36.859375 6.390625 41.078125 11.03125 
Q 45.3125 15.671875 45.3125 23.6875 
L 45.3125 54.6875 
L 54.296875 54.6875 
L 54.296875 0 
L 45.3125 0 
L 45.3125 8.40625 
Q 42.046875 3.421875 37.71875 1 
Q 33.40625 -1.421875 27.6875 -1.421875 
Q 18.265625 -1.421875 13.375 4.4375 
Q 8.5 10.296875 8.5 21.578125 
z
M 31.109375 56 
z
" id="DejaVuSans-75"/>
      <path d="M 52 44.1875 
Q 55.375 50.25 60.0625 53.125 
Q 64.75 56 71.09375 56 
Q 79.640625 56 84.28125 50.015625 
Q 88.921875 44.046875 88.921875 33.015625 
L 88.921875 0 
L 79.890625 0 
L 79.890625 32.71875 
Q 79.890625 40.578125 77.09375 44.375 
Q 74.3125 48.1875 68.609375 48.1875 
Q 61.625 48.1875 57.5625 43.546875 
Q 53.515625 38.921875 53.515625 30.90625 
L 53.515625 0 
L 44.484375 0 
L 44.484375 32.71875 
Q 44.484375 40.625 41.703125 44.40625 
Q 38.921875 48.1875 33.109375 48.1875 
Q 26.21875 48.1875 22.15625 43.53125 
Q 18.109375 38.875 18.109375 30.90625 
L 18.109375 0 
L 9.078125 0 
L 9.078125 54.6875 
L 18.109375 54.6875 
L 18.109375 46.1875 
Q 21.1875 51.21875 25.484375 53.609375 
Q 29.78125 56 35.6875 56 
Q 41.65625 56 45.828125 52.96875 
Q 50 49.953125 52 44.1875 
z
" id="DejaVuSans-6d"/>
      <path d="M 54.890625 33.015625 
L 54.890625 0 
L 45.90625 0 
L 45.90625 32.71875 
Q 45.90625 40.484375 42.875 44.328125 
Q 39.84375 48.1875 33.796875 48.1875 
Q 26.515625 48.1875 22.3125 43.546875 
Q 18.109375 38.921875 18.109375 30.90625 
L 18.109375 0 
L 9.078125 0 
L 9.078125 54.6875 
L 18.109375 54.6875 
L 18.109375 46.1875 
Q 21.34375 51.125 25.703125 53.5625 
Q 30.078125 56 35.796875 56 
Q 45.21875 56 50.046875 50.171875 
Q 54.890625 44.34375 54.890625 33.015625 
z
" id="DejaVuSans-6e"/>
     </defs>
     <g transform="translate(41.734375 244.063125)rotate(-90)scale(0.1 -0.1)">
      <use xlink:href="#DejaVuSans-44"/>
      <use x="77.001953" xlink:href="#DejaVuSans-6f"/>
      <use x="138.183594" xlink:href="#DejaVuSans-63"/>
      <use x="193.164062" xlink:href="#DejaVuSans-75"/>
      <use x="256.542969" xlink:href="#DejaVuSans-6d"/>
      <use x="353.955078" xlink:href="#DejaVuSans-65"/>
      <use x="415.478516" xlink:href="#DejaVuSans-6e"/>
      <use x="478.857422" xlink:href="#DejaVuSans-74"/>
     </g>
    </g>
   </g>
   <g id="patch_13">
    <path d="M 172.8 384.48 
L 172.8 51.84 
" style="fill:none;stroke:#000000;stroke-linecap:square;stroke-linejoin:miter;stroke-width:0.8;"/>
   </g>
   <g id="patch_14">
    <path d="M 777.6 384.48 
L 777.6 51.84 
" style="fill:none;stroke:#000000;stroke-linecap:square;stroke-linejoin:miter;stroke-width:0.8;"/>
   </g>
   <g id="patch_15">
    <path d="M 172.8 384.48 
L 777.6 384.48 
" style="fill:none;stroke:#000000;stroke-linecap:square;stroke-linejoin:miter;stroke-width:0.8;"/>
   </g>
   <g id="patch_16">
    <path d="M 172.8 51.84 
L 777.6 51.84 
" style="fill:none;stroke:#000000;stroke-linecap:square;stroke-linejoin:miter;stroke-width:0.8;"/>
   </g>
   <g id="text_22">
    <!-- Topic 1 -->
    <defs>
     <path d="M -0.296875 72.90625 
L 61.375 72.90625 
L 61.375 64.59375 
L 35.5 64.59375 
L 35.5 0 
L 25.59375 0 
L 25.59375 64.59375 
L -0.296875 64.59375 
z
" id="DejaVuSans-54"/>
     <path d="M 18.109375 8.203125 
L 18.109375 -20.796875 
L 9.078125 -20.796875 
L 9.078125 54.6875 
L 18.109375 54.6875 
L 18.109375 46.390625 
Q 20.953125 51.265625 25.265625 53.625 
Q 29.59375 56 35.59375 56 
Q 45.5625 56 51.78125 48.09375 
Q 58.015625 40.1875 58.015625 27.296875 
Q 58.015625 14.40625 51.78125 6.484375 
Q 45.5625 -1.421875 35.59375 -1.421875 
Q 29.59375 -1.421875 25.265625 0.953125 
Q 20.953125 3.328125 18.109375 8.203125 
z
M 48.6875 27.296875 
Q 48.6875 37.203125 44.609375 42.84375 
Q 40.53125 48.484375 33.40625 48.484375 
Q 26.265625 48.484375 22.1875 42.84375 
Q 18.109375 37.203125 18.109375 27.296875 
Q 18.109375 17.390625 22.1875 11.75 
Q 26.265625 6.109375 33.40625 6.109375 
Q 40.53125 6.109375 44.609375 11.75 
Q 48.6875 17.390625 48.6875 27.296875 
z
" id="DejaVuSans-70"/>
     <path id="DejaVuSans-20"/>
    </defs>
    <g transform="translate(453.380625 45.84)scale(0.12 -0.12)">
     <use xlink:href="#DejaVuSans-54"/>
     <use x="60.818359" xlink:href="#DejaVuSans-6f"/>
     <use x="122" xlink:href="#DejaVuSans-70"/>
     <use x="185.476562" xlink:href="#DejaVuSans-69"/>
     <use x="213.259766" xlink:href="#DejaVuSans-63"/>
     <use x="268.240234" xlink:href="#DejaVuSans-20"/>
     <use x="300.027344" xlink:href="#DejaVuSans-31"/>
    </g>
   </g>
  </g>
 </g>
 <defs>
  <clipPath id="pb9a1826868">
   <rect height="332.64" width="604.8" x="172.8" y="51.84"/>
  </clipPath>
 </defs>
</svg>
