<?xml version="1.0" encoding="utf-8" standalone="no"?>
<!DOCTYPE svg PUBLIC "-//W3C//DTD SVG 1.1//EN"
  "http://www.w3.org/Graphics/SVG/1.1/DTD/svg11.dtd">
<!-- Created with matplotlib (http://matplotlib.org/) -->
<svg height="576pt" version="1.1" viewBox="0 0 864 576" width="864pt" xmlns="http://www.w3.org/2000/svg" xmlns:xlink="http://www.w3.org/1999/xlink">
 <defs>
  <style type="text/css">
*{stroke-linecap:butt;stroke-linejoin:round;}
  </style>
 </defs>
 <g id="figure_1">
  <g id="patch_1">
   <path d="M 0 576 
L 864 576 
L 864 0 
L 0 0 
z
" style="fill:#ffffff;"/>
  </g>
  <g id="axes_1">
   <g id="patch_2">
    <path d="M 172.8 518.4 
L 820.8 518.4 
L 820.8 28.8 
L 172.8 28.8 
z
" style="fill:#ffffff;"/>
   </g>
   <g id="patch_3">
    <path clip-path="url(#p730a06d1c6)" d="M 172.8 496.145455 
L 542.718807 496.145455 
L 542.718807 459.811503 
L 172.8 459.811503 
z
" style="fill:#1f77b4;"/>
   </g>
   <g id="patch_4">
    <path clip-path="url(#p730a06d1c6)" d="M 172.8 450.728015 
L 555.839871 450.728015 
L 555.839871 414.394063 
L 172.8 414.394063 
z
" style="fill:#1f77b4;"/>
   </g>
   <g id="patch_5">
    <path clip-path="url(#p730a06d1c6)" d="M 172.8 405.310575 
L 587.499794 405.310575 
L 587.499794 368.976623 
L 172.8 368.976623 
z
" style="fill:#1f77b4;"/>
   </g>
   <g id="patch_6">
    <path clip-path="url(#p730a06d1c6)" d="M 172.8 359.893135 
L 587.566268 359.893135 
L 587.566268 323.559184 
L 172.8 323.559184 
z
" style="fill:#1f77b4;"/>
   </g>
   <g id="patch_7">
    <path clip-path="url(#p730a06d1c6)" d="M 172.8 314.475696 
L 588.00948 314.475696 
L 588.00948 278.141744 
L 172.8 278.141744 
z
" style="fill:#1f77b4;"/>
   </g>
   <g id="patch_8">
    <path clip-path="url(#p730a06d1c6)" d="M 172.8 269.058256 
L 590.246616 269.058256 
L 590.246616 232.724304 
L 172.8 232.724304 
z
" style="fill:#1f77b4;"/>
   </g>
   <g id="patch_9">
    <path clip-path="url(#p730a06d1c6)" d="M 172.8 223.640816 
L 611.566177 223.640816 
L 611.566177 187.306865 
L 172.8 187.306865 
z
" style="fill:#1f77b4;"/>
   </g>
   <g id="patch_10">
    <path clip-path="url(#p730a06d1c6)" d="M 172.8 178.223377 
L 665.494561 178.223377 
L 665.494561 141.889425 
L 172.8 141.889425 
z
" style="fill:#1f77b4;"/>
   </g>
   <g id="patch_11">
    <path clip-path="url(#p730a06d1c6)" d="M 172.8 132.805937 
L 727.517171 132.805937 
L 727.517171 96.471985 
L 172.8 96.471985 
z
" style="fill:#1f77b4;"/>
   </g>
   <g id="patch_12">
    <path clip-path="url(#p730a06d1c6)" d="M 172.8 87.388497 
L 789.942857 87.388497 
L 789.942857 51.054545 
L 172.8 51.054545 
z
" style="fill:#1f77b4;"/>
   </g>
   <g id="matplotlib.axis_1">
    <g id="xtick_1">
     <g id="line2d_1">
      <path clip-path="url(#p730a06d1c6)" d="M 172.8 518.4 
L 172.8 28.8 
" style="fill:none;stroke:#b0b0b0;stroke-linecap:square;stroke-width:0.8;"/>
     </g>
     <g id="line2d_2">
      <defs>
       <path d="M 0 0 
L 0 -3.5 
" id="m3564a025c0" style="stroke:#000000;stroke-width:0.8;"/>
      </defs>
      <g>
       <use style="stroke:#000000;stroke-width:0.8;" x="172.8" xlink:href="#m3564a025c0" y="518.4"/>
      </g>
     </g>
     <g id="text_1">
      <!-- 0.000 -->
      <defs>
       <path d="M 31.78125 66.40625 
Q 24.171875 66.40625 20.328125 58.90625 
Q 16.5 51.421875 16.5 36.375 
Q 16.5 21.390625 20.328125 13.890625 
Q 24.171875 6.390625 31.78125 6.390625 
Q 39.453125 6.390625 43.28125 13.890625 
Q 47.125 21.390625 47.125 36.375 
Q 47.125 51.421875 43.28125 58.90625 
Q 39.453125 66.40625 31.78125 66.40625 
z
M 31.78125 74.21875 
Q 44.046875 74.21875 50.515625 64.515625 
Q 56.984375 54.828125 56.984375 36.375 
Q 56.984375 17.96875 50.515625 8.265625 
Q 44.046875 -1.421875 31.78125 -1.421875 
Q 19.53125 -1.421875 13.0625 8.265625 
Q 6.59375 17.96875 6.59375 36.375 
Q 6.59375 54.828125 13.0625 64.515625 
Q 19.53125 74.21875 31.78125 74.21875 
z
" id="DejaVuSans-30"/>
       <path d="M 10.6875 12.40625 
L 21 12.40625 
L 21 0 
L 10.6875 0 
z
" id="DejaVuSans-2e"/>
      </defs>
      <g transform="translate(158.485938 529.498438)scale(0.1 -0.1)">
       <use xlink:href="#DejaVuSans-30"/>
       <use x="63.623047" xlink:href="#DejaVuSans-2e"/>
       <use x="95.410156" xlink:href="#DejaVuSans-30"/>
       <use x="159.033203" xlink:href="#DejaVuSans-30"/>
       <use x="222.65625" xlink:href="#DejaVuSans-30"/>
      </g>
     </g>
    </g>
    <g id="xtick_2">
     <g id="line2d_3">
      <path clip-path="url(#p730a06d1c6)" d="M 248.261635 518.4 
L 248.261635 28.8 
" style="fill:none;stroke:#b0b0b0;stroke-linecap:square;stroke-width:0.8;"/>
     </g>
     <g id="line2d_4">
      <g>
       <use style="stroke:#000000;stroke-width:0.8;" x="248.261635" xlink:href="#m3564a025c0" y="518.4"/>
      </g>
     </g>
     <g id="text_2">
      <!-- 0.001 -->
      <defs>
       <path d="M 12.40625 8.296875 
L 28.515625 8.296875 
L 28.515625 63.921875 
L 10.984375 60.40625 
L 10.984375 69.390625 
L 28.421875 72.90625 
L 38.28125 72.90625 
L 38.28125 8.296875 
L 54.390625 8.296875 
L 54.390625 0 
L 12.40625 0 
z
" id="DejaVuSans-31"/>
      </defs>
      <g transform="translate(233.947572 529.498438)scale(0.1 -0.1)">
       <use xlink:href="#DejaVuSans-30"/>
       <use x="63.623047" xlink:href="#DejaVuSans-2e"/>
       <use x="95.410156" xlink:href="#DejaVuSans-30"/>
       <use x="159.033203" xlink:href="#DejaVuSans-30"/>
       <use x="222.65625" xlink:href="#DejaVuSans-31"/>
      </g>
     </g>
    </g>
    <g id="xtick_3">
     <g id="line2d_5">
      <path clip-path="url(#p730a06d1c6)" d="M 323.723269 518.4 
L 323.723269 28.8 
" style="fill:none;stroke:#b0b0b0;stroke-linecap:square;stroke-width:0.8;"/>
     </g>
     <g id="line2d_6">
      <g>
       <use style="stroke:#000000;stroke-width:0.8;" x="323.723269" xlink:href="#m3564a025c0" y="518.4"/>
      </g>
     </g>
     <g id="text_3">
      <!-- 0.002 -->
      <defs>
       <path d="M 19.1875 8.296875 
L 53.609375 8.296875 
L 53.609375 0 
L 7.328125 0 
L 7.328125 8.296875 
Q 12.9375 14.109375 22.625 23.890625 
Q 32.328125 33.6875 34.8125 36.53125 
Q 39.546875 41.84375 41.421875 45.53125 
Q 43.3125 49.21875 43.3125 52.78125 
Q 43.3125 58.59375 39.234375 62.25 
Q 35.15625 65.921875 28.609375 65.921875 
Q 23.96875 65.921875 18.8125 64.3125 
Q 13.671875 62.703125 7.8125 59.421875 
L 7.8125 69.390625 
Q 13.765625 71.78125 18.9375 73 
Q 24.125 74.21875 28.421875 74.21875 
Q 39.75 74.21875 46.484375 68.546875 
Q 53.21875 62.890625 53.21875 53.421875 
Q 53.21875 48.921875 51.53125 44.890625 
Q 49.859375 40.875 45.40625 35.40625 
Q 44.1875 33.984375 37.640625 27.21875 
Q 31.109375 20.453125 19.1875 8.296875 
z
" id="DejaVuSans-32"/>
      </defs>
      <g transform="translate(309.409207 529.498438)scale(0.1 -0.1)">
       <use xlink:href="#DejaVuSans-30"/>
       <use x="63.623047" xlink:href="#DejaVuSans-2e"/>
       <use x="95.410156" xlink:href="#DejaVuSans-30"/>
       <use x="159.033203" xlink:href="#DejaVuSans-30"/>
       <use x="222.65625" xlink:href="#DejaVuSans-32"/>
      </g>
     </g>
    </g>
    <g id="xtick_4">
     <g id="line2d_7">
      <path clip-path="url(#p730a06d1c6)" d="M 399.184904 518.4 
L 399.184904 28.8 
" style="fill:none;stroke:#b0b0b0;stroke-linecap:square;stroke-width:0.8;"/>
     </g>
     <g id="line2d_8">
      <g>
       <use style="stroke:#000000;stroke-width:0.8;" x="399.184904" xlink:href="#m3564a025c0" y="518.4"/>
      </g>
     </g>
     <g id="text_4">
      <!-- 0.003 -->
      <defs>
       <path d="M 40.578125 39.3125 
Q 47.65625 37.796875 51.625 33 
Q 55.609375 28.21875 55.609375 21.1875 
Q 55.609375 10.40625 48.1875 4.484375 
Q 40.765625 -1.421875 27.09375 -1.421875 
Q 22.515625 -1.421875 17.65625 -0.515625 
Q 12.796875 0.390625 7.625 2.203125 
L 7.625 11.71875 
Q 11.71875 9.328125 16.59375 8.109375 
Q 21.484375 6.890625 26.8125 6.890625 
Q 36.078125 6.890625 40.9375 10.546875 
Q 45.796875 14.203125 45.796875 21.1875 
Q 45.796875 27.640625 41.28125 31.265625 
Q 36.765625 34.90625 28.71875 34.90625 
L 20.21875 34.90625 
L 20.21875 43.015625 
L 29.109375 43.015625 
Q 36.375 43.015625 40.234375 45.921875 
Q 44.09375 48.828125 44.09375 54.296875 
Q 44.09375 59.90625 40.109375 62.90625 
Q 36.140625 65.921875 28.71875 65.921875 
Q 24.65625 65.921875 20.015625 65.03125 
Q 15.375 64.15625 9.8125 62.3125 
L 9.8125 71.09375 
Q 15.4375 72.65625 20.34375 73.4375 
Q 25.25 74.21875 29.59375 74.21875 
Q 40.828125 74.21875 47.359375 69.109375 
Q 53.90625 64.015625 53.90625 55.328125 
Q 53.90625 49.265625 50.4375 45.09375 
Q 46.96875 40.921875 40.578125 39.3125 
z
" id="DejaVuSans-33"/>
      </defs>
      <g transform="translate(384.870841 529.498438)scale(0.1 -0.1)">
       <use xlink:href="#DejaVuSans-30"/>
       <use x="63.623047" xlink:href="#DejaVuSans-2e"/>
       <use x="95.410156" xlink:href="#DejaVuSans-30"/>
       <use x="159.033203" xlink:href="#DejaVuSans-30"/>
       <use x="222.65625" xlink:href="#DejaVuSans-33"/>
      </g>
     </g>
    </g>
    <g id="xtick_5">
     <g id="line2d_9">
      <path clip-path="url(#p730a06d1c6)" d="M 474.646539 518.4 
L 474.646539 28.8 
" style="fill:none;stroke:#b0b0b0;stroke-linecap:square;stroke-width:0.8;"/>
     </g>
     <g id="line2d_10">
      <g>
       <use style="stroke:#000000;stroke-width:0.8;" x="474.646539" xlink:href="#m3564a025c0" y="518.4"/>
      </g>
     </g>
     <g id="text_5">
      <!-- 0.004 -->
      <defs>
       <path d="M 37.796875 64.3125 
L 12.890625 25.390625 
L 37.796875 25.390625 
z
M 35.203125 72.90625 
L 47.609375 72.90625 
L 47.609375 25.390625 
L 58.015625 25.390625 
L 58.015625 17.1875 
L 47.609375 17.1875 
L 47.609375 0 
L 37.796875 0 
L 37.796875 17.1875 
L 4.890625 17.1875 
L 4.890625 26.703125 
z
" id="DejaVuSans-34"/>
      </defs>
      <g transform="translate(460.332476 529.498438)scale(0.1 -0.1)">
       <use xlink:href="#DejaVuSans-30"/>
       <use x="63.623047" xlink:href="#DejaVuSans-2e"/>
       <use x="95.410156" xlink:href="#DejaVuSans-30"/>
       <use x="159.033203" xlink:href="#DejaVuSans-30"/>
       <use x="222.65625" xlink:href="#DejaVuSans-34"/>
      </g>
     </g>
    </g>
    <g id="xtick_6">
     <g id="line2d_11">
      <path clip-path="url(#p730a06d1c6)" d="M 550.108173 518.4 
L 550.108173 28.8 
" style="fill:none;stroke:#b0b0b0;stroke-linecap:square;stroke-width:0.8;"/>
     </g>
     <g id="line2d_12">
      <g>
       <use style="stroke:#000000;stroke-width:0.8;" x="550.108173" xlink:href="#m3564a025c0" y="518.4"/>
      </g>
     </g>
     <g id="text_6">
      <!-- 0.005 -->
      <defs>
       <path d="M 10.796875 72.90625 
L 49.515625 72.90625 
L 49.515625 64.59375 
L 19.828125 64.59375 
L 19.828125 46.734375 
Q 21.96875 47.46875 24.109375 47.828125 
Q 26.265625 48.1875 28.421875 48.1875 
Q 40.625 48.1875 47.75 41.5 
Q 54.890625 34.8125 54.890625 23.390625 
Q 54.890625 11.625 47.5625 5.09375 
Q 40.234375 -1.421875 26.90625 -1.421875 
Q 22.3125 -1.421875 17.546875 -0.640625 
Q 12.796875 0.140625 7.71875 1.703125 
L 7.71875 11.625 
Q 12.109375 9.234375 16.796875 8.0625 
Q 21.484375 6.890625 26.703125 6.890625 
Q 35.15625 6.890625 40.078125 11.328125 
Q 45.015625 15.765625 45.015625 23.390625 
Q 45.015625 31 40.078125 35.4375 
Q 35.15625 39.890625 26.703125 39.890625 
Q 22.75 39.890625 18.8125 39.015625 
Q 14.890625 38.140625 10.796875 36.28125 
z
" id="DejaVuSans-35"/>
      </defs>
      <g transform="translate(535.794111 529.498438)scale(0.1 -0.1)">
       <use xlink:href="#DejaVuSans-30"/>
       <use x="63.623047" xlink:href="#DejaVuSans-2e"/>
       <use x="95.410156" xlink:href="#DejaVuSans-30"/>
       <use x="159.033203" xlink:href="#DejaVuSans-30"/>
       <use x="222.65625" xlink:href="#DejaVuSans-35"/>
      </g>
     </g>
    </g>
    <g id="xtick_7">
     <g id="line2d_13">
      <path clip-path="url(#p730a06d1c6)" d="M 625.569808 518.4 
L 625.569808 28.8 
" style="fill:none;stroke:#b0b0b0;stroke-linecap:square;stroke-width:0.8;"/>
     </g>
     <g id="line2d_14">
      <g>
       <use style="stroke:#000000;stroke-width:0.8;" x="625.569808" xlink:href="#m3564a025c0" y="518.4"/>
      </g>
     </g>
     <g id="text_7">
      <!-- 0.006 -->
      <defs>
       <path d="M 33.015625 40.375 
Q 26.375 40.375 22.484375 35.828125 
Q 18.609375 31.296875 18.609375 23.390625 
Q 18.609375 15.53125 22.484375 10.953125 
Q 26.375 6.390625 33.015625 6.390625 
Q 39.65625 6.390625 43.53125 10.953125 
Q 47.40625 15.53125 47.40625 23.390625 
Q 47.40625 31.296875 43.53125 35.828125 
Q 39.65625 40.375 33.015625 40.375 
z
M 52.59375 71.296875 
L 52.59375 62.3125 
Q 48.875 64.0625 45.09375 64.984375 
Q 41.3125 65.921875 37.59375 65.921875 
Q 27.828125 65.921875 22.671875 59.328125 
Q 17.53125 52.734375 16.796875 39.40625 
Q 19.671875 43.65625 24.015625 45.921875 
Q 28.375 48.1875 33.59375 48.1875 
Q 44.578125 48.1875 50.953125 41.515625 
Q 57.328125 34.859375 57.328125 23.390625 
Q 57.328125 12.15625 50.6875 5.359375 
Q 44.046875 -1.421875 33.015625 -1.421875 
Q 20.359375 -1.421875 13.671875 8.265625 
Q 6.984375 17.96875 6.984375 36.375 
Q 6.984375 53.65625 15.1875 63.9375 
Q 23.390625 74.21875 37.203125 74.21875 
Q 40.921875 74.21875 44.703125 73.484375 
Q 48.484375 72.75 52.59375 71.296875 
z
" id="DejaVuSans-36"/>
      </defs>
      <g transform="translate(611.255745 529.498438)scale(0.1 -0.1)">
       <use xlink:href="#DejaVuSans-30"/>
       <use x="63.623047" xlink:href="#DejaVuSans-2e"/>
       <use x="95.410156" xlink:href="#DejaVuSans-30"/>
       <use x="159.033203" xlink:href="#DejaVuSans-30"/>
       <use x="222.65625" xlink:href="#DejaVuSans-36"/>
      </g>
     </g>
    </g>
    <g id="xtick_8">
     <g id="line2d_15">
      <path clip-path="url(#p730a06d1c6)" d="M 701.031442 518.4 
L 701.031442 28.8 
" style="fill:none;stroke:#b0b0b0;stroke-linecap:square;stroke-width:0.8;"/>
     </g>
     <g id="line2d_16">
      <g>
       <use style="stroke:#000000;stroke-width:0.8;" x="701.031442" xlink:href="#m3564a025c0" y="518.4"/>
      </g>
     </g>
     <g id="text_8">
      <!-- 0.007 -->
      <defs>
       <path d="M 8.203125 72.90625 
L 55.078125 72.90625 
L 55.078125 68.703125 
L 28.609375 0 
L 18.3125 0 
L 43.21875 64.59375 
L 8.203125 64.59375 
z
" id="DejaVuSans-37"/>
      </defs>
      <g transform="translate(686.71738 529.498438)scale(0.1 -0.1)">
       <use xlink:href="#DejaVuSans-30"/>
       <use x="63.623047" xlink:href="#DejaVuSans-2e"/>
       <use x="95.410156" xlink:href="#DejaVuSans-30"/>
       <use x="159.033203" xlink:href="#DejaVuSans-30"/>
       <use x="222.65625" xlink:href="#DejaVuSans-37"/>
      </g>
     </g>
    </g>
    <g id="xtick_9">
     <g id="line2d_17">
      <path clip-path="url(#p730a06d1c6)" d="M 776.493077 518.4 
L 776.493077 28.8 
" style="fill:none;stroke:#b0b0b0;stroke-linecap:square;stroke-width:0.8;"/>
     </g>
     <g id="line2d_18">
      <g>
       <use style="stroke:#000000;stroke-width:0.8;" x="776.493077" xlink:href="#m3564a025c0" y="518.4"/>
      </g>
     </g>
     <g id="text_9">
      <!-- 0.008 -->
      <defs>
       <path d="M 31.78125 34.625 
Q 24.75 34.625 20.71875 30.859375 
Q 16.703125 27.09375 16.703125 20.515625 
Q 16.703125 13.921875 20.71875 10.15625 
Q 24.75 6.390625 31.78125 6.390625 
Q 38.8125 6.390625 42.859375 10.171875 
Q 46.921875 13.96875 46.921875 20.515625 
Q 46.921875 27.09375 42.890625 30.859375 
Q 38.875 34.625 31.78125 34.625 
z
M 21.921875 38.8125 
Q 15.578125 40.375 12.03125 44.71875 
Q 8.5 49.078125 8.5 55.328125 
Q 8.5 64.0625 14.71875 69.140625 
Q 20.953125 74.21875 31.78125 74.21875 
Q 42.671875 74.21875 48.875 69.140625 
Q 55.078125 64.0625 55.078125 55.328125 
Q 55.078125 49.078125 51.53125 44.71875 
Q 48 40.375 41.703125 38.8125 
Q 48.828125 37.15625 52.796875 32.3125 
Q 56.78125 27.484375 56.78125 20.515625 
Q 56.78125 9.90625 50.3125 4.234375 
Q 43.84375 -1.421875 31.78125 -1.421875 
Q 19.734375 -1.421875 13.25 4.234375 
Q 6.78125 9.90625 6.78125 20.515625 
Q 6.78125 27.484375 10.78125 32.3125 
Q 14.796875 37.15625 21.921875 38.8125 
z
M 18.3125 54.390625 
Q 18.3125 48.734375 21.84375 45.5625 
Q 25.390625 42.390625 31.78125 42.390625 
Q 38.140625 42.390625 41.71875 45.5625 
Q 45.3125 48.734375 45.3125 54.390625 
Q 45.3125 60.0625 41.71875 63.234375 
Q 38.140625 66.40625 31.78125 66.40625 
Q 25.390625 66.40625 21.84375 63.234375 
Q 18.3125 60.0625 18.3125 54.390625 
z
" id="DejaVuSans-38"/>
      </defs>
      <g transform="translate(762.179015 529.498438)scale(0.1 -0.1)">
       <use xlink:href="#DejaVuSans-30"/>
       <use x="63.623047" xlink:href="#DejaVuSans-2e"/>
       <use x="95.410156" xlink:href="#DejaVuSans-30"/>
       <use x="159.033203" xlink:href="#DejaVuSans-30"/>
       <use x="222.65625" xlink:href="#DejaVuSans-38"/>
      </g>
     </g>
    </g>
    <g id="text_10">
     <!-- Weight -->
     <defs>
      <path d="M 3.328125 72.90625 
L 13.28125 72.90625 
L 28.609375 11.28125 
L 43.890625 72.90625 
L 54.984375 72.90625 
L 70.3125 11.28125 
L 85.59375 72.90625 
L 95.609375 72.90625 
L 77.296875 0 
L 64.890625 0 
L 49.515625 63.28125 
L 33.984375 0 
L 21.578125 0 
z
" id="DejaVuSans-57"/>
      <path d="M 56.203125 29.59375 
L 56.203125 25.203125 
L 14.890625 25.203125 
Q 15.484375 15.921875 20.484375 11.0625 
Q 25.484375 6.203125 34.421875 6.203125 
Q 39.59375 6.203125 44.453125 7.46875 
Q 49.3125 8.734375 54.109375 11.28125 
L 54.109375 2.78125 
Q 49.265625 0.734375 44.1875 -0.34375 
Q 39.109375 -1.421875 33.890625 -1.421875 
Q 20.796875 -1.421875 13.15625 6.1875 
Q 5.515625 13.8125 5.515625 26.8125 
Q 5.515625 40.234375 12.765625 48.109375 
Q 20.015625 56 32.328125 56 
Q 43.359375 56 49.78125 48.890625 
Q 56.203125 41.796875 56.203125 29.59375 
z
M 47.21875 32.234375 
Q 47.125 39.59375 43.09375 43.984375 
Q 39.0625 48.390625 32.421875 48.390625 
Q 24.90625 48.390625 20.390625 44.140625 
Q 15.875 39.890625 15.1875 32.171875 
z
" id="DejaVuSans-65"/>
      <path d="M 9.421875 54.6875 
L 18.40625 54.6875 
L 18.40625 0 
L 9.421875 0 
z
M 9.421875 75.984375 
L 18.40625 75.984375 
L 18.40625 64.59375 
L 9.421875 64.59375 
z
" id="DejaVuSans-69"/>
      <path d="M 45.40625 27.984375 
Q 45.40625 37.75 41.375 43.109375 
Q 37.359375 48.484375 30.078125 48.484375 
Q 22.859375 48.484375 18.828125 43.109375 
Q 14.796875 37.75 14.796875 27.984375 
Q 14.796875 18.265625 18.828125 12.890625 
Q 22.859375 7.515625 30.078125 7.515625 
Q 37.359375 7.515625 41.375 12.890625 
Q 45.40625 18.265625 45.40625 27.984375 
z
M 54.390625 6.78125 
Q 54.390625 -7.171875 48.1875 -13.984375 
Q 42 -20.796875 29.203125 -20.796875 
Q 24.46875 -20.796875 20.265625 -20.09375 
Q 16.0625 -19.390625 12.109375 -17.921875 
L 12.109375 -9.1875 
Q 16.0625 -11.328125 19.921875 -12.34375 
Q 23.78125 -13.375 27.78125 -13.375 
Q 36.625 -13.375 41.015625 -8.765625 
Q 45.40625 -4.15625 45.40625 5.171875 
L 45.40625 9.625 
Q 42.625 4.78125 38.28125 2.390625 
Q 33.9375 0 27.875 0 
Q 17.828125 0 11.671875 7.65625 
Q 5.515625 15.328125 5.515625 27.984375 
Q 5.515625 40.671875 11.671875 48.328125 
Q 17.828125 56 27.875 56 
Q 33.9375 56 38.28125 53.609375 
Q 42.625 51.21875 45.40625 46.390625 
L 45.40625 54.6875 
L 54.390625 54.6875 
z
" id="DejaVuSans-67"/>
      <path d="M 54.890625 33.015625 
L 54.890625 0 
L 45.90625 0 
L 45.90625 32.71875 
Q 45.90625 40.484375 42.875 44.328125 
Q 39.84375 48.1875 33.796875 48.1875 
Q 26.515625 48.1875 22.3125 43.546875 
Q 18.109375 38.921875 18.109375 30.90625 
L 18.109375 0 
L 9.078125 0 
L 9.078125 75.984375 
L 18.109375 75.984375 
L 18.109375 46.1875 
Q 21.34375 51.125 25.703125 53.5625 
Q 30.078125 56 35.796875 56 
Q 45.21875 56 50.046875 50.171875 
Q 54.890625 44.34375 54.890625 33.015625 
z
" id="DejaVuSans-68"/>
      <path d="M 18.3125 70.21875 
L 18.3125 54.6875 
L 36.8125 54.6875 
L 36.8125 47.703125 
L 18.3125 47.703125 
L 18.3125 18.015625 
Q 18.3125 11.328125 20.140625 9.421875 
Q 21.96875 7.515625 27.59375 7.515625 
L 36.8125 7.515625 
L 36.8125 0 
L 27.59375 0 
Q 17.1875 0 13.234375 3.875 
Q 9.28125 7.765625 9.28125 18.015625 
L 9.28125 47.703125 
L 2.6875 47.703125 
L 2.6875 54.6875 
L 9.28125 54.6875 
L 9.28125 70.21875 
z
" id="DejaVuSans-74"/>
     </defs>
     <g transform="translate(479.091406 543.176563)scale(0.1 -0.1)">
      <use xlink:href="#DejaVuSans-57"/>
      <use x="98.798828" xlink:href="#DejaVuSans-65"/>
      <use x="160.322266" xlink:href="#DejaVuSans-69"/>
      <use x="188.105469" xlink:href="#DejaVuSans-67"/>
      <use x="251.582031" xlink:href="#DejaVuSans-68"/>
      <use x="314.960938" xlink:href="#DejaVuSans-74"/>
     </g>
    </g>
   </g>
   <g id="matplotlib.axis_2">
    <g id="ytick_1">
     <g id="line2d_19">
      <defs>
       <path d="M 0 0 
L 3.5 0 
" id="m761e92b576" style="stroke:#000000;stroke-width:0.8;"/>
      </defs>
      <g>
       <use style="stroke:#000000;stroke-width:0.8;" x="172.8" xlink:href="#m761e92b576" y="477.978479"/>
      </g>
     </g>
     <g id="text_11">
      <!-- 2013.04.09_18_公开遴选.txt -->
      <defs>
       <path d="M 41.65625 55.8125 
Q 41.65625 61.921875 37.796875 65.40625 
Q 33.9375 68.890625 27.296875 68.890625 
Q 22.609375 68.890625 17.8125 66.5 
Q 13.03125 64.109375 8.890625 59.671875 
L 8.890625 68.953125 
Q 12.59375 72.796875 17.296875 74.84375 
Q 22.015625 76.90625 28.375 76.90625 
Q 38.625 76.90625 44.875 71.40625 
Q 51.125 65.921875 51.125 56.546875 
Q 51.125 48.1875 47.28125 42.078125 
Q 43.453125 35.984375 34.1875 29.59375 
Q 24.703125 23.046875 21.5 20.21875 
Q 18.3125 17.390625 17.03125 14.796875 
Q 15.765625 12.203125 15.765625 8.5 
L 53.375 8.5 
L 53.375 0 
L 5.8125 0 
L 5.8125 3.765625 
Q 5.8125 10.296875 7.59375 14.859375 
Q 9.375 19.4375 13.46875 23.75 
Q 17.578125 28.078125 26.265625 34.125 
Q 35.15625 40.375 38.40625 45.09375 
Q 41.65625 49.8125 41.65625 55.8125 
z
" id="MicrosoftYaHei-32"/>
       <path d="M 4.4375 36.328125 
Q 4.4375 56.34375 11.078125 66.625 
Q 17.71875 76.90625 30.328125 76.90625 
Q 54.34375 76.90625 54.34375 38.140625 
Q 54.34375 19 47.578125 8.859375 
Q 40.828125 -1.265625 28.609375 -1.265625 
Q 17.09375 -1.265625 10.765625 8.34375 
Q 4.4375 17.96875 4.4375 36.328125 
z
M 14.203125 36.765625 
Q 14.203125 6.640625 29.5 6.640625 
Q 44.53125 6.640625 44.53125 37.25 
Q 44.53125 68.953125 29.78125 68.953125 
Q 14.203125 68.953125 14.203125 36.765625 
z
" id="MicrosoftYaHei-30"/>
       <path d="M 27.828125 0 
L 27.828125 64.703125 
Q 25.59375 62.453125 20.234375 59.671875 
Q 14.890625 56.890625 10.359375 55.765625 
L 10.359375 65.140625 
Q 16.359375 66.796875 23.1875 70.4375 
Q 30.03125 74.078125 33.6875 77.296875 
L 37.3125 77.296875 
L 37.3125 0 
z
" id="MicrosoftYaHei-31"/>
       <path d="M 6.984375 12.640625 
Q 14.75 6.640625 24.515625 6.640625 
Q 32.328125 6.640625 36.890625 10.46875 
Q 41.453125 14.3125 41.453125 20.75 
Q 41.453125 35.109375 20.90625 35.109375 
L 14.59375 35.109375 
L 14.59375 43.015625 
L 20.609375 43.015625 
Q 38.8125 43.015625 38.8125 56.5 
Q 38.8125 68.953125 24.90625 68.953125 
Q 16.9375 68.953125 9.90625 63.578125 
L 9.90625 72.609375 
Q 17.328125 76.90625 27.25 76.90625 
Q 36.921875 76.90625 42.78125 71.84375 
Q 48.640625 66.796875 48.640625 58.734375 
Q 48.640625 43.890625 33.5 39.65625 
L 33.5 39.453125 
Q 41.703125 38.578125 46.453125 33.671875 
Q 51.21875 28.765625 51.21875 21.4375 
Q 51.21875 11.234375 43.875 4.984375 
Q 36.53125 -1.265625 24.3125 -1.265625 
Q 13.578125 -1.265625 6.984375 2.734375 
z
" id="MicrosoftYaHei-33"/>
       <path d="M 5.8125 5.03125 
Q 5.8125 7.671875 7.609375 9.46875 
Q 9.421875 11.28125 12.109375 11.28125 
Q 14.84375 11.28125 16.640625 9.453125 
Q 18.453125 7.625 18.453125 5.03125 
Q 18.453125 2.484375 16.640625 0.65625 
Q 14.84375 -1.171875 12.0625 -1.171875 
Q 9.375 -1.171875 7.59375 0.65625 
Q 5.8125 2.484375 5.8125 5.03125 
z
" id="MicrosoftYaHei-2e"/>
       <path d="M 45.40625 75.640625 
L 45.40625 25.6875 
L 56.734375 25.6875 
L 56.734375 17.78125 
L 45.40625 17.78125 
L 45.40625 0 
L 36.140625 0 
L 36.140625 17.78125 
L 0.828125 17.78125 
L 0.828125 25.25 
Q 10.25 35.84375 19.765625 49.65625 
Q 29.296875 63.484375 35.5 75.640625 
z
M 11.578125 25.6875 
L 36.140625 25.6875 
L 36.140625 61.71875 
Q 31.0625 52.59375 25.25 44.015625 
Q 19.4375 35.453125 11.578125 25.6875 
z
" id="MicrosoftYaHei-34"/>
       <path d="M 9.03125 10.25 
Q 15.28125 6.640625 22.515625 6.640625 
Q 32.671875 6.640625 38.25 14.640625 
Q 43.84375 22.65625 43.84375 37.40625 
Q 43.75 37.3125 43.65625 37.40625 
Q 38.671875 27.9375 26.90625 27.9375 
Q 17.390625 27.9375 11.140625 34.46875 
Q 4.890625 41.015625 4.890625 51.46875 
Q 4.890625 62.59375 11.71875 69.75 
Q 18.5625 76.90625 29.4375 76.90625 
Q 40.71875 76.90625 47.0625 68.046875 
Q 53.421875 59.1875 53.421875 42.234375 
Q 53.421875 21.296875 45.21875 10.015625 
Q 37.015625 -1.265625 22.515625 -1.265625 
Q 14.546875 -1.265625 9.03125 1.3125 
z
M 14.546875 52.6875 
Q 14.546875 45.0625 18.453125 40.59375 
Q 22.359375 36.140625 29.25 36.140625 
Q 35.203125 36.140625 39.25 40.203125 
Q 43.3125 44.28125 43.3125 50.09375 
Q 43.3125 58.25 39.28125 63.59375 
Q 35.25 68.953125 28.65625 68.953125 
Q 22.5625 68.953125 18.546875 64.3125 
Q 14.546875 59.671875 14.546875 52.6875 
z
" id="MicrosoftYaHei-39"/>
       <path d="M 44.828125 -25.53125 
L 0 -25.53125 
L 0 -19.234375 
L 44.828125 -19.234375 
z
" id="MicrosoftYaHei-5f"/>
       <path d="M 4.78125 21.09375 
Q 4.78125 27.640625 8.6875 33.15625 
Q 12.59375 38.671875 18.75 41.015625 
Q 13.8125 43.796875 10.9375 48.140625 
Q 8.0625 52.484375 8.0625 57.5625 
Q 8.0625 62.9375 10.8125 67.375 
Q 13.578125 71.828125 18.484375 74.359375 
Q 23.390625 76.90625 29.296875 76.90625 
Q 35.25 76.90625 40.1875 74.390625 
Q 45.125 71.875 47.859375 67.421875 
Q 50.59375 62.984375 50.59375 57.5625 
Q 50.59375 52.59375 47.78125 48.21875 
Q 44.96875 43.84375 39.984375 41.015625 
Q 46.140625 38.625 50 33.109375 
Q 53.859375 27.59375 53.859375 21.09375 
Q 53.859375 14.65625 50.78125 9.546875 
Q 47.703125 4.4375 42.03125 1.609375 
Q 36.375 -1.21875 29.296875 -1.21875 
Q 22.265625 -1.21875 16.640625 1.609375 
Q 11.03125 4.4375 7.90625 9.5625 
Q 4.78125 14.703125 4.78125 21.09375 
z
M 14.15625 21.53125 
Q 14.15625 14.796875 18.3125 10.734375 
Q 22.46875 6.6875 29.34375 6.6875 
Q 36.078125 6.6875 40.34375 10.8125 
Q 44.625 14.9375 44.625 21.53125 
Q 44.625 27.78125 40.296875 32.046875 
Q 35.984375 36.328125 29.34375 36.328125 
Q 22.75 36.328125 18.453125 32.15625 
Q 14.15625 27.984375 14.15625 21.53125 
z
M 16.890625 56.78125 
Q 16.890625 51.703125 20.5 48.0625 
Q 24.125 44.4375 29.34375 44.4375 
Q 34.46875 44.4375 38.203125 48.09375 
Q 41.9375 51.765625 41.9375 56.78125 
Q 41.9375 61.921875 38.34375 65.484375 
Q 34.765625 69.046875 29.34375 69.046875 
Q 23.96875 69.046875 20.421875 65.546875 
Q 16.890625 62.0625 16.890625 56.78125 
z
" id="MicrosoftYaHei-38"/>
       <path d="M 64.75 24.859375 
Q 78.8125 6.59375 88.484375 -8.34375 
L 81.0625 -13.234375 
Q 78.328125 -8.734375 75.25 -3.90625 
Q 43.015625 -5.46875 22.859375 -7.078125 
Q 19.140625 -7.46875 13.875 -8.734375 
L 9.578125 -0.4375 
Q 13.96875 1.3125 17.671875 4.9375 
Q 29.109375 18.109375 42.484375 43.890625 
L 50.875 40.09375 
Q 38.765625 19.28125 25 1.21875 
Q 45.171875 1.859375 70.65625 3.03125 
Q 65.09375 11.46875 58.40625 20.84375 
z
M 56.34375 77.390625 
L 63.578125 80.21875 
Q 73.046875 54.734375 98.828125 39.796875 
Q 96.1875 37.0625 92.78125 32.171875 
Q 65.828125 50.734375 56.34375 77.390625 
z
M 1.171875 36.96875 
Q 22.953125 54.734375 33.6875 78.859375 
L 41.40625 75.640625 
Q 28.21875 48.1875 7.421875 30.71875 
Q 4.890625 33.9375 1.171875 36.96875 
z
" id="MicrosoftYaHei-516c"/>
       <path d="M 1.953125 39.890625 
L 27.4375 39.890625 
L 27.4375 68.3125 
L 6.25 68.3125 
L 6.25 76.03125 
L 93.84375 76.03125 
L 93.84375 68.3125 
L 73.921875 68.3125 
L 73.921875 39.890625 
L 98.046875 39.890625 
L 98.046875 32.171875 
L 73.921875 32.171875 
L 73.921875 -12.359375 
L 65.921875 -12.359375 
L 65.921875 32.171875 
L 35.40625 32.171875 
Q 35.0625 14.3125 30.28125 5.609375 
Q 25.484375 -3.953125 8.296875 -13.625 
Q 5.765625 -10.109375 2.734375 -6.78125 
Q 17.671875 0.828125 22.65625 9.125 
Q 27.09375 15.828125 27.390625 32.171875 
L 1.953125 32.171875 
z
M 35.453125 39.890625 
L 65.921875 39.890625 
L 65.921875 68.3125 
L 35.453125 68.3125 
z
" id="MicrosoftYaHei-5f00"/>
       <path d="M 40.328125 -2.78125 
Q 69.625 -3.171875 98.640625 -2.09375 
Q 96.6875 -6 95.515625 -9.90625 
Q 64.0625 -10.40625 39.65625 -9.90625 
Q 24.21875 -9.71875 16.796875 1.421875 
Q 13.375 -1.21875 5.46875 -11.375 
L 1.265625 -3.078125 
Q 7.328125 2.59375 13.578125 7.953125 
L 13.578125 41.9375 
L 2.046875 41.9375 
L 2.046875 48.6875 
L 20.609375 48.6875 
L 20.609375 6.890625 
Q 27.4375 -2.59375 40.328125 -2.78125 
z
M 28.421875 65.28125 
L 59.078125 65.28125 
L 59.078125 81.984375 
L 65.71875 81.984375 
L 65.71875 65.28125 
L 96.484375 65.28125 
L 96.484375 60.109375 
L 65.71875 60.109375 
L 65.71875 55.03125 
L 67.28125 58.25 
Q 82.8125 53.46875 96.875 48.390625 
L 94.046875 42.53125 
Q 79.6875 48.296875 65.71875 52.296875 
L 65.71875 41.75 
L 59.078125 41.75 
L 59.078125 58.640625 
Q 48.640625 48.1875 30.171875 40.1875 
Q 27.34375 44.484375 25.484375 46.140625 
Q 42.578125 52.203125 53.03125 60.109375 
L 28.421875 60.109375 
z
M 61.625 37.15625 
L 77.640625 37.15625 
L 77.640625 43.5 
L 84.078125 43.5 
L 84.078125 37.15625 
L 95.21875 37.15625 
L 95.21875 31.5 
L 84.078125 31.5 
L 84.078125 19.1875 
L 96.484375 19.1875 
L 96.484375 13.53125 
L 84.078125 13.53125 
L 84.078125 0.921875 
L 77.640625 0.921875 
L 77.640625 13.53125 
L 58.984375 13.53125 
L 63.484375 28.265625 
L 69.921875 28.265625 
L 67.390625 19.1875 
L 77.640625 19.1875 
L 77.640625 31.5 
L 61.625 31.5 
z
M 46.1875 42.625 
Q 45.125 40.375 43.953125 38.234375 
L 59.28125 38.234375 
L 59.28125 33.25 
Q 53.8125 11.578125 30.46875 1.03125 
Q 28.328125 4.046875 25.78125 6.296875 
Q 35.75 10.5 42.1875 16.15625 
Q 38.765625 18.703125 34.96875 21.140625 
L 38.875 25.921875 
Q 43.453125 23.09375 46.578125 20.75 
Q 50.875 26.125 52.640625 32.5625 
L 40.53125 32.5625 
Q 34.96875 24.5625 28.8125 19.28125 
Q 27.046875 21.734375 24.21875 24.265625 
Q 34.96875 32.765625 40.046875 44.390625 
z
M 11.421875 80.71875 
Q 17.09375 71.625 21.96875 62.453125 
Q 18.953125 60.984375 15.4375 58.9375 
Q 10.75 69.1875 5.5625 77.6875 
z
M 90.234375 77.484375 
Q 84.1875 71.734375 77.34375 66.453125 
L 72.171875 70.359375 
Q 78.8125 75.53125 84.28125 81.109375 
z
M 35.359375 76.703125 
L 39.9375 80.609375 
Q 48.25 74.75 52.640625 70.65625 
L 47.359375 66.453125 
Q 42.671875 71.046875 35.359375 76.703125 
z
" id="MicrosoftYaHei-9074"/>
       <path d="M 27.4375 43.015625 
L 59.765625 43.015625 
L 59.765625 59.328125 
L 43.3125 59.328125 
Q 40.375 51.90625 37.203125 46.046875 
Q 34.671875 47.703125 30.375 49.5625 
Q 37.984375 62.9375 41.703125 79.25 
L 49.3125 77.59375 
Q 47.609375 71.484375 45.75 66.0625 
L 59.765625 66.0625 
L 59.765625 83.0625 
L 67.390625 83.0625 
L 67.390625 66.0625 
L 92.875 66.0625 
L 92.875 59.328125 
L 67.390625 59.328125 
L 67.390625 43.015625 
L 97.5625 43.015625 
L 97.5625 36.28125 
L 74.515625 36.28125 
L 74.515625 15.375 
Q 74.515625 10.203125 78.8125 10.203125 
L 83.5 10.203125 
Q 87.984375 10.203125 88.671875 14.890625 
Q 89.265625 18.703125 89.75 26.421875 
Q 92.78125 25.046875 97.171875 23.578125 
Q 96.390625 16.84375 95.515625 12.25 
Q 93.953125 3.5625 84.375 3.5625 
L 77.15625 3.5625 
Q 67 3.5625 67 14.59375 
L 67 36.28125 
L 53.859375 36.28125 
Q 53.8125 31.84375 53.609375 28.375 
Q 53.03125 10.109375 33.109375 1.3125 
Q 31.15625 4.15625 28.21875 7.859375 
Q 45.40625 14.984375 46.09375 28.375 
Q 46.296875 31.296875 46.4375 36.28125 
L 27.4375 36.28125 
z
M 42.09375 -3.078125 
L 62.5 -3.265625 
L 98.4375 -2.59375 
Q 97.359375 -5.8125 95.703125 -10.296875 
L 61.671875 -10.6875 
L 41.21875 -10.40625 
Q 23.640625 -9.8125 16.890625 1.421875 
Q 12.890625 -2.296875 5.171875 -11.671875 
L 1.171875 -3.5625 
Q 9.8125 4.78125 13.671875 8.40625 
L 13.671875 41.265625 
L 2.046875 41.265625 
L 2.046875 48.484375 
L 21.1875 48.484375 
L 21.1875 6.734375 
Q 27.203125 -2.875 42.09375 -3.078125 
z
M 13.375 81.296875 
Q 18.359375 75.25 27.046875 62.84375 
L 20.125 57.953125 
Q 12.203125 70.359375 7.125 77.09375 
z
" id="MicrosoftYaHei-9009"/>
       <path d="M 34.46875 0.53125 
Q 31.34375 -1.171875 26.03125 -1.171875 
Q 11.53125 -1.171875 11.53125 14.890625 
L 11.53125 46.09375 
L 2.25 46.09375 
L 2.25 54 
L 11.53125 54 
L 11.53125 67 
L 21.046875 70.015625 
L 21.046875 54 
L 34.46875 54 
L 34.46875 46.09375 
L 21.046875 46.09375 
L 21.046875 16.609375 
Q 21.046875 11.28125 22.84375 8.984375 
Q 24.65625 6.6875 28.859375 6.6875 
Q 32.078125 6.6875 34.46875 8.5 
z
" id="MicrosoftYaHei-74"/>
       <path d="M 49.421875 54 
L 31.34375 26.8125 
L 49.171875 0 
L 38.03125 0 
L 27.734375 17.1875 
Q 26.90625 18.5625 25.390625 21.390625 
L 25.203125 21.390625 
Q 25.140625 21.09375 22.75 17.1875 
L 12.25 0 
L 1.265625 0 
L 19.625 26.515625 
L 2.09375 54 
L 13.234375 54 
L 23.34375 35.9375 
Q 24.265625 34.28125 25.59375 31.640625 
L 25.78125 31.640625 
L 38.921875 54 
z
" id="MicrosoftYaHei-78"/>
      </defs>
      <g transform="translate(41.95 482.131604)scale(0.1 -0.1)">
       <use xlink:href="#MicrosoftYaHei-32"/>
       <use x="58.642578" xlink:href="#MicrosoftYaHei-30"/>
       <use x="117.285156" xlink:href="#MicrosoftYaHei-31"/>
       <use x="175.927734" xlink:href="#MicrosoftYaHei-33"/>
       <use x="234.570312" xlink:href="#MicrosoftYaHei-2e"/>
       <use x="258.642578" xlink:href="#MicrosoftYaHei-30"/>
       <use x="317.285156" xlink:href="#MicrosoftYaHei-34"/>
       <use x="375.927734" xlink:href="#MicrosoftYaHei-2e"/>
       <use x="400" xlink:href="#MicrosoftYaHei-30"/>
       <use x="458.642578" xlink:href="#MicrosoftYaHei-39"/>
       <use x="517.285156" xlink:href="#MicrosoftYaHei-5f"/>
       <use x="562.109375" xlink:href="#MicrosoftYaHei-31"/>
       <use x="620.751953" xlink:href="#MicrosoftYaHei-38"/>
       <use x="679.394531" xlink:href="#MicrosoftYaHei-5f"/>
       <use x="724.21875" xlink:href="#MicrosoftYaHei-516c"/>
       <use x="824.21875" xlink:href="#MicrosoftYaHei-5f00"/>
       <use x="924.21875" xlink:href="#MicrosoftYaHei-9074"/>
       <use x="1024.21875" xlink:href="#MicrosoftYaHei-9009"/>
       <use x="1124.21875" xlink:href="#MicrosoftYaHei-2e"/>
       <use x="1148.291016" xlink:href="#MicrosoftYaHei-74"/>
       <use x="1185.5625" xlink:href="#MicrosoftYaHei-78"/>
       <use x="1236.246094" xlink:href="#MicrosoftYaHei-74"/>
      </g>
     </g>
    </g>
    <g id="ytick_2">
     <g id="line2d_20">
      <g>
       <use style="stroke:#000000;stroke-width:0.8;" x="172.8" xlink:href="#m761e92b576" y="432.561039"/>
      </g>
     </g>
     <g id="text_12">
      <!-- 2016.08.30_2_进一步从.txt -->
      <defs>
       <path d="M 49.703125 65.921875 
Q 43.796875 68.953125 37.359375 68.953125 
Q 27.546875 68.953125 21.578125 60.40625 
Q 15.625 51.859375 15.53125 37.0625 
L 15.765625 37.0625 
Q 21.140625 47.46875 32.90625 47.46875 
Q 42.71875 47.46875 48.578125 41.0625 
Q 54.4375 34.671875 54.4375 24.078125 
Q 54.4375 12.984375 47.671875 5.859375 
Q 40.921875 -1.265625 30.421875 -1.265625 
Q 18.890625 -1.265625 12.328125 7.734375 
Q 5.765625 16.75 5.765625 33.296875 
Q 5.765625 53.328125 14.375 65.109375 
Q 23 76.90625 37.0625 76.90625 
Q 45.125 76.90625 49.703125 74.703125 
z
M 16.109375 24.75 
Q 16.109375 17.28125 20.09375 11.953125 
Q 24.078125 6.640625 30.671875 6.640625 
Q 36.921875 6.640625 40.828125 11.234375 
Q 44.734375 15.828125 44.734375 23.046875 
Q 44.734375 30.859375 41.046875 35.203125 
Q 37.359375 39.546875 30.5625 39.546875 
Q 24.125 39.546875 20.109375 35.15625 
Q 16.109375 30.765625 16.109375 24.75 
z
" id="MicrosoftYaHei-36"/>
       <path d="M 27.4375 37.75 
L 44.1875 37.75 
Q 44.34375 45.359375 44.34375 58.453125 
L 32.03125 58.453125 
L 32.03125 65.484375 
L 44.34375 65.484375 
L 44.34375 82.671875 
L 52.15625 82.671875 
L 52.15625 65.484375 
L 71.484375 65.484375 
L 71.484375 82.671875 
L 79.296875 82.671875 
L 79.296875 65.484375 
L 93.75 65.484375 
L 93.75 58.453125 
L 79.296875 58.453125 
L 79.296875 37.75 
L 97.5625 37.75 
L 97.5625 30.71875 
L 79.296875 30.71875 
L 79.296875 1.03125 
L 71.484375 1.03125 
L 71.484375 30.71875 
L 51.421875 30.71875 
Q 48.53125 10.796875 34.578125 1.03125 
Q 32.03125 3.859375 28.609375 6.984375 
Q 40.578125 14.546875 43.40625 30.71875 
L 27.4375 30.71875 
z
M 40.71875 -2.984375 
L 63.875 -3.46875 
L 98.4375 -2.59375 
Q 97.359375 -5.8125 95.703125 -10.296875 
L 63.28125 -10.40625 
L 39.75 -9.90625 
Q 23.640625 -9.625 16.890625 1.421875 
Q 12.890625 -2.296875 5.171875 -11.671875 
L 1.171875 -3.5625 
Q 9.8125 4.78125 13.671875 8.40625 
L 13.671875 41.265625 
L 2.046875 41.265625 
L 2.046875 48.484375 
L 21.1875 48.484375 
L 21.1875 6.84375 
Q 27.25 -2.734375 40.71875 -2.984375 
z
M 52.046875 37.75 
L 71.484375 37.75 
L 71.484375 58.453125 
L 52.15625 58.453125 
Q 52.15625 41.65625 52.046875 37.75 
z
M 12.703125 81.5 
Q 20.125 72.21875 26.375 63.03125 
Q 22.265625 60.40625 19.140625 58.15625 
Q 13.765625 67.53125 6.453125 77.296875 
z
" id="MicrosoftYaHei-8fdb"/>
       <path d="M 1.5625 42.234375 
L 98.640625 42.234375 
L 98.640625 33.640625 
L 1.5625 33.640625 
z
" id="MicrosoftYaHei-4e00"/>
       <path d="M 2.9375 46.828125 
L 19.53125 46.828125 
L 19.53125 74.359375 
L 27.34375 74.359375 
L 27.34375 46.828125 
L 48.25 46.828125 
L 48.25 83.25 
L 56.0625 83.25 
L 56.0625 69 
L 89.75 69 
L 89.75 61.96875 
L 56.0625 61.96875 
L 56.0625 46.828125 
L 97.265625 46.828125 
L 97.265625 39.59375 
L 2.9375 39.59375 
z
M 2.9375 -6.890625 
Q 58.5 -0.140625 84.375 29.25 
L 90.53125 23.1875 
Q 62.703125 -7.078125 5.859375 -13.921875 
Q 4.78125 -10.796875 2.9375 -6.890625 
z
M 28.03125 33.546875 
L 34.28125 28.171875 
Q 21.390625 14.796875 9.578125 5.03125 
Q 7.328125 7.765625 4.296875 10.796875 
Q 16.3125 20.171875 28.03125 33.546875 
z
M 47.46875 37.15625 
L 55.28125 37.15625 
L 55.28125 8.25 
L 47.46875 8.25 
z
" id="MicrosoftYaHei-6b65"/>
       <path d="M 59.859375 82.078125 
L 67.484375 82.078125 
Q 67.484375 70.84375 67.140625 56.78125 
Q 73.484375 12.25 98.828125 -3.5625 
Q 95.3125 -7.46875 92.484375 -11.078125 
Q 72.078125 3.8125 64.5 36.328125 
Q 59.1875 6.6875 34.078125 -12.84375 
Q 30.859375 -8.9375 28.421875 -6.59375 
Q 52.9375 11.671875 57.90625 41.359375 
Q 59.859375 55.125 59.859375 82.078125 
z
M 21.09375 82.078125 
L 28.8125 82.078125 
Q 28.8125 61.8125 27.875 47.515625 
Q 40.625 33.796875 50 22.703125 
L 44.046875 16.75 
Q 37.015625 25.984375 27.046875 37.546875 
Q 24.21875 10.109375 6.546875 -11.765625 
Q 4.296875 -9.03125 0.875 -5.515625 
Q 14.265625 10.109375 18.453125 32.171875 
Q 21 45.453125 21.09375 82.078125 
z
" id="MicrosoftYaHei-4ece"/>
      </defs>
      <g transform="translate(47.814063 436.723539)scale(0.1 -0.1)">
       <use xlink:href="#MicrosoftYaHei-32"/>
       <use x="58.642578" xlink:href="#MicrosoftYaHei-30"/>
       <use x="117.285156" xlink:href="#MicrosoftYaHei-31"/>
       <use x="175.927734" xlink:href="#MicrosoftYaHei-36"/>
       <use x="234.570312" xlink:href="#MicrosoftYaHei-2e"/>
       <use x="258.642578" xlink:href="#MicrosoftYaHei-30"/>
       <use x="317.285156" xlink:href="#MicrosoftYaHei-38"/>
       <use x="375.927734" xlink:href="#MicrosoftYaHei-2e"/>
       <use x="400" xlink:href="#MicrosoftYaHei-33"/>
       <use x="458.642578" xlink:href="#MicrosoftYaHei-30"/>
       <use x="517.285156" xlink:href="#MicrosoftYaHei-5f"/>
       <use x="562.109375" xlink:href="#MicrosoftYaHei-32"/>
       <use x="620.751953" xlink:href="#MicrosoftYaHei-5f"/>
       <use x="665.576172" xlink:href="#MicrosoftYaHei-8fdb"/>
       <use x="765.576172" xlink:href="#MicrosoftYaHei-4e00"/>
       <use x="865.576172" xlink:href="#MicrosoftYaHei-6b65"/>
       <use x="965.576172" xlink:href="#MicrosoftYaHei-4ece"/>
       <use x="1065.576172" xlink:href="#MicrosoftYaHei-2e"/>
       <use x="1089.648438" xlink:href="#MicrosoftYaHei-74"/>
       <use x="1126.919922" xlink:href="#MicrosoftYaHei-78"/>
       <use x="1177.603516" xlink:href="#MicrosoftYaHei-74"/>
      </g>
     </g>
    </g>
    <g id="ytick_3">
     <g id="line2d_21">
      <g>
       <use style="stroke:#000000;stroke-width:0.8;" x="172.8" xlink:href="#m761e92b576" y="387.143599"/>
      </g>
     </g>
     <g id="text_13">
      <!-- 2010.04.13_6_强化责任.txt -->
      <defs>
       <path d="M 82.03125 7.28125 
L 88.578125 10.40625 
Q 94.234375 0.4375 99.421875 -10.015625 
L 92.09375 -13.71875 
Q 90.53125 -10.015625 88.875 -6.5 
Q 58.59375 -8.546875 34.671875 -10.203125 
L 33.59375 -2.09375 
Q 48.25 -1.515625 62.015625 -0.921875 
L 62.015625 13.53125 
L 45.21875 13.53125 
L 45.21875 9.71875 
L 37.984375 9.71875 
L 37.984375 40.875 
L 62.015625 40.875 
L 62.015625 51.515625 
L 49.125 51.515625 
L 49.125 47.609375 
L 41.890625 47.609375 
L 41.890625 77.6875 
L 89.546875 77.6875 
L 89.546875 47.609375 
L 82.328125 47.609375 
L 82.328125 51.515625 
L 69.4375 51.515625 
L 69.4375 40.875 
L 93.5625 40.875 
L 93.5625 13.53125 
L 69.4375 13.53125 
L 69.4375 -0.640625 
Q 77.734375 -0.34375 85.75 0.046875 
Q 83.890625 3.765625 82.03125 7.28125 
z
M 6.640625 54.15625 
L 25.78125 54.15625 
L 25.78125 70.5625 
L 3.71875 70.5625 
L 3.71875 77.203125 
L 33.015625 77.203125 
L 33.015625 43.3125 
L 25.78125 43.3125 
L 25.78125 47.515625 
L 12.984375 47.515625 
L 11.234375 32.375 
L 32.125 32.375 
Q 31.15625 11.578125 30.375 2 
Q 29.5 -11.28125 17.1875 -11.28125 
Q 12.796875 -11.28125 6.640625 -11.1875 
Q 6.0625 -7.5625 5.078125 -3.375 
Q 11.421875 -3.859375 15.921875 -3.859375 
Q 22.5625 -3.859375 23.046875 2.984375 
Q 23.828125 12.9375 24.421875 25.734375 
L 3.515625 25.734375 
z
M 82.328125 71.046875 
L 49.125 71.046875 
L 49.125 58.15625 
L 82.328125 58.15625 
z
M 86.328125 20.171875 
L 86.328125 34.234375 
L 69.4375 34.234375 
L 69.4375 20.171875 
z
M 45.21875 20.171875 
L 62.015625 20.171875 
L 62.015625 34.234375 
L 45.21875 34.234375 
z
" id="MicrosoftYaHei-5f3a"/>
       <path d="M 28.8125 22.703125 
Q 41.609375 28.65625 52.734375 36.421875 
L 52.734375 81.203125 
L 61.140625 81.203125 
L 61.140625 42.71875 
Q 76.078125 54.78125 87.703125 70.5625 
L 94.828125 65.375 
Q 80.609375 46.484375 61.140625 32.328125 
L 61.140625 4.734375 
Q 61.140625 -1.90625 68.171875 -1.90625 
L 80.5625 -1.90625 
Q 87.203125 -1.90625 88.28125 4.4375 
Q 89.65625 11.078125 90.046875 19.78125 
Q 94.140625 18.21875 98.640625 16.9375 
Q 97.859375 8.734375 96.578125 1.90625 
Q 94.734375 -9.328125 82.515625 -9.328125 
L 66.015625 -9.328125 
Q 52.734375 -9.328125 52.734375 3.765625 
L 52.734375 26.609375 
Q 43.609375 20.75 33.5 15.875 
Q 31.453125 19.09375 28.8125 22.703125 
z
M 1.375 34.71875 
Q 18.359375 57.28125 26.375 82.671875 
L 34.859375 80.21875 
Q 30.21875 68.109375 24.8125 57.421875 
L 24.8125 -12.453125 
L 16.609375 -12.453125 
L 16.609375 42.71875 
Q 11.1875 33.9375 5.078125 26.21875 
Q 3.421875 30.421875 1.375 34.71875 
z
" id="MicrosoftYaHei-5316"/>
       <path d="M 3.03125 45.75 
L 46.1875 45.75 
L 46.1875 53.65625 
L 12.703125 53.65625 
L 12.703125 59.90625 
L 46.1875 59.90625 
L 46.1875 67.828125 
L 7.625 67.828125 
L 7.625 74.078125 
L 46.1875 74.078125 
L 46.1875 82.46875 
L 53.8125 82.46875 
L 53.8125 74.078125 
L 92.28125 74.078125 
L 92.28125 67.828125 
L 53.8125 67.828125 
L 53.8125 59.90625 
L 87.3125 59.90625 
L 87.3125 53.65625 
L 53.8125 53.65625 
L 53.8125 45.75 
L 96.96875 45.75 
L 96.96875 39.5 
L 3.03125 39.5 
z
M 14.9375 31.78125 
L 84.96875 31.78125 
L 84.96875 4.828125 
L 77.546875 4.828125 
L 77.546875 25.53125 
L 22.359375 25.53125 
L 22.359375 4.640625 
L 14.9375 4.640625 
z
M 53.8125 21.734375 
Q 53.8125 13.140625 52.546875 8.25 
Q 78.8125 0.046875 94.921875 -5.8125 
L 91.21875 -13.328125 
Q 75.203125 -6.203125 49.703125 1.609375 
Q 41.890625 -10.5 5.953125 -13.421875 
Q 4.109375 -9.625 1.5625 -6 
Q 37.890625 -4.25 43.84375 5.90625 
Q 46.484375 10.203125 46.296875 21.734375 
z
" id="MicrosoftYaHei-8d23"/>
       <path d="M 33.40625 -0.046875 
L 61.921875 -0.046875 
L 61.921875 30.8125 
L 31.640625 30.8125 
L 31.640625 38.234375 
L 61.921875 38.234375 
L 61.921875 67.28125 
Q 49.8125 66.453125 36.53125 65.765625 
Q 36.03125 69.1875 35.15625 73.296875 
Q 68.0625 75.046875 93.265625 77.78125 
L 94.734375 70.0625 
Q 83.203125 68.890625 70.125 67.921875 
L 70.125 38.234375 
L 98.734375 38.234375 
L 98.734375 30.8125 
L 70.125 30.8125 
L 70.125 -0.046875 
L 97.265625 -0.046875 
L 97.265625 -7.28125 
L 33.40625 -7.28125 
z
M 1.171875 36.078125 
Q 16.3125 56.5 25.09375 82.671875 
L 32.8125 79.828125 
Q 28.421875 68.359375 23.640625 58.453125 
L 23.640625 -13.140625 
L 15.921875 -13.140625 
L 15.921875 44.09375 
Q 10.40625 34.765625 4.390625 27.390625 
Q 3.03125 31.296875 1.171875 36.078125 
z
" id="MicrosoftYaHei-4efb"/>
      </defs>
      <g transform="translate(47.814063 391.277193)scale(0.1 -0.1)">
       <use xlink:href="#MicrosoftYaHei-32"/>
       <use x="58.642578" xlink:href="#MicrosoftYaHei-30"/>
       <use x="117.285156" xlink:href="#MicrosoftYaHei-31"/>
       <use x="175.927734" xlink:href="#MicrosoftYaHei-30"/>
       <use x="234.570312" xlink:href="#MicrosoftYaHei-2e"/>
       <use x="258.642578" xlink:href="#MicrosoftYaHei-30"/>
       <use x="317.285156" xlink:href="#MicrosoftYaHei-34"/>
       <use x="375.927734" xlink:href="#MicrosoftYaHei-2e"/>
       <use x="400" xlink:href="#MicrosoftYaHei-31"/>
       <use x="458.642578" xlink:href="#MicrosoftYaHei-33"/>
       <use x="517.285156" xlink:href="#MicrosoftYaHei-5f"/>
       <use x="562.109375" xlink:href="#MicrosoftYaHei-36"/>
       <use x="620.751953" xlink:href="#MicrosoftYaHei-5f"/>
       <use x="665.576172" xlink:href="#MicrosoftYaHei-5f3a"/>
       <use x="765.576172" xlink:href="#MicrosoftYaHei-5316"/>
       <use x="865.576172" xlink:href="#MicrosoftYaHei-8d23"/>
       <use x="965.576172" xlink:href="#MicrosoftYaHei-4efb"/>
       <use x="1065.576172" xlink:href="#MicrosoftYaHei-2e"/>
       <use x="1089.648438" xlink:href="#MicrosoftYaHei-74"/>
       <use x="1126.919922" xlink:href="#MicrosoftYaHei-78"/>
       <use x="1177.603516" xlink:href="#MicrosoftYaHei-74"/>
      </g>
     </g>
    </g>
    <g id="ytick_4">
     <g id="line2d_22">
      <g>
       <use style="stroke:#000000;stroke-width:0.8;" x="172.8" xlink:href="#m761e92b576" y="341.72616"/>
      </g>
     </g>
     <g id="text_14">
      <!-- 2013.10.08_17_干部“德.txt -->
      <defs>
       <path d="M 53.46875 69.734375 
Q 41.546875 48.921875 34.734375 31.21875 
Q 27.9375 13.53125 26.3125 0 
L 16.359375 0 
Q 18.171875 13.328125 24.90625 30.421875 
Q 31.640625 47.515625 42.921875 67.1875 
L 5.421875 67.1875 
L 5.421875 75.640625 
L 53.46875 75.640625 
z
" id="MicrosoftYaHei-37"/>
       <path d="M 1.5625 40.28125 
L 45.515625 40.28125 
L 45.515625 68.5 
L 9.375 68.5 
L 9.375 75.921875 
L 90.53125 75.921875 
L 90.53125 68.5 
L 54.203125 68.5 
L 54.203125 40.28125 
L 98.53125 40.28125 
L 98.53125 32.859375 
L 54.203125 32.859375 
L 54.203125 -13.140625 
L 45.515625 -13.140625 
L 45.515625 32.859375 
L 1.5625 32.859375 
z
" id="MicrosoftYaHei-5e72"/>
       <path d="M 98.25 19.484375 
Q 98.25 2.6875 85.0625 1.3125 
Q 80.078125 0.734375 71.78125 1.703125 
Q 71.296875 5.21875 70.515625 10.296875 
Q 77.640625 9.125 82.71875 9.125 
Q 91.3125 9.125 90.53125 20.953125 
Q 90.140625 31.390625 75.59375 42.328125 
Q 81.9375 54.9375 88.484375 70.359375 
L 68.5625 70.359375 
L 68.5625 -12.9375 
L 61.140625 -12.9375 
L 61.140625 77.59375 
L 96.296875 77.59375 
L 96.296875 69.578125 
Q 92.484375 59.71875 84.46875 44 
Q 98.25 33.25 98.25 19.484375 
z
M 8.984375 27.390625 
L 51.171875 27.390625 
L 51.171875 -12.359375 
L 43.953125 -12.359375 
L 43.953125 -5.125 
L 16.21875 -5.125 
L 16.21875 -12.453125 
L 8.984375 -12.453125 
z
M 43.953125 20.84375 
L 16.21875 20.84375 
L 16.21875 1.609375 
L 43.953125 1.609375 
z
M 1.953125 44.09375 
L 33.203125 44.09375 
Q 39.015625 54.15625 42.671875 62.453125 
L 49.90625 58.734375 
Q 45.65625 51.3125 40.875 44.09375 
L 57.90625 44.09375 
L 57.90625 37.546875 
L 1.953125 37.546875 
z
M 4.109375 69.875 
L 28.515625 69.875 
Q 26.609375 74.265625 22.75 80.609375 
L 29.5 83.734375 
Q 33.890625 76.421875 35.75 72.125 
L 30.953125 69.875 
L 56.15625 69.875 
L 56.15625 63.328125 
L 4.109375 63.328125 
z
M 10.640625 58.25 
L 16.609375 61.859375 
Q 21.484375 54.9375 25.484375 48 
L 18.84375 44.1875 
Q 15.828125 50.34375 10.640625 58.25 
z
" id="MicrosoftYaHei-90e8"/>
       <path d="M 94.1875 76.953125 
L 88.484375 53.421875 
L 79.828125 53.421875 
L 87.546875 76.953125 
z
M 77.484375 76.953125 
L 71.78125 53.421875 
L 63.140625 53.421875 
L 70.84375 76.953125 
z
" id="MicrosoftYaHei-201c"/>
       <path d="M 33.59375 60.203125 
L 58.984375 60.203125 
L 58.984375 68.015625 
L 30.953125 68.015625 
L 30.953125 74.171875 
L 58.984375 74.171875 
L 58.984375 83.25 
L 66.015625 83.25 
L 66.015625 74.171875 
L 96.09375 74.171875 
L 96.09375 68.015625 
L 66.015625 68.015625 
L 66.015625 60.203125 
L 91.890625 60.203125 
L 91.890625 32.765625 
L 85.359375 32.765625 
L 85.359375 35.796875 
L 40.140625 35.796875 
L 40.140625 32.765625 
L 33.59375 32.765625 
z
M 1.171875 24.953125 
Q 13.671875 37.15625 24.125 56.890625 
L 30.671875 53.5625 
Q 26.421875 45.703125 21.875 38.8125 
L 21.875 -12.9375 
L 14.84375 -12.9375 
L 14.84375 29.109375 
Q 9.8125 22.703125 4.390625 17.328125 
Q 2.9375 21.140625 1.171875 24.953125 
z
M 43.359375 16.15625 
L 50.203125 16.15625 
L 50.203125 1.90625 
Q 50.203125 -3.859375 55.46875 -3.859375 
L 67.578125 -3.859375 
Q 74.125 -3.859375 75 0.640625 
Q 75.875 5.21875 76.265625 11.28125 
Q 79.5 10.015625 83.59375 8.546875 
Q 82.328125 2.09375 81.453125 -1.90625 
Q 79.78125 -10.296875 70.609375 -10.296875 
L 53.90625 -10.296875 
Q 43.359375 -10.296875 43.359375 1.21875 
z
M 28.515625 27.6875 
L 97.5625 27.6875 
L 97.5625 21.53125 
L 28.515625 21.53125 
z
M 1.65625 56 
Q 13.96875 66.75 23.734375 83.15625 
L 30.375 79.15625 
Q 18.171875 60.40625 5.375 48.96875 
Q 3.609375 52.484375 1.65625 56 
z
M 33.40625 16.265625 
L 39.84375 13.921875 
Q 35.640625 2.484375 30.671875 -6.390625 
Q 28.21875 -5.125 24.515625 -3.078125 
Q 29.984375 5.8125 33.40625 16.265625 
z
M 85.359375 54.25 
L 74.3125 54.25 
L 74.3125 41.75 
L 85.359375 41.75 
z
M 57.234375 41.75 
L 68.171875 41.75 
L 68.171875 54.25 
L 57.234375 54.25 
z
M 40.140625 41.75 
L 51.078125 41.75 
L 51.078125 54.25 
L 40.140625 54.25 
z
M 83.203125 14.40625 
L 89.0625 17.625 
Q 93.265625 11.671875 98.921875 1.125 
L 92.390625 -2.390625 
Q 88.765625 5.8125 83.203125 14.40625 
z
M 54.6875 17.140625 
L 59.578125 20.75 
Q 65.046875 14.890625 69.625 8.734375 
L 63.96875 4.546875 
Q 60.0625 10.40625 54.6875 17.140625 
z
" id="MicrosoftYaHei-5fb7"/>
      </defs>
      <g transform="translate(41.95 345.912878)scale(0.1 -0.1)">
       <use xlink:href="#MicrosoftYaHei-32"/>
       <use x="58.642578" xlink:href="#MicrosoftYaHei-30"/>
       <use x="117.285156" xlink:href="#MicrosoftYaHei-31"/>
       <use x="175.927734" xlink:href="#MicrosoftYaHei-33"/>
       <use x="234.570312" xlink:href="#MicrosoftYaHei-2e"/>
       <use x="258.642578" xlink:href="#MicrosoftYaHei-31"/>
       <use x="317.285156" xlink:href="#MicrosoftYaHei-30"/>
       <use x="375.927734" xlink:href="#MicrosoftYaHei-2e"/>
       <use x="400" xlink:href="#MicrosoftYaHei-30"/>
       <use x="458.642578" xlink:href="#MicrosoftYaHei-38"/>
       <use x="517.285156" xlink:href="#MicrosoftYaHei-5f"/>
       <use x="562.109375" xlink:href="#MicrosoftYaHei-31"/>
       <use x="620.751953" xlink:href="#MicrosoftYaHei-37"/>
       <use x="679.394531" xlink:href="#MicrosoftYaHei-5f"/>
       <use x="724.21875" xlink:href="#MicrosoftYaHei-5e72"/>
       <use x="824.21875" xlink:href="#MicrosoftYaHei-90e8"/>
       <use x="924.21875" xlink:href="#MicrosoftYaHei-201c"/>
       <use x="1024.21875" xlink:href="#MicrosoftYaHei-5fb7"/>
       <use x="1124.21875" xlink:href="#MicrosoftYaHei-2e"/>
       <use x="1148.291016" xlink:href="#MicrosoftYaHei-74"/>
       <use x="1185.5625" xlink:href="#MicrosoftYaHei-78"/>
       <use x="1236.246094" xlink:href="#MicrosoftYaHei-74"/>
      </g>
     </g>
    </g>
    <g id="ytick_5">
     <g id="line2d_23">
      <g>
       <use style="stroke:#000000;stroke-width:0.8;" x="172.8" xlink:href="#m761e92b576" y="296.30872"/>
      </g>
     </g>
     <g id="text_15">
      <!-- 2011.12.27_17_打通基层.txt -->
      <defs>
       <path d="M 1.265625 27.296875 
Q 10.296875 30.171875 18.84375 33.0625 
L 18.84375 55.90625 
L 2.828125 55.90625 
L 2.828125 63.328125 
L 18.84375 63.328125 
L 18.84375 82.078125 
L 26.65625 82.078125 
L 26.65625 63.328125 
L 41.21875 63.328125 
L 41.21875 55.90625 
L 26.65625 55.90625 
L 26.65625 35.75 
Q 34.765625 38.53125 42.484375 41.359375 
Q 42.78125 36.375 43.265625 33.546875 
Q 34.859375 30.609375 26.65625 27.640625 
L 26.65625 -1.125 
Q 26.65625 -11.765625 16.5 -11.765625 
Q 12.109375 -11.765625 5.28125 -11.671875 
Q 4.78125 -7.5625 4.109375 -3.46875 
Q 8.984375 -4.15625 14.546875 -4.15625 
Q 18.84375 -4.15625 18.84375 0.53125 
L 18.84375 24.859375 
Q 11.078125 22.015625 3.515625 19.1875 
z
M 42.28125 74.75 
L 98.640625 74.75 
L 98.640625 67.328125 
L 81.84375 67.328125 
L 81.84375 1.21875 
Q 81.84375 -11.1875 69.625 -11.28125 
Q 63.28125 -11.375 52.640625 -11.1875 
Q 52.15625 -6.6875 51.078125 -2.296875 
Q 62.109375 -3.078125 67.578125 -3.078125 
Q 73.640625 -3.078125 73.640625 3.765625 
L 73.640625 67.328125 
L 42.28125 67.328125 
z
" id="MicrosoftYaHei-6253"/>
       <path d="M 40.53125 2.296875 
L 33.59375 2.296875 
L 33.59375 57.28125 
L 57.125 57.28125 
Q 49.8125 61.03125 42 64.796875 
L 46 69.484375 
Q 53.65625 65.765625 60.40625 62.40625 
L 77.828125 71.53125 
L 32.03125 71.53125 
L 32.03125 77.78125 
L 90.71875 77.78125 
L 90.71875 71.234375 
L 67.140625 58.984375 
Q 68.84375 58.109375 70.453125 57.28125 
L 91.40625 57.28125 
L 91.40625 13.140625 
Q 91.40625 2 81.15625 2 
Q 76.078125 2 70.125 2.296875 
Q 69.625 6 68.65625 9.8125 
Q 74.8125 9.125 79.203125 9.125 
Q 84.46875 9.125 84.46875 14.203125 
L 84.46875 19 
L 65.828125 19 
L 65.828125 3.765625 
L 58.890625 3.765625 
L 58.890625 19 
L 40.53125 19 
z
M 41.609375 -3.078125 
L 65.921875 -3.46875 
L 98.4375 -2.6875 
Q 97.359375 -5.90625 95.703125 -10.40625 
L 63.375 -10.59375 
L 40.140625 -10.015625 
Q 23.53125 -9.8125 16.890625 1.421875 
Q 12.890625 -2.296875 5.171875 -11.671875 
L 1.171875 -3.5625 
Q 9.8125 4.78125 13.671875 8.40625 
L 13.671875 41.265625 
L 2.046875 41.265625 
L 2.046875 48.484375 
L 21.1875 48.484375 
L 21.1875 6.734375 
Q 27.203125 -2.984375 41.609375 -3.078125 
z
M 13.375 81.296875 
Q 18.359375 75.25 27.046875 62.84375 
L 20.125 57.953125 
Q 12.203125 70.359375 7.125 77.09375 
z
M 84.46875 51.03125 
L 65.828125 51.03125 
L 65.828125 41.265625 
L 84.46875 41.265625 
z
M 65.828125 25.25 
L 84.46875 25.25 
L 84.46875 35.015625 
L 65.828125 35.015625 
z
M 40.53125 41.265625 
L 58.890625 41.265625 
L 58.890625 51.03125 
L 40.53125 51.03125 
z
M 40.53125 25.25 
L 58.890625 25.25 
L 58.890625 35.015625 
L 40.53125 35.015625 
z
" id="MicrosoftYaHei-901a"/>
       <path d="M 98.734375 10.890625 
Q 95.515625 6.890625 93.453125 3.859375 
Q 84.46875 8.109375 76.953125 14.015625 
L 76.953125 8.640625 
L 53.609375 8.640625 
L 53.609375 -1.515625 
L 91.796875 -1.515625 
L 91.796875 -7.859375 
L 8.109375 -7.859375 
L 8.109375 -1.515625 
L 46.296875 -1.515625 
L 46.296875 8.640625 
L 22.65625 8.640625 
L 22.65625 13.96875 
Q 14.890625 7.46875 6.453125 2.6875 
Q 4.59375 5.328125 1.375 8.84375 
Q 16.40625 16.15625 27.390625 27.390625 
L 2.4375 27.390625 
L 2.4375 33.734375 
L 21.875 33.734375 
L 21.875 66.453125 
L 5.46875 66.453125 
L 5.46875 72.796875 
L 21.875 72.796875 
L 21.875 83.34375 
L 29.203125 83.34375 
L 29.203125 72.796875 
L 71.09375 72.796875 
L 71.09375 83.34375 
L 78.421875 83.34375 
L 78.421875 72.796875 
L 94.828125 72.796875 
L 94.828125 66.453125 
L 78.421875 66.453125 
L 78.421875 33.734375 
L 97.5625 33.734375 
L 97.5625 27.390625 
L 71.875 27.390625 
Q 82.859375 16.453125 98.734375 10.890625 
z
M 46.296875 24.265625 
L 53.609375 24.265625 
L 53.609375 14.796875 
L 75.984375 14.796875 
Q 69 20.40625 63.234375 27.390625 
L 36.328125 27.390625 
Q 30.21875 20.453125 23.640625 14.796875 
L 46.296875 14.796875 
z
M 29.203125 33.734375 
L 71.09375 33.734375 
L 71.09375 40.671875 
L 29.203125 40.671875 
z
M 29.203125 46.734375 
L 71.09375 46.734375 
L 71.09375 53.5625 
L 29.203125 53.5625 
z
M 29.203125 59.625 
L 71.09375 59.625 
L 71.09375 66.453125 
L 29.203125 66.453125 
z
" id="MicrosoftYaHei-57fa"/>
       <path d="M 6.15625 -13.234375 
Q 3.328125 -9.421875 0.78125 -6.390625 
Q 12.890625 10.59375 12.890625 42.328125 
L 12.890625 78.46875 
L 93.171875 78.46875 
L 93.171875 47.703125 
L 85.75 47.703125 
L 85.75 51.3125 
L 20.3125 51.3125 
L 20.3125 40.765625 
Q 20.3125 7.765625 6.15625 -13.234375 
z
M 67.09375 8.734375 
L 72.359375 13.328125 
Q 86.8125 0.828125 95.3125 -8.25 
L 89.265625 -13.625 
Q 86.28125 -10.25 83.25 -7.078125 
Q 53.515625 -7.234375 34.671875 -8.640625 
Q 31.9375 -8.84375 27.734375 -9.90625 
L 24.421875 -2.6875 
Q 30.28125 -0.4375 33.5 2.296875 
Q 39.0625 7.765625 45.40625 16.15625 
L 21.484375 16.15625 
L 21.484375 23 
L 98.25 23 
L 98.25 16.15625 
L 55.46875 16.15625 
Q 47.21875 6.0625 40.140625 -1.03125 
Q 58.453125 -0.921875 76.90625 -0.53125 
Q 72.078125 4.25 67.09375 8.734375 
z
M 20.3125 71.625 
L 20.3125 58.15625 
L 85.75 58.15625 
L 85.75 71.625 
z
M 28.421875 40.671875 
L 89.546875 40.671875 
L 89.546875 33.84375 
L 28.421875 33.84375 
z
" id="MicrosoftYaHei-5c42"/>
      </defs>
      <g transform="translate(41.95 300.475907)scale(0.1 -0.1)">
       <use xlink:href="#MicrosoftYaHei-32"/>
       <use x="58.642578" xlink:href="#MicrosoftYaHei-30"/>
       <use x="117.285156" xlink:href="#MicrosoftYaHei-31"/>
       <use x="175.927734" xlink:href="#MicrosoftYaHei-31"/>
       <use x="234.570312" xlink:href="#MicrosoftYaHei-2e"/>
       <use x="258.642578" xlink:href="#MicrosoftYaHei-31"/>
       <use x="317.285156" xlink:href="#MicrosoftYaHei-32"/>
       <use x="375.927734" xlink:href="#MicrosoftYaHei-2e"/>
       <use x="400" xlink:href="#MicrosoftYaHei-32"/>
       <use x="458.642578" xlink:href="#MicrosoftYaHei-37"/>
       <use x="517.285156" xlink:href="#MicrosoftYaHei-5f"/>
       <use x="562.109375" xlink:href="#MicrosoftYaHei-31"/>
       <use x="620.751953" xlink:href="#MicrosoftYaHei-37"/>
       <use x="679.394531" xlink:href="#MicrosoftYaHei-5f"/>
       <use x="724.21875" xlink:href="#MicrosoftYaHei-6253"/>
       <use x="824.21875" xlink:href="#MicrosoftYaHei-901a"/>
       <use x="924.21875" xlink:href="#MicrosoftYaHei-57fa"/>
       <use x="1024.21875" xlink:href="#MicrosoftYaHei-5c42"/>
       <use x="1124.21875" xlink:href="#MicrosoftYaHei-2e"/>
       <use x="1148.291016" xlink:href="#MicrosoftYaHei-74"/>
       <use x="1185.5625" xlink:href="#MicrosoftYaHei-78"/>
       <use x="1236.246094" xlink:href="#MicrosoftYaHei-74"/>
      </g>
     </g>
    </g>
    <g id="ytick_6">
     <g id="line2d_24">
      <g>
       <use style="stroke:#000000;stroke-width:0.8;" x="172.8" xlink:href="#m761e92b576" y="250.89128"/>
      </g>
     </g>
     <g id="text_16">
      <!-- 2010.03.17_11_活水长流.txt -->
      <defs>
       <path d="M 34.671875 28.765625 
L 58.890625 28.765625 
L 58.890625 45.171875 
L 28.125 45.171875 
L 28.125 52.59375 
L 58.890625 52.59375 
L 58.890625 68.953125 
Q 46.921875 68.359375 32.8125 67.828125 
Q 32.125 71.34375 31.34375 75.25 
Q 64.9375 76.125 93.953125 79.25 
L 95.515625 71.53125 
Q 83.6875 70.359375 66.796875 69.390625 
L 66.796875 52.59375 
L 98.640625 52.59375 
L 98.640625 45.171875 
L 66.796875 45.171875 
L 66.796875 28.765625 
L 91.015625 28.765625 
L 91.015625 -13.234375 
L 83.40625 -13.234375 
L 83.40625 -7.375 
L 42.28125 -7.375 
L 42.28125 -13.234375 
L 34.671875 -13.234375 
z
M 83.40625 21.734375 
L 42.28125 21.734375 
L 42.28125 -0.34375 
L 83.40625 -0.34375 
z
M 15.921875 27.59375 
Q 20.90625 24.953125 24.21875 23.6875 
Q 18.453125 5.328125 12.984375 -12.0625 
L 4.296875 -8.0625 
Q 11.03125 8.15625 15.921875 27.59375 
z
M 5.375 56.5 
Q 15.4375 50.4375 24.03125 44 
Q 21.09375 40.09375 18.65625 36.96875 
Q 7.8125 45.65625 0.6875 50.25 
z
M 10.0625 81.890625 
Q 19.4375 75.4375 27.640625 68.796875 
Q 25 65.484375 22.265625 62.15625 
Q 13.1875 70.0625 5.171875 76.125 
z
" id="MicrosoftYaHei-6d3b"/>
       <path d="M 45.703125 82.765625 
L 53.609375 82.765625 
L 53.609375 67.09375 
Q 57.8125 55.671875 63.234375 45.84375 
Q 74.03125 54.828125 84.765625 67.328125 
L 91.3125 61.46875 
Q 79.890625 49.515625 67.1875 39.15625 
Q 80.078125 18.75 98.734375 6 
Q 94.625 1.90625 92.09375 -1.3125 
Q 66.40625 18.890625 53.609375 48.734375 
L 53.609375 3.078125 
Q 53.609375 -11.46875 39.65625 -11.46875 
Q 35.359375 -11.46875 26.953125 -11.375 
Q 26.46875 -7.765625 25.390625 -2.59375 
Q 33.203125 -3.375 38.09375 -3.375 
Q 45.703125 -3.375 45.703125 3.953125 
z
M 4 51.515625 
L 4 58.9375 
L 37.703125 58.9375 
L 37.703125 51.8125 
Q 29.390625 19.78125 7.421875 -3.078125 
Q 4.109375 0.734375 1.46875 2.875 
Q 23.53125 26.125 29.890625 51.515625 
z
" id="MicrosoftYaHei-6c34"/>
       <path d="M 2.640625 43.21875 
L 19.828125 43.21875 
L 19.828125 83.0625 
L 27.828125 83.0625 
L 27.828125 43.21875 
L 96.78125 43.21875 
L 96.78125 35.59375 
L 54 35.59375 
Q 66.21875 8.84375 98.828125 -1.21875 
Q 95.515625 -5.609375 92.875 -9.234375 
Q 57.765625 4.15625 45.703125 35.59375 
L 27.828125 35.59375 
L 27.828125 0.25 
Q 38.96875 4.734375 51.46875 10.59375 
Q 51.46875 6 51.859375 1.8125 
Q 40.234375 -2.984375 29.59375 -8.25 
Q 25.6875 -10.40625 22.359375 -13.03125 
L 16.5 -5.515625 
Q 19.828125 -2.875 19.828125 1.609375 
L 19.828125 35.59375 
L 2.640625 35.59375 
z
M 33.6875 55.125 
Q 57.90625 63.234375 80.28125 79.828125 
L 85.359375 73.484375 
Q 62.5 56.78125 37.5 47.90625 
Q 35.9375 51.21875 33.6875 55.125 
z
" id="MicrosoftYaHei-957f"/>
       <path d="M 78.328125 58.453125 
Q 85.9375 49.65625 95.21875 37.0625 
Q 91.609375 34.8125 88.1875 32.46875 
Q 85.75 36.03125 83.453125 39.3125 
Q 59.46875 38.234375 39.359375 37.15625 
Q 36.234375 37.0625 31.546875 35.984375 
L 28.21875 43.3125 
Q 31.84375 45.171875 35.0625 47.796875 
Q 42.625 54.25 50.09375 63.71875 
L 28.421875 63.71875 
L 28.421875 70.65625 
L 59.421875 70.65625 
Q 55.71875 76.421875 52.34375 80.71875 
L 58.796875 84.71875 
Q 62.40625 80.125 67 73.96875 
L 61.921875 70.65625 
L 95.125 70.65625 
L 95.125 63.71875 
L 51.953125 63.71875 
L 58.40625 60.984375 
Q 49.3125 51.21875 41.40625 44.578125 
Q 57.171875 45.0625 78.765625 45.84375 
Q 75.34375 50.4375 72.265625 54.34375 
z
M 73.140625 32.953125 
L 80.46875 32.953125 
L 80.46875 0.25 
Q 80.46875 -4.25 83.984375 -4.25 
L 87.40625 -4.25 
Q 90.4375 -4.25 91.21875 0.734375 
Q 91.890625 6 92.09375 13.03125 
Q 95.515625 11.46875 99.421875 10.203125 
Q 98.734375 2 97.953125 -2.390625 
Q 96.78125 -11.078125 88.671875 -11.078125 
L 82.625 -11.078125 
Q 73.140625 -11.078125 73.140625 0.34375 
z
M 36.03125 32.5625 
L 43.453125 32.5625 
Q 43.453125 11.1875 39.453125 2.59375 
Q 35.453125 -6.890625 23.25 -13.53125 
Q 21 -9.90625 18.265625 -7.078125 
Q 29.390625 -1.21875 32.421875 6.390625 
Q 36.03125 13.8125 36.03125 32.5625 
z
M 4.296875 -9.625 
Q 10.15625 7.5625 14.453125 28.265625 
Q 18.75 26.421875 22.359375 25.25 
Q 17.96875 8.34375 12.890625 -12.25 
z
M 55.28125 32.5625 
L 62.59375 32.5625 
L 62.59375 -10.984375 
L 55.28125 -10.984375 
z
M 1.265625 50.734375 
L 6.15625 56.390625 
Q 14.0625 50.921875 22.75 43.796875 
Q 19.234375 39.703125 17.09375 37.453125 
Q 6.9375 46.53125 1.265625 50.734375 
z
M 5.078125 76.21875 
L 10.0625 81.390625 
Q 17.1875 75.734375 25.984375 67.921875 
L 20.21875 62.15625 
Q 12.109375 70.359375 5.078125 76.21875 
z
" id="MicrosoftYaHei-6d41"/>
      </defs>
      <g transform="translate(41.95 255.127218)scale(0.1 -0.1)">
       <use xlink:href="#MicrosoftYaHei-32"/>
       <use x="58.642578" xlink:href="#MicrosoftYaHei-30"/>
       <use x="117.285156" xlink:href="#MicrosoftYaHei-31"/>
       <use x="175.927734" xlink:href="#MicrosoftYaHei-30"/>
       <use x="234.570312" xlink:href="#MicrosoftYaHei-2e"/>
       <use x="258.642578" xlink:href="#MicrosoftYaHei-30"/>
       <use x="317.285156" xlink:href="#MicrosoftYaHei-33"/>
       <use x="375.927734" xlink:href="#MicrosoftYaHei-2e"/>
       <use x="400" xlink:href="#MicrosoftYaHei-31"/>
       <use x="458.642578" xlink:href="#MicrosoftYaHei-37"/>
       <use x="517.285156" xlink:href="#MicrosoftYaHei-5f"/>
       <use x="562.109375" xlink:href="#MicrosoftYaHei-31"/>
       <use x="620.751953" xlink:href="#MicrosoftYaHei-31"/>
       <use x="679.394531" xlink:href="#MicrosoftYaHei-5f"/>
       <use x="724.21875" xlink:href="#MicrosoftYaHei-6d3b"/>
       <use x="824.21875" xlink:href="#MicrosoftYaHei-6c34"/>
       <use x="924.21875" xlink:href="#MicrosoftYaHei-957f"/>
       <use x="1024.21875" xlink:href="#MicrosoftYaHei-6d41"/>
       <use x="1124.21875" xlink:href="#MicrosoftYaHei-2e"/>
       <use x="1148.291016" xlink:href="#MicrosoftYaHei-74"/>
       <use x="1185.5625" xlink:href="#MicrosoftYaHei-78"/>
       <use x="1236.246094" xlink:href="#MicrosoftYaHei-74"/>
      </g>
     </g>
    </g>
    <g id="ytick_7">
     <g id="line2d_25">
      <g>
       <use style="stroke:#000000;stroke-width:0.8;" x="172.8" xlink:href="#m761e92b576" y="205.47384"/>
      </g>
     </g>
     <g id="text_17">
      <!-- 2005.12.01_8_中央文明.txt -->
      <defs>
       <path d="M 51.46875 23.34375 
Q 51.46875 12.25 44.109375 5.46875 
Q 36.765625 -1.3125 24.359375 -1.3125 
Q 13.71875 -1.3125 8.5 1.859375 
L 8.5 11.625 
Q 16.15625 6.640625 24.125 6.640625 
Q 32.03125 6.640625 36.890625 11 
Q 41.75 15.375 41.75 22.609375 
Q 41.75 29.828125 36.6875 33.859375 
Q 31.640625 37.890625 22.40625 37.890625 
Q 15.28125 37.890625 9.578125 37.25 
L 12.359375 75.640625 
L 47.703125 75.640625 
L 47.703125 67.234375 
L 20.40625 67.234375 
L 18.84375 45.796875 
L 25.734375 46.09375 
Q 37.75 46.09375 44.609375 40.109375 
Q 51.46875 34.125 51.46875 23.34375 
z
" id="MicrosoftYaHei-35"/>
       <path d="M 8.203125 62.0625 
L 45.796875 62.0625 
L 45.796875 83.34375 
L 54.203125 83.34375 
L 54.203125 62.0625 
L 92.1875 62.0625 
L 92.1875 17.53125 
L 84.1875 17.53125 
L 84.1875 22.796875 
L 54.203125 22.796875 
L 54.203125 -13.53125 
L 45.796875 -13.53125 
L 45.796875 22.796875 
L 16.21875 22.796875 
L 16.21875 17.53125 
L 8.203125 17.53125 
z
M 84.1875 54.828125 
L 54.203125 54.828125 
L 54.203125 30.03125 
L 84.1875 30.03125 
z
M 16.21875 30.03125 
L 45.796875 30.03125 
L 45.796875 54.828125 
L 16.21875 54.828125 
z
" id="MicrosoftYaHei-4e2d"/>
       <path d="M 2.546875 31.78125 
L 14.0625 31.78125 
L 14.0625 65.484375 
L 45.515625 65.484375 
L 45.515625 82.765625 
L 54 82.765625 
Q 53.953125 73.296875 53.90625 65.484375 
L 85.453125 65.484375 
L 85.453125 31.78125 
L 97.65625 31.78125 
L 97.65625 24.953125 
L 55.28125 24.953125 
Q 65.921875 1.421875 98.640625 -4.34375 
Q 95.015625 -8.640625 92.390625 -12.15625 
Q 59.8125 -4.046875 50 20.265625 
Q 42.328125 -1.421875 7.515625 -13.328125 
Q 5.28125 -10.296875 1.46875 -6 
Q 37.453125 4.890625 43.890625 24.953125 
L 2.546875 24.953125 
z
M 53.609375 31.78125 
L 77.734375 31.78125 
L 77.734375 58.640625 
L 53.859375 58.640625 
Q 53.765625 39.5 53.609375 31.78125 
z
M 45.453125 58.640625 
L 21.78125 58.640625 
L 21.78125 31.78125 
L 45.21875 31.78125 
Q 45.40625 41.109375 45.453125 58.640625 
z
" id="MicrosoftYaHei-592e"/>
       <path d="M 3.03125 66.265625 
L 49.90625 66.265625 
Q 44.96875 75.640625 42.1875 79.9375 
L 49.703125 83.453125 
Q 52.4375 79.25 57.90625 69.78125 
L 50.875 66.265625 
L 96.78125 66.265625 
L 96.78125 59.03125 
L 78.765625 59.03125 
Q 73.53125 31.15625 56.296875 14.203125 
Q 69.28125 4.734375 97.5625 -2.78125 
Q 93.0625 -7.859375 90.71875 -11.28125 
Q 63.1875 -1.765625 50.046875 8.640625 
Q 36.859375 -1.609375 7.90625 -12.0625 
Q 5.375 -8.640625 2.046875 -4.4375 
Q 29.984375 3.953125 44.09375 14.265625 
Q 26.265625 33.296875 21.4375 59.03125 
L 3.03125 59.03125 
z
M 70.40625 59.03125 
L 29.25 59.03125 
Q 33.640625 35.015625 50.25 19.34375 
Q 66.109375 34.078125 70.40625 59.03125 
z
" id="MicrosoftYaHei-6587"/>
       <path d="M 36.71875 -13.625 
Q 34.1875 -10.796875 30.375 -7.671875 
Q 42.28125 3.078125 46.09375 13.328125 
Q 49.8125 23 49.8125 44 
L 49.8125 78.375 
L 92.671875 78.375 
L 92.671875 -0.734375 
Q 92.671875 -12.359375 81.453125 -12.359375 
Q 74.515625 -12.359375 64.84375 -12.0625 
Q 64.265625 -8.15625 63.375 -4.046875 
Q 73.046875 -4.640625 79 -4.640625 
Q 84.96875 -4.640625 84.96875 1.125 
L 84.96875 20.0625 
L 55.859375 20.0625 
Q 53.125 1.8125 36.71875 -13.625 
z
M 7.421875 75.25 
L 37.984375 75.25 
L 37.984375 8.84375 
L 14.75 8.84375 
L 14.75 1.703125 
L 7.421875 1.703125 
z
M 56.78125 27.09375 
L 84.96875 27.09375 
L 84.96875 45.65625 
L 57.515625 45.65625 
Q 57.625 35.59375 56.78125 27.09375 
z
M 84.96875 71.046875 
L 57.515625 71.046875 
L 57.515625 52.6875 
L 84.96875 52.6875 
z
M 30.671875 15.96875 
L 30.671875 38.921875 
L 14.75 38.921875 
L 14.75 15.96875 
z
M 30.671875 68.109375 
L 14.75 68.109375 
L 14.75 45.84375 
L 30.671875 45.84375 
z
" id="MicrosoftYaHei-660e"/>
      </defs>
      <g transform="translate(47.814063 209.646497)scale(0.1 -0.1)">
       <use xlink:href="#MicrosoftYaHei-32"/>
       <use x="58.642578" xlink:href="#MicrosoftYaHei-30"/>
       <use x="117.285156" xlink:href="#MicrosoftYaHei-30"/>
       <use x="175.927734" xlink:href="#MicrosoftYaHei-35"/>
       <use x="234.570312" xlink:href="#MicrosoftYaHei-2e"/>
       <use x="258.642578" xlink:href="#MicrosoftYaHei-31"/>
       <use x="317.285156" xlink:href="#MicrosoftYaHei-32"/>
       <use x="375.927734" xlink:href="#MicrosoftYaHei-2e"/>
       <use x="400" xlink:href="#MicrosoftYaHei-30"/>
       <use x="458.642578" xlink:href="#MicrosoftYaHei-31"/>
       <use x="517.285156" xlink:href="#MicrosoftYaHei-5f"/>
       <use x="562.109375" xlink:href="#MicrosoftYaHei-38"/>
       <use x="620.751953" xlink:href="#MicrosoftYaHei-5f"/>
       <use x="665.576172" xlink:href="#MicrosoftYaHei-4e2d"/>
       <use x="765.576172" xlink:href="#MicrosoftYaHei-592e"/>
       <use x="865.576172" xlink:href="#MicrosoftYaHei-6587"/>
       <use x="965.576172" xlink:href="#MicrosoftYaHei-660e"/>
       <use x="1065.576172" xlink:href="#MicrosoftYaHei-2e"/>
       <use x="1089.648438" xlink:href="#MicrosoftYaHei-74"/>
       <use x="1126.919922" xlink:href="#MicrosoftYaHei-78"/>
       <use x="1177.603516" xlink:href="#MicrosoftYaHei-74"/>
      </g>
     </g>
    </g>
    <g id="ytick_8">
     <g id="line2d_26">
      <g>
       <use style="stroke:#000000;stroke-width:0.8;" x="172.8" xlink:href="#m761e92b576" y="160.056401"/>
      </g>
     </g>
     <g id="text_18">
      <!-- 2007.10.22_3_肩负起党.txt -->
      <defs>
       <path d="M 34.46875 -12.9375 
L 27.25 -12.9375 
L 27.25 41.15625 
L 89.15625 41.15625 
L 89.15625 -1.90625 
Q 89.15625 -12.15625 78.421875 -12.15625 
Q 70.90625 -12.15625 65.328125 -12.0625 
Q 64.75 -8.546875 63.484375 -4.828125 
Q 68.65625 -5.421875 77.15625 -5.421875 
Q 81.9375 -5.421875 81.9375 -0.53125 
L 81.9375 5.609375 
L 34.46875 5.609375 
z
M 11.328125 72.90625 
L 49.609375 72.90625 
Q 47.5625 76.703125 45.40625 80.328125 
L 52.34375 83.546875 
Q 55.5625 77.984375 58.015625 72.90625 
L 91.703125 72.90625 
L 91.703125 46.625 
L 84.375 46.625 
L 84.375 49.75 
L 18.65625 49.75 
L 18.65625 40.28125 
Q 18.953125 6 6.546875 -12.359375 
Q 4 -8.9375 1.265625 -6.296875 
Q 11.8125 10.890625 11.328125 40.484375 
z
M 84.375 66.65625 
L 18.65625 66.65625 
L 18.65625 56 
L 84.375 56 
z
M 34.46875 11.859375 
L 81.9375 11.859375 
L 81.9375 20.265625 
L 34.46875 20.265625 
z
M 81.9375 34.90625 
L 34.46875 34.90625 
L 34.46875 26.515625 
L 81.9375 26.515625 
z
" id="MicrosoftYaHei-80a9"/>
       <path d="M 15.046875 52.390625 
L 50.78125 52.390625 
Q 55.5625 57.171875 62.984375 65.875 
L 28.421875 65.875 
Q 18.171875 54.734375 7.234375 47.015625 
Q 5.078125 49.5625 1.46875 52.875 
Q 21.1875 67.234375 32.71875 83.34375 
L 40.625 80.421875 
Q 37.59375 76.421875 34.578125 72.796875 
L 73.4375 72.796875 
L 73.4375 66.265625 
Q 67.09375 59.03125 60.640625 52.390625 
L 87.5 52.390625 
L 87.5 10.015625 
L 79.6875 10.015625 
L 79.6875 45.453125 
L 22.859375 45.453125 
L 22.859375 9.421875 
L 15.046875 9.421875 
z
M 2.9375 -6.296875 
Q 28.21875 -1.515625 39.84375 6.59375 
Q 47.171875 11.375 47.171875 25.046875 
L 47.171875 40.765625 
L 55.078125 40.765625 
L 55.078125 26.8125 
Q 55.078125 20.265625 54.203125 15.578125 
Q 76.65625 5.21875 96.296875 -6.5 
L 91.109375 -13.71875 
Q 70.515625 -0.828125 51.953125 8.34375 
Q 44.734375 -6.109375 7.421875 -13.921875 
Q 5.375 -10.203125 2.9375 -6.296875 
z
" id="MicrosoftYaHei-8d1f"/>
       <path d="M 1.65625 -4.15625 
Q 9.078125 8.84375 9.671875 35.015625 
L 16.890625 34.625 
Q 16.546875 25.09375 15.484375 17.046875 
Q 19.140625 9.1875 25.203125 4.5 
L 25.203125 40.875 
L 2.15625 40.875 
L 2.15625 48 
L 22.171875 48 
L 22.171875 61.96875 
L 5.5625 61.96875 
L 5.5625 69.09375 
L 22.171875 69.09375 
L 22.171875 82.953125 
L 29.78125 82.953125 
L 29.78125 69.09375 
L 46.1875 69.09375 
L 46.1875 61.96875 
L 29.78125 61.96875 
L 29.78125 48 
L 48.140625 48 
L 48.140625 40.875 
L 32.515625 40.875 
L 32.515625 25.734375 
L 47.359375 25.734375 
L 47.359375 18.703125 
L 32.515625 18.703125 
L 32.515625 0.25 
Q 39.3125 -2.484375 48.140625 -2.59375 
Q 72.078125 -2.78125 98.640625 -2.203125 
Q 96.875 -6.59375 95.90625 -9.90625 
Q 65.140625 -10.015625 46.09375 -9.625 
Q 22.46875 -9.1875 13.8125 7.46875 
Q 11.078125 -5.328125 5.953125 -13.328125 
Q 4 -8.734375 1.65625 -4.15625 
z
M 60.15625 21.046875 
Q 60.15625 15.765625 65.4375 15.765625 
L 82.234375 15.765625 
Q 87.703125 15.765625 88.375 20.5625 
Q 88.96875 24.953125 89.453125 33.640625 
Q 92.484375 32.28125 96.875 30.8125 
Q 96 21.34375 95.125 16.9375 
Q 93.65625 8.734375 83.203125 8.734375 
L 63.578125 8.734375 
Q 52.734375 8.734375 52.734375 19.875 
L 52.734375 51.609375 
L 83.203125 51.609375 
L 83.203125 70.171875 
L 50.875 70.171875 
L 50.875 77.203125 
L 90.625 77.203125 
L 90.625 41.265625 
L 83.203125 41.265625 
L 83.203125 44.578125 
L 60.15625 44.578125 
z
" id="MicrosoftYaHei-8d77"/>
       <path d="M 19.625 47.40625 
L 80.375 47.40625 
L 80.375 15.96875 
L 72.953125 15.96875 
L 72.953125 19.09375 
L 63.671875 19.09375 
L 63.671875 2.390625 
Q 63.671875 -1.21875 64.75 -2.484375 
Q 66.109375 -4.15625 71.1875 -4.15625 
L 79.890625 -4.15625 
Q 87.203125 -4.15625 88.578125 0.4375 
Q 90.046875 5.21875 91.109375 13.625 
Q 94.625 12.0625 98.53125 10.890625 
Q 97.171875 3.265625 95.609375 -2 
Q 92.96875 -11.078125 81.25 -11.078125 
L 69.734375 -11.078125 
Q 62.5 -11.078125 59.578125 -8.640625 
Q 56.0625 -5.8125 56.0625 1.421875 
L 56.0625 19.09375 
L 43.015625 19.09375 
Q 41.609375 5.078125 32.625 -2.484375 
Q 24.421875 -9.234375 8.296875 -13.921875 
Q 6.0625 -9.90625 3.609375 -6.6875 
Q 20.21875 -2.875 27.9375 3.65625 
Q 34.328125 9.328125 35.359375 19.09375 
L 27.046875 19.09375 
L 27.046875 15.96875 
L 19.625 15.96875 
z
M 5.5625 63.8125 
L 46.296875 63.8125 
L 46.296875 82.953125 
L 53.71875 82.953125 
L 53.71875 63.8125 
L 94.4375 63.8125 
L 94.4375 42.140625 
L 87.203125 42.140625 
L 87.203125 56.984375 
L 12.796875 56.984375 
L 12.796875 42.140625 
L 5.5625 42.140625 
z
M 72.953125 40.765625 
L 27.046875 40.765625 
L 27.046875 25.734375 
L 72.953125 25.734375 
z
M 66.109375 71.140625 
Q 74.21875 76.21875 81.546875 82.171875 
L 87.109375 76.609375 
Q 78.609375 70.265625 70.796875 65.375 
z
M 14.84375 76.609375 
L 19.34375 81.6875 
Q 26.65625 76.8125 34.078125 71.4375 
L 28.71875 65.671875 
Q 22.078125 71.34375 14.84375 76.609375 
z
" id="MicrosoftYaHei-515a"/>
      </defs>
      <g transform="translate(47.814063 164.233744)scale(0.1 -0.1)">
       <use xlink:href="#MicrosoftYaHei-32"/>
       <use x="58.642578" xlink:href="#MicrosoftYaHei-30"/>
       <use x="117.285156" xlink:href="#MicrosoftYaHei-30"/>
       <use x="175.927734" xlink:href="#MicrosoftYaHei-37"/>
       <use x="234.570312" xlink:href="#MicrosoftYaHei-2e"/>
       <use x="258.642578" xlink:href="#MicrosoftYaHei-31"/>
       <use x="317.285156" xlink:href="#MicrosoftYaHei-30"/>
       <use x="375.927734" xlink:href="#MicrosoftYaHei-2e"/>
       <use x="400" xlink:href="#MicrosoftYaHei-32"/>
       <use x="458.642578" xlink:href="#MicrosoftYaHei-32"/>
       <use x="517.285156" xlink:href="#MicrosoftYaHei-5f"/>
       <use x="562.109375" xlink:href="#MicrosoftYaHei-33"/>
       <use x="620.751953" xlink:href="#MicrosoftYaHei-5f"/>
       <use x="665.576172" xlink:href="#MicrosoftYaHei-80a9"/>
       <use x="765.576172" xlink:href="#MicrosoftYaHei-8d1f"/>
       <use x="865.576172" xlink:href="#MicrosoftYaHei-8d77"/>
       <use x="965.576172" xlink:href="#MicrosoftYaHei-515a"/>
       <use x="1065.576172" xlink:href="#MicrosoftYaHei-2e"/>
       <use x="1089.648438" xlink:href="#MicrosoftYaHei-74"/>
       <use x="1126.919922" xlink:href="#MicrosoftYaHei-78"/>
       <use x="1177.603516" xlink:href="#MicrosoftYaHei-74"/>
      </g>
     </g>
    </g>
    <g id="ytick_9">
     <g id="line2d_27">
      <g>
       <use style="stroke:#000000;stroke-width:0.8;" x="172.8" xlink:href="#m761e92b576" y="114.638961"/>
      </g>
     </g>
     <g id="text_19">
      <!-- 2016.05.27_16_该下就下.txt -->
      <defs>
       <path d="M 31.34375 13.8125 
Q 49.609375 23.09375 62.015625 35.984375 
Q 50.78125 35.015625 41.796875 33.9375 
Q 38.375 33.546875 34.859375 32.46875 
L 31.25 39.59375 
Q 34.578125 41.453125 37.59375 44.875 
Q 43.40625 51.90625 49.75 61.46875 
L 30.671875 61.46875 
L 30.671875 68.5 
L 63.421875 68.5 
Q 59.234375 74.859375 55.5625 79.734375 
L 61.921875 83.734375 
Q 65.625 79.15625 70.515625 72.515625 
L 64.5 68.5 
L 97.078125 68.5 
L 97.078125 61.46875 
L 59.03125 61.46875 
Q 51.859375 51.21875 44.046875 41.65625 
Q 54 42.28125 68.40625 43.3125 
Q 73.734375 50.09375 77.640625 57.765625 
L 84.765625 53.953125 
Q 69.046875 25.4375 36.921875 7.859375 
Q 34.1875 10.890625 31.34375 13.8125 
z
M 31.34375 -6.984375 
Q 64.9375 7.078125 86.328125 38.71875 
L 92.96875 34.234375 
Q 84.859375 22.359375 75.09375 12.84375 
Q 86.28125 4.046875 96.96875 -4.9375 
L 91.015625 -11.28125 
Q 81.984375 -2.640625 69.78125 7.859375 
Q 54.890625 -5.171875 36.53125 -13.421875 
Q 34.671875 -10.796875 31.34375 -6.984375 
z
M 30.375 12.0625 
Q 30.765625 7.5625 31.453125 3.859375 
Q 25.390625 -0.828125 19.34375 -5.8125 
Q 16.890625 -7.953125 14.9375 -10.203125 
L 9.375 -4.046875 
Q 12.40625 -0.921875 12.40625 5.125 
L 12.40625 43.3125 
L 1.375 43.3125 
L 1.375 50.4375 
L 20.015625 50.4375 
L 20.015625 3.5625 
Q 25.203125 7.765625 30.375 12.0625 
z
M 11.71875 81.203125 
Q 19.921875 73 25.875 66.15625 
L 19.53125 60.6875 
Q 12.5 69.28125 6.0625 76.3125 
z
" id="MicrosoftYaHei-8be5"/>
       <path d="M 2.546875 75.046875 
L 97.46875 75.046875 
L 97.46875 67.046875 
L 50 67.046875 
L 50 45.75 
L 54.5 52 
Q 76.859375 38.8125 92 28.265625 
L 86.234375 20.359375 
Q 71.09375 31.984375 50 44.875 
L 50 -12.453125 
L 41.109375 -12.453125 
L 41.109375 67.046875 
L 2.546875 67.046875 
z
" id="MicrosoftYaHei-4e0b"/>
       <path d="M 49.90625 55.21875 
L 60.109375 55.21875 
Q 60.25 62.984375 60.453125 82.953125 
L 67.578125 82.953125 
Q 67.390625 64.5 67.140625 55.21875 
L 95.703125 55.21875 
L 95.703125 48.09375 
L 78.328125 48.09375 
L 78.328125 1.3125 
Q 78.328125 -3.265625 81.9375 -3.265625 
L 85.15625 -3.265625 
Q 89.359375 -3.265625 90.140625 2.484375 
Q 91.109375 8.34375 91.40625 17.4375 
Q 98.34375 14.703125 98.734375 14.5 
Q 97.859375 5.8125 97.078125 0.140625 
Q 95.609375 -10.296875 86.140625 -10.296875 
L 79.59375 -10.296875 
Q 71.1875 -10.296875 71.1875 -0.046875 
L 71.1875 48.09375 
L 66.84375 48.09375 
Q 66.21875 9.421875 44.734375 -13.625 
Q 42.1875 -10.890625 39.15625 -7.953125 
Q 59.375 13.53125 59.8125 48.09375 
L 49.90625 48.09375 
z
M 8.59375 54.640625 
L 47.265625 54.640625 
L 47.265625 25.25 
L 40.4375 25.25 
L 40.4375 27.59375 
L 31.34375 27.59375 
L 31.34375 -1.3125 
Q 31.34375 -11.28125 21.390625 -11.28125 
Q 17 -11.28125 12.796875 -11.078125 
Q 12.40625 -7.28125 11.234375 -3.5625 
Q 15.625 -4.25 20.21875 -4.25 
Q 24.515625 -4.25 24.515625 0.140625 
L 24.515625 27.59375 
L 15.4375 27.59375 
L 15.4375 25.25 
L 8.59375 25.25 
z
M 2.734375 69.96875 
L 26.859375 69.96875 
Q 24.3125 75.140625 20.703125 80.71875 
L 27.25 83.84375 
Q 30.859375 78.46875 33.59375 73 
L 27.34375 69.96875 
L 52.734375 69.96875 
L 52.734375 63.328125 
L 2.734375 63.328125 
z
M 40.4375 48.1875 
L 15.4375 48.1875 
L 15.4375 34.03125 
L 40.4375 34.03125 
z
M 12.703125 21.828125 
L 19.046875 19.28125 
Q 14.265625 6.984375 8.109375 -2.59375 
Q 5.671875 -0.828125 1.859375 0.828125 
Q 8.203125 10.40625 12.703125 21.828125 
z
M 72.859375 73.09375 
L 77.4375 78.171875 
Q 85.15625 72.703125 92.390625 66.75 
L 87.3125 61.078125 
Q 82.8125 65.375 72.859375 73.09375 
z
M 34.46875 19.671875 
L 40.046875 23.1875 
Q 45.609375 15.96875 49.3125 9.90625 
L 43.265625 5.8125 
Q 39.65625 12.453125 34.46875 19.671875 
z
" id="MicrosoftYaHei-5c31"/>
      </defs>
      <g transform="translate(41.95 118.831149)scale(0.1 -0.1)">
       <use xlink:href="#MicrosoftYaHei-32"/>
       <use x="58.642578" xlink:href="#MicrosoftYaHei-30"/>
       <use x="117.285156" xlink:href="#MicrosoftYaHei-31"/>
       <use x="175.927734" xlink:href="#MicrosoftYaHei-36"/>
       <use x="234.570312" xlink:href="#MicrosoftYaHei-2e"/>
       <use x="258.642578" xlink:href="#MicrosoftYaHei-30"/>
       <use x="317.285156" xlink:href="#MicrosoftYaHei-35"/>
       <use x="375.927734" xlink:href="#MicrosoftYaHei-2e"/>
       <use x="400" xlink:href="#MicrosoftYaHei-32"/>
       <use x="458.642578" xlink:href="#MicrosoftYaHei-37"/>
       <use x="517.285156" xlink:href="#MicrosoftYaHei-5f"/>
       <use x="562.109375" xlink:href="#MicrosoftYaHei-31"/>
       <use x="620.751953" xlink:href="#MicrosoftYaHei-36"/>
       <use x="679.394531" xlink:href="#MicrosoftYaHei-5f"/>
       <use x="724.21875" xlink:href="#MicrosoftYaHei-8be5"/>
       <use x="824.21875" xlink:href="#MicrosoftYaHei-4e0b"/>
       <use x="924.21875" xlink:href="#MicrosoftYaHei-5c31"/>
       <use x="1024.21875" xlink:href="#MicrosoftYaHei-4e0b"/>
       <use x="1124.21875" xlink:href="#MicrosoftYaHei-2e"/>
       <use x="1148.291016" xlink:href="#MicrosoftYaHei-74"/>
       <use x="1185.5625" xlink:href="#MicrosoftYaHei-78"/>
       <use x="1236.246094" xlink:href="#MicrosoftYaHei-74"/>
      </g>
     </g>
    </g>
    <g id="ytick_10">
     <g id="line2d_28">
      <g>
       <use style="stroke:#000000;stroke-width:0.8;" x="172.8" xlink:href="#m761e92b576" y="69.221521"/>
      </g>
     </g>
     <g id="text_20">
      <!-- 2012.11.15_3_肩负人民.txt -->
      <defs>
       <path d="M 1.5625 -4.734375 
Q 44.140625 19.875 46.578125 81.59375 
L 55.171875 81.59375 
Q 54.640625 71.140625 53.125 61.671875 
Q 65.234375 12.84375 98.640625 -2.59375 
Q 94.53125 -7.078125 91.40625 -11.078125 
Q 62.40625 5.328125 50.046875 46.96875 
Q 39.359375 6.734375 7.71875 -12.15625 
Q 5.078125 -8.546875 1.5625 -4.734375 
z
" id="MicrosoftYaHei-4eba"/>
       <path d="M 11.328125 79.046875 
L 89.546875 79.046875 
L 89.546875 43.40625 
L 81.84375 43.40625 
L 81.84375 47.703125 
L 59.90625 47.703125 
Q 60.75 38.09375 62.40625 30.125 
L 97.171875 30.125 
L 97.171875 23.09375 
L 64.15625 23.09375 
Q 69.140625 6 79 -2 
Q 83.890625 -6 86.625 -0.4375 
Q 88.96875 4.34375 90.140625 16.15625 
Q 94.625 14.203125 97.65625 13.328125 
Q 96 2.296875 93.65625 -3.953125 
Q 90.4375 -12.25 83.984375 -12.25 
Q 78.125 -12.25 72.46875 -7.28125 
Q 61.71875 1.90625 56.25 23.09375 
L 18.953125 23.09375 
L 18.953125 -2.390625 
Q 30.171875 1.125 42.875 6.5 
Q 42.484375 2 42.78125 -2.09375 
Q 26.953125 -7.46875 16.5 -11.671875 
Q 15.328125 -12.25 12.890625 -13.53125 
L 8.59375 -6.296875 
Q 11.328125 -4.34375 11.328125 -0.828125 
z
M 81.84375 72.015625 
L 18.953125 72.015625 
L 18.953125 54.734375 
L 81.84375 54.734375 
z
M 52.09375 47.703125 
L 18.953125 47.703125 
L 18.953125 30.125 
L 54.6875 30.125 
Q 53.078125 38.1875 52.09375 47.703125 
z
" id="MicrosoftYaHei-6c11"/>
      </defs>
      <g transform="translate(47.814063 73.398865)scale(0.1 -0.1)">
       <use xlink:href="#MicrosoftYaHei-32"/>
       <use x="58.642578" xlink:href="#MicrosoftYaHei-30"/>
       <use x="117.285156" xlink:href="#MicrosoftYaHei-31"/>
       <use x="175.927734" xlink:href="#MicrosoftYaHei-32"/>
       <use x="234.570312" xlink:href="#MicrosoftYaHei-2e"/>
       <use x="258.642578" xlink:href="#MicrosoftYaHei-31"/>
       <use x="317.285156" xlink:href="#MicrosoftYaHei-31"/>
       <use x="375.927734" xlink:href="#MicrosoftYaHei-2e"/>
       <use x="400" xlink:href="#MicrosoftYaHei-31"/>
       <use x="458.642578" xlink:href="#MicrosoftYaHei-35"/>
       <use x="517.285156" xlink:href="#MicrosoftYaHei-5f"/>
       <use x="562.109375" xlink:href="#MicrosoftYaHei-33"/>
       <use x="620.751953" xlink:href="#MicrosoftYaHei-5f"/>
       <use x="665.576172" xlink:href="#MicrosoftYaHei-80a9"/>
       <use x="765.576172" xlink:href="#MicrosoftYaHei-8d1f"/>
       <use x="865.576172" xlink:href="#MicrosoftYaHei-4eba"/>
       <use x="965.576172" xlink:href="#MicrosoftYaHei-6c11"/>
       <use x="1065.576172" xlink:href="#MicrosoftYaHei-2e"/>
       <use x="1089.648438" xlink:href="#MicrosoftYaHei-74"/>
       <use x="1126.919922" xlink:href="#MicrosoftYaHei-78"/>
       <use x="1177.603516" xlink:href="#MicrosoftYaHei-74"/>
      </g>
     </g>
    </g>
    <g id="text_21">
     <!-- Document -->
     <defs>
      <path d="M 19.671875 64.796875 
L 19.671875 8.109375 
L 31.59375 8.109375 
Q 46.6875 8.109375 53.6875 14.9375 
Q 60.6875 21.78125 60.6875 36.53125 
Q 60.6875 51.171875 53.6875 57.984375 
Q 46.6875 64.796875 31.59375 64.796875 
z
M 9.8125 72.90625 
L 30.078125 72.90625 
Q 51.265625 72.90625 61.171875 64.09375 
Q 71.09375 55.28125 71.09375 36.53125 
Q 71.09375 17.671875 61.125 8.828125 
Q 51.171875 0 30.078125 0 
L 9.8125 0 
z
" id="DejaVuSans-44"/>
      <path d="M 30.609375 48.390625 
Q 23.390625 48.390625 19.1875 42.75 
Q 14.984375 37.109375 14.984375 27.296875 
Q 14.984375 17.484375 19.15625 11.84375 
Q 23.34375 6.203125 30.609375 6.203125 
Q 37.796875 6.203125 41.984375 11.859375 
Q 46.1875 17.53125 46.1875 27.296875 
Q 46.1875 37.015625 41.984375 42.703125 
Q 37.796875 48.390625 30.609375 48.390625 
z
M 30.609375 56 
Q 42.328125 56 49.015625 48.375 
Q 55.71875 40.765625 55.71875 27.296875 
Q 55.71875 13.875 49.015625 6.21875 
Q 42.328125 -1.421875 30.609375 -1.421875 
Q 18.84375 -1.421875 12.171875 6.21875 
Q 5.515625 13.875 5.515625 27.296875 
Q 5.515625 40.765625 12.171875 48.375 
Q 18.84375 56 30.609375 56 
z
" id="DejaVuSans-6f"/>
      <path d="M 48.78125 52.59375 
L 48.78125 44.1875 
Q 44.96875 46.296875 41.140625 47.34375 
Q 37.3125 48.390625 33.40625 48.390625 
Q 24.65625 48.390625 19.8125 42.84375 
Q 14.984375 37.3125 14.984375 27.296875 
Q 14.984375 17.28125 19.8125 11.734375 
Q 24.65625 6.203125 33.40625 6.203125 
Q 37.3125 6.203125 41.140625 7.25 
Q 44.96875 8.296875 48.78125 10.40625 
L 48.78125 2.09375 
Q 45.015625 0.34375 40.984375 -0.53125 
Q 36.96875 -1.421875 32.421875 -1.421875 
Q 20.0625 -1.421875 12.78125 6.34375 
Q 5.515625 14.109375 5.515625 27.296875 
Q 5.515625 40.671875 12.859375 48.328125 
Q 20.21875 56 33.015625 56 
Q 37.15625 56 41.109375 55.140625 
Q 45.0625 54.296875 48.78125 52.59375 
z
" id="DejaVuSans-63"/>
      <path d="M 8.5 21.578125 
L 8.5 54.6875 
L 17.484375 54.6875 
L 17.484375 21.921875 
Q 17.484375 14.15625 20.5 10.265625 
Q 23.53125 6.390625 29.59375 6.390625 
Q 36.859375 6.390625 41.078125 11.03125 
Q 45.3125 15.671875 45.3125 23.6875 
L 45.3125 54.6875 
L 54.296875 54.6875 
L 54.296875 0 
L 45.3125 0 
L 45.3125 8.40625 
Q 42.046875 3.421875 37.71875 1 
Q 33.40625 -1.421875 27.6875 -1.421875 
Q 18.265625 -1.421875 13.375 4.4375 
Q 8.5 10.296875 8.5 21.578125 
z
M 31.109375 56 
z
" id="DejaVuSans-75"/>
      <path d="M 52 44.1875 
Q 55.375 50.25 60.0625 53.125 
Q 64.75 56 71.09375 56 
Q 79.640625 56 84.28125 50.015625 
Q 88.921875 44.046875 88.921875 33.015625 
L 88.921875 0 
L 79.890625 0 
L 79.890625 32.71875 
Q 79.890625 40.578125 77.09375 44.375 
Q 74.3125 48.1875 68.609375 48.1875 
Q 61.625 48.1875 57.5625 43.546875 
Q 53.515625 38.921875 53.515625 30.90625 
L 53.515625 0 
L 44.484375 0 
L 44.484375 32.71875 
Q 44.484375 40.625 41.703125 44.40625 
Q 38.921875 48.1875 33.109375 48.1875 
Q 26.21875 48.1875 22.15625 43.53125 
Q 18.109375 38.875 18.109375 30.90625 
L 18.109375 0 
L 9.078125 0 
L 9.078125 54.6875 
L 18.109375 54.6875 
L 18.109375 46.1875 
Q 21.1875 51.21875 25.484375 53.609375 
Q 29.78125 56 35.6875 56 
Q 41.65625 56 45.828125 52.96875 
Q 50 49.953125 52 44.1875 
z
" id="DejaVuSans-6d"/>
      <path d="M 54.890625 33.015625 
L 54.890625 0 
L 45.90625 0 
L 45.90625 32.71875 
Q 45.90625 40.484375 42.875 44.328125 
Q 39.84375 48.1875 33.796875 48.1875 
Q 26.515625 48.1875 22.3125 43.546875 
Q 18.109375 38.921875 18.109375 30.90625 
L 18.109375 0 
L 9.078125 0 
L 9.078125 54.6875 
L 18.109375 54.6875 
L 18.109375 46.1875 
Q 21.34375 51.125 25.703125 53.5625 
Q 30.078125 56 35.796875 56 
Q 45.21875 56 50.046875 50.171875 
Q 54.890625 44.34375 54.890625 33.015625 
z
" id="DejaVuSans-6e"/>
     </defs>
     <g transform="translate(35.870312 299.503125)rotate(-90)scale(0.1 -0.1)">
      <use xlink:href="#DejaVuSans-44"/>
      <use x="77.001953" xlink:href="#DejaVuSans-6f"/>
      <use x="138.183594" xlink:href="#DejaVuSans-63"/>
      <use x="193.164062" xlink:href="#DejaVuSans-75"/>
      <use x="256.542969" xlink:href="#DejaVuSans-6d"/>
      <use x="353.955078" xlink:href="#DejaVuSans-65"/>
      <use x="415.478516" xlink:href="#DejaVuSans-6e"/>
      <use x="478.857422" xlink:href="#DejaVuSans-74"/>
     </g>
    </g>
   </g>
   <g id="patch_13">
    <path d="M 172.8 518.4 
L 172.8 28.8 
" style="fill:none;stroke:#000000;stroke-linecap:square;stroke-linejoin:miter;stroke-width:0.8;"/>
   </g>
   <g id="patch_14">
    <path d="M 820.8 518.4 
L 820.8 28.8 
" style="fill:none;stroke:#000000;stroke-linecap:square;stroke-linejoin:miter;stroke-width:0.8;"/>
   </g>
   <g id="patch_15">
    <path d="M 172.8 518.4 
L 820.8 518.4 
" style="fill:none;stroke:#000000;stroke-linecap:square;stroke-linejoin:miter;stroke-width:0.8;"/>
   </g>
   <g id="patch_16">
    <path d="M 172.8 28.8 
L 820.8 28.8 
" style="fill:none;stroke:#000000;stroke-linecap:square;stroke-linejoin:miter;stroke-width:0.8;"/>
   </g>
   <g id="text_22">
    <!-- Topic 0 -->
    <defs>
     <path d="M -0.296875 72.90625 
L 61.375 72.90625 
L 61.375 64.59375 
L 35.5 64.59375 
L 35.5 0 
L 25.59375 0 
L 25.59375 64.59375 
L -0.296875 64.59375 
z
" id="DejaVuSans-54"/>
     <path d="M 18.109375 8.203125 
L 18.109375 -20.796875 
L 9.078125 -20.796875 
L 9.078125 54.6875 
L 18.109375 54.6875 
L 18.109375 46.390625 
Q 20.953125 51.265625 25.265625 53.625 
Q 29.59375 56 35.59375 56 
Q 45.5625 56 51.78125 48.09375 
Q 58.015625 40.1875 58.015625 27.296875 
Q 58.015625 14.40625 51.78125 6.484375 
Q 45.5625 -1.421875 35.59375 -1.421875 
Q 29.59375 -1.421875 25.265625 0.953125 
Q 20.953125 3.328125 18.109375 8.203125 
z
M 48.6875 27.296875 
Q 48.6875 37.203125 44.609375 42.84375 
Q 40.53125 48.484375 33.40625 48.484375 
Q 26.265625 48.484375 22.1875 42.84375 
Q 18.109375 37.203125 18.109375 27.296875 
Q 18.109375 17.390625 22.1875 11.75 
Q 26.265625 6.109375 33.40625 6.109375 
Q 40.53125 6.109375 44.609375 11.75 
Q 48.6875 17.390625 48.6875 27.296875 
z
" id="DejaVuSans-70"/>
     <path id="DejaVuSans-20"/>
    </defs>
    <g transform="translate(474.980625 22.8)scale(0.12 -0.12)">
     <use xlink:href="#DejaVuSans-54"/>
     <use x="60.818359" xlink:href="#DejaVuSans-6f"/>
     <use x="122" xlink:href="#DejaVuSans-70"/>
     <use x="185.476562" xlink:href="#DejaVuSans-69"/>
     <use x="213.259766" xlink:href="#DejaVuSans-63"/>
     <use x="268.240234" xlink:href="#DejaVuSans-20"/>
     <use x="300.027344" xlink:href="#DejaVuSans-30"/>
    </g>
   </g>
  </g>
 </g>
 <defs>
  <clipPath id="p730a06d1c6">
   <rect height="489.6" width="648" x="172.8" y="28.8"/>
  </clipPath>
 </defs>
</svg>
